<svg version="1.1" xmlns="http://www.w3.org/2000/svg" xmlns:xlink="http://www.w3.org/1999/xlink" width="1895.10546875" height="746"><defs/><g><g><rect fill="#C0C0C0" stroke="none" x="55" y="183" width="86.4" height="15" transform="matrix(1 0 0 1 497 128)" fill-opacity="0.2"/></g><g><rect fill="#C0C0C0" stroke="none" x="55" y="197" width="216" height="106" transform="matrix(1 0 0 1 497 128)" fill-opacity="0.2"/></g><g><rect fill="#ffffff" stroke="none" x="48" y="191" width="216" height="105" transform="matrix(1 0 0 1 497 128)"/></g><g><path fill="none" stroke="#000000" paint-order="fill stroke markers" d=" M 545 319 L 761 319 L 761 424 L 545 424 L 545 319 Z Z" stroke-miterlimit="10" stroke-dasharray=""/></g><g><rect fill="#ffffff" stroke="none" x="48" y="176" width="86.4" height="15" transform="matrix(1 0 0 1 497 128)"/></g><g><path fill="none" stroke="#000000" paint-order="fill stroke markers" d=" M 545 304 L 631.4 304 L 631.4 319 L 545 319 L 545 304 Z Z" stroke-miterlimit="10" stroke-dasharray=""/></g><g><rect fill="#ffffff" stroke="none" x="48" y="190" width="216" height="106" transform="matrix(1 0 0 1 497 128)"/></g><g><path fill="none" stroke="#000000" paint-order="fill stroke markers" d=" M 545 318 L 761 318 L 761 424 L 545 424 L 545 318 Z Z" stroke-miterlimit="10" stroke-dasharray=""/></g><g><g><path fill="none" stroke="none"/><text fill="#000000" stroke="none" font-family="Arial" font-size="13px" font-style="normal" font-weight="bold" text-decoration="undefined" x="156.5" y="204.5" text-anchor="middle" dominant-baseline="central" transform="matrix(1 0 0 1 497 128)">extraction</text></g></g><g><rect fill="#C0C0C0" stroke="none" x="383" y="183" width="99.19999999999999" height="15" transform="matrix(1 0 0 1 497 128)" fill-opacity="0.2"/></g><g><rect fill="#C0C0C0" stroke="none" x="383" y="197" width="248" height="122" transform="matrix(1 0 0 1 497 128)" fill-opacity="0.2"/></g><g><rect fill="#ffffff" stroke="none" x="376" y="191" width="248" height="121" transform="matrix(1 0 0 1 497 128)"/></g><g><path fill="none" stroke="#000000" paint-order="fill stroke markers" d=" M 873 319 L 1121 319 L 1121 440 L 873 440 L 873 319 Z Z" stroke-miterlimit="10" stroke-dasharray=""/></g><g><rect fill="#ffffff" stroke="none" x="376" y="176" width="99.19999999999999" height="15" transform="matrix(1 0 0 1 497 128)"/></g><g><path fill="none" stroke="#000000" paint-order="fill stroke markers" d=" M 873 304 L 972.2 304 L 972.2 319 L 873 319 L 873 304 Z Z" stroke-miterlimit="10" stroke-dasharray=""/></g><g><rect fill="#ffffff" stroke="none" x="376" y="190" width="248" height="122" transform="matrix(1 0 0 1 497 128)"/></g><g><path fill="none" stroke="#000000" paint-order="fill stroke markers" d=" M 873 318 L 1121 318 L 1121 440 L 873 440 L 873 318 Z Z" stroke-miterlimit="10" stroke-dasharray=""/></g><g><g><path fill="none" stroke="none"/><text fill="#000000" stroke="none" font-family="Arial" font-size="13px" font-style="normal" font-weight="bold" text-decoration="undefined" x="500.5" y="204.5" text-anchor="middle" dominant-baseline="central" transform="matrix(1 0 0 1 497 128)">knowledgemodel</text></g></g><g><rect fill="#C0C0C0" stroke="none" x="751" y="135" width="21.052343749999977" height="15" transform="matrix(1 0 0 1 497 128)" fill-opacity="0.2"/></g><g><rect fill="#C0C0C0" stroke="none" x="751" y="149" width="52.630859375" height="26" transform="matrix(1 0 0 1 497 128)" fill-opacity="0.2"/></g><g><rect fill="#ffffff" stroke="none" x="744" y="143" width="52.630859375" height="25" transform="matrix(1 0 0 1 497 128)"/></g><g><path fill="none" stroke="#000000" paint-order="fill stroke markers" d=" M 1241 271 L 1293.630859375 271 L 1293.630859375 296 L 1241 296 L 1241 271 Z Z" stroke-miterlimit="10" stroke-dasharray=""/></g><g><rect fill="#ffffff" stroke="none" x="744" y="128" width="21.052343749999977" height="15" transform="matrix(1 0 0 1 497 128)"/></g><g><path fill="none" stroke="#000000" paint-order="fill stroke markers" d=" M 1241 256 L 1262.05234375 256 L 1262.05234375 271 L 1241 271 L 1241 256 Z Z" stroke-miterlimit="10" stroke-dasharray=""/></g><g><rect fill="#ffffff" stroke="none" x="744" y="142" width="52.630859375" height="26" transform="matrix(1 0 0 1 497 128)"/></g><g><path fill="none" stroke="#000000" paint-order="fill stroke markers" d=" M 1241 270 L 1293.630859375 270 L 1293.630859375 296 L 1241 296 L 1241 270 Z Z" stroke-miterlimit="10" stroke-dasharray=""/></g><g><g><path fill="none" stroke="none"/><text fill="#000000" stroke="none" font-family="Arial" font-size="13px" font-style="normal" font-weight="bold" text-decoration="undefined" x="770.8154296875" y="156.5" text-anchor="middle" dominant-baseline="central" transform="matrix(1 0 0 1 497 128)">source</text></g></g><g><rect fill="#C0C0C0" stroke="none" x="207" y="39" width="60.0625" height="15" transform="matrix(1 0 0 1 497 128)" fill-opacity="0.2"/></g><g><rect fill="#C0C0C0" stroke="none" x="207" y="53" width="150.15625" height="41" transform="matrix(1 0 0 1 497 128)" fill-opacity="0.2"/></g><g><rect fill="#ffffff" stroke="none" x="200" y="47" width="150.15625" height="40" transform="matrix(1 0 0 1 497 128)"/></g><g><path fill="none" stroke="#000000" paint-order="fill stroke markers" d=" M 697 175 L 847.15625 175 L 847.15625 215 L 697 215 L 697 175 Z Z" stroke-miterlimit="10" stroke-dasharray=""/></g><g><rect fill="#ffffff" stroke="none" x="200" y="32" width="60.0625" height="15" transform="matrix(1 0 0 1 497 128)"/></g><g><path fill="none" stroke="#000000" paint-order="fill stroke markers" d=" M 697 160 L 757.0625 160 L 757.0625 175 L 697 175 L 697 160 Z Z" stroke-miterlimit="10" stroke-dasharray=""/></g><g><rect fill="#ffffff" stroke="none" x="200" y="46" width="150.15625" height="41" transform="matrix(1 0 0 1 497 128)"/></g><g><path fill="none" stroke="#000000" paint-order="fill stroke markers" d=" M 697 174 L 847.15625 174 L 847.15625 215 L 697 215 L 697 174 Z Z" stroke-miterlimit="10" stroke-dasharray=""/></g><g><g><path fill="none" stroke="none"/><text fill="#000000" stroke="none" font-family="Arial" font-size="13px" font-style="normal" font-weight="bold" text-decoration="undefined" x="275.578125" y="60.5" text-anchor="middle" dominant-baseline="central" transform="matrix(1 0 0 1 497 128)">aggregation</text></g></g><g><rect fill="#C0C0C0" stroke="none" x="407" y="351" width="59.20175781249998" height="15" transform="matrix(1 0 0 1 497 128)" fill-opacity="0.2"/></g><g><rect fill="#C0C0C0" stroke="none" x="407" y="365" width="148.00439453125" height="41" transform="matrix(1 0 0 1 497 128)" fill-opacity="0.2"/></g><g><rect fill="#ffffff" stroke="none" x="400" y="359" width="148.00439453125" height="40" transform="matrix(1 0 0 1 497 128)"/></g><g><path fill="none" stroke="#000000" paint-order="fill stroke markers" d=" M 897 487 L 1045.00439453125 487 L 1045.00439453125 527 L 897 527 L 897 487 Z Z" stroke-miterlimit="10" stroke-dasharray=""/></g><g><rect fill="#ffffff" stroke="none" x="400" y="344" width="59.20175781249998" height="15" transform="matrix(1 0 0 1 497 128)"/></g><g><path fill="none" stroke="#000000" paint-order="fill stroke markers" d=" M 897 472 L 956.2017578125 472 L 956.2017578125 487 L 897 487 L 897 472 Z Z" stroke-miterlimit="10" stroke-dasharray=""/></g><g><rect fill="#ffffff" stroke="none" x="400" y="358" width="148.00439453125" height="41" transform="matrix(1 0 0 1 497 128)"/></g><g><path fill="none" stroke="#000000" paint-order="fill stroke markers" d=" M 897 486 L 1045.00439453125 486 L 1045.00439453125 527 L 897 527 L 897 486 Z Z" stroke-miterlimit="10" stroke-dasharray=""/></g><g><g><path fill="none" stroke="none"/><text fill="#000000" stroke="none" font-family="Arial" font-size="13px" font-style="normal" font-weight="bold" text-decoration="undefined" x="474.502197265625" y="372.5" text-anchor="middle" dominant-baseline="central" transform="matrix(1 0 0 1 497 128)">model</text></g></g><g><rect fill="#C0C0C0" stroke="none" x="719" y="207" width="115.20000000000005" height="15" transform="matrix(1 0 0 1 497 128)" fill-opacity="0.2"/></g><g><rect fill="#C0C0C0" stroke="none" x="719" y="221" width="288" height="130" transform="matrix(1 0 0 1 497 128)" fill-opacity="0.2"/></g><g><rect fill="#ffffff" stroke="none" x="712" y="215" width="288" height="129" transform="matrix(1 0 0 1 497 128)"/></g><g><path fill="none" stroke="#000000" paint-order="fill stroke markers" d=" M 1209 343 L 1497 343 L 1497 472 L 1209 472 L 1209 343 Z Z" stroke-miterlimit="10" stroke-dasharray=""/></g><g><rect fill="#ffffff" stroke="none" x="712" y="200" width="115.20000000000005" height="15" transform="matrix(1 0 0 1 497 128)"/></g><g><path fill="none" stroke="#000000" paint-order="fill stroke markers" d=" M 1209 328 L 1324.2 328 L 1324.2 343 L 1209 343 L 1209 328 Z Z" stroke-miterlimit="10" stroke-dasharray=""/></g><g><rect fill="#ffffff" stroke="none" x="712" y="214" width="288" height="130" transform="matrix(1 0 0 1 497 128)"/></g><g><path fill="none" stroke="#000000" paint-order="fill stroke markers" d=" M 1209 342 L 1497 342 L 1497 472 L 1209 472 L 1209 342 Z Z" stroke-miterlimit="10" stroke-dasharray=""/></g><g><g><path fill="none" stroke="none"/><text fill="#000000" stroke="none" font-family="Arial" font-size="13px" font-style="normal" font-weight="bold" text-decoration="undefined" x="856.5" y="228.5" text-anchor="middle" dominant-baseline="central" transform="matrix(1 0 0 1 497 128)">old_version</text></g></g><g><rect fill="#C0C0C0" stroke="none" x="391" y="249" width="199.83349609375" height="46" transform="matrix(1 0 0 1 497 128)" fill-opacity="0.2"/></g><g><rect fill="#C0C0C0" stroke="none" x="582.892578125" y="231" width="17.94091796875" height="23" transform="matrix(1 0 0 1 497 128)" fill-opacity="0.2"/></g><g><rect fill="#ffffff" stroke="none" x="384" y="242" width="199.83349609375" height="46" transform="matrix(1 0 0 1 497 128)"/></g><g><path fill="none" stroke="#000000" paint-order="fill stroke markers" d=" M 881 370 L 1080.83349609375 370 L 1080.83349609375 416 L 881 416 L 881 370 Z Z" stroke-miterlimit="10" stroke-dasharray=""/></g><g><path fill="#ffffff" stroke="none" paint-order="stroke fill markers" d=" M 1054.83349609375 387 C 1054.83349609375 382.0294368 1058.86293289375 378 1063.83349609375 378 C 1068.80405929375 378 1072.83349609375 382.0294368 1072.83349609375 387 C 1072.83349609375 391.9705632 1068.80405929375 396 1063.83349609375 396 C 1058.86293289375 396 1054.83349609375 391.9705632 1054.83349609375 387 Z"/></g><g><path fill="none" stroke="#000000" paint-order="fill stroke markers" d=" M 1054.83349609375 387 C 1054.83349609375 382.0294368 1058.86293289375 378 1063.83349609375 378 C 1068.80405929375 378 1072.83349609375 382.0294368 1072.83349609375 387 C 1072.83349609375 391.9705632 1068.80405929375 396 1063.83349609375 396 C 1058.86293289375 396 1054.83349609375 391.9705632 1054.83349609375 387 Z" stroke-miterlimit="10" stroke-dasharray=""/></g><g><g><path fill="none" stroke="none"/><text fill="#000000" stroke="none" font-family="Arial" font-size="13px" font-style="normal" font-weight="bold" text-decoration="undefined" x="476.916748046875" y="255.5" text-anchor="middle" dominant-baseline="central" transform="matrix(1 0 0 1 497 128)">KnowledgeModel</text></g></g><g><rect fill="#ffffff" stroke="none" x="575.892578125" y="224" width="17.94091796875" height="23" transform="matrix(1 0 0 1 497 128)"/></g><g><path fill="none" stroke="#000000" paint-order="fill stroke markers" d=" M 1072.892578125 352 L 1090.83349609375 352 L 1090.83349609375 375 L 1072.892578125 375 L 1072.892578125 352 Z Z" stroke-miterlimit="10" stroke-dasharray="3"/></g><g><g><path fill="none" stroke="none"/><text fill="#000000" stroke="none" font-family="Arial" font-size="13px" font-style="normal" font-weight="normal" text-decoration="undefined" x="580.892578125" y="235.5" text-anchor="start" dominant-baseline="central" transform="matrix(1 0 0 1 497 128)">T</text></g></g><g><path fill="none" stroke="#000000" paint-order="fill stroke markers" d=" M 1209 353 L 1121 353" stroke-miterlimit="10" stroke-dasharray=""/></g><g><path fill="#FFFFFF" stroke="none" paint-order="stroke fill markers" d=" M 1121 353 C 1121 349.1340064 1124.1340064 346 1128 346 C 1131.8659936 346 1135 349.1340064 1135 353 C 1135 356.8659936 1131.8659936 360 1128 360 C 1124.1340064 360 1121 356.8659936 1121 353 Z"/></g><g><path fill="none" stroke="#000000" paint-order="fill stroke markers" d=" M 1121 353 C 1121 349.1340064 1124.1340064 346 1128 346 C 1131.8659936 346 1135 349.1340064 1135 353 C 1135 356.8659936 1131.8659936 360 1128 360 C 1124.1340064 360 1121 356.8659936 1121 353 Z" stroke-miterlimit="10" stroke-dasharray=""/></g><g><path fill="none" stroke="#000000" paint-order="fill stroke markers" d=" M 1135 353 L 1121 353" stroke-miterlimit="10" stroke-dasharray=""/></g><g><path fill="none" stroke="#000000" paint-order="fill stroke markers" d=" M 1128 346 L 1128 360" stroke-miterlimit="10" stroke-dasharray=""/></g><g><path fill="none" stroke="#000000" paint-order="fill stroke markers" d=" M 937 472 L 937 440" stroke-miterlimit="10" stroke-dasharray=""/></g><g><path fill="#FFFFFF" stroke="none" paint-order="stroke fill markers" d=" M 930 447 C 930 443.1340064 933.1340064 440 937 440 C 940.8659936 440 944 443.1340064 944 447 C 944 450.8659936 940.8659936 454 937 454 C 933.1340064 454 930 450.8659936 930 447 Z"/></g><g><path fill="none" stroke="#000000" paint-order="fill stroke markers" d=" M 930 447 C 930 443.1340064 933.1340064 440 937 440 C 940.8659936 440 944 443.1340064 944 447 C 944 450.8659936 940.8659936 454 937 454 C 933.1340064 454 930 450.8659936 930 447 Z" stroke-miterlimit="10" stroke-dasharray=""/></g><g><path fill="none" stroke="#000000" paint-order="fill stroke markers" d=" M 937 454 L 937 440" stroke-miterlimit="10" stroke-dasharray=""/></g><g><path fill="none" stroke="#000000" paint-order="fill stroke markers" d=" M 944 447 L 930 447" stroke-miterlimit="10" stroke-dasharray=""/></g><g><path fill="none" stroke="#000000" paint-order="fill stroke markers" d=" M 561 304 L 561 280 L 761 280 L 761 215" stroke-miterlimit="10" stroke-dasharray=""/></g><g><path fill="#FFFFFF" stroke="none" paint-order="stroke fill markers" d=" M 754 222 C 754 218.1340064 757.1340064 215 761 215 C 764.8659936 215 768 218.1340064 768 222 C 768 225.8659936 764.8659936 229 761 229 C 757.1340064 229 754 225.8659936 754 222 Z"/></g><g><path fill="none" stroke="#000000" paint-order="fill stroke markers" d=" M 754 222 C 754 218.1340064 757.1340064 215 761 215 C 764.8659936 215 768 218.1340064 768 222 C 768 225.8659936 764.8659936 229 761 229 C 757.1340064 229 754 225.8659936 754 222 Z" stroke-miterlimit="10" stroke-dasharray=""/></g><g><path fill="none" stroke="#000000" paint-order="fill stroke markers" d=" M 761 229 L 761 215" stroke-miterlimit="10" stroke-dasharray=""/></g><g><path fill="none" stroke="#000000" paint-order="fill stroke markers" d=" M 768 222 L 754 222" stroke-miterlimit="10" stroke-dasharray=""/></g><g><path fill="none" stroke="#000000" paint-order="fill stroke markers" d=" M 1241 280 L 761 280 L 761 215" stroke-miterlimit="10" stroke-dasharray=""/></g><g><path fill="#FFFFFF" stroke="none" paint-order="stroke fill markers" d=" M 754 222 C 754 218.1340064 757.1340064 215 761 215 C 764.8659936 215 768 218.1340064 768 222 C 768 225.8659936 764.8659936 229 761 229 C 757.1340064 229 754 225.8659936 754 222 Z"/></g><g><path fill="none" stroke="#000000" paint-order="fill stroke markers" d=" M 754 222 C 754 218.1340064 757.1340064 215 761 215 C 764.8659936 215 768 218.1340064 768 222 C 768 225.8659936 764.8659936 229 761 229 C 757.1340064 229 754 225.8659936 754 222 Z" stroke-miterlimit="10" stroke-dasharray=""/></g><g><path fill="none" stroke="#000000" paint-order="fill stroke markers" d=" M 761 229 L 761 215" stroke-miterlimit="10" stroke-dasharray=""/></g><g><path fill="none" stroke="#000000" paint-order="fill stroke markers" d=" M 768 222 L 754 222" stroke-miterlimit="10" stroke-dasharray=""/></g><g><path fill="none" stroke="#000000" paint-order="fill stroke markers" d=" M 921 304 L 921 280 L 761 280 L 761 215" stroke-miterlimit="10" stroke-dasharray=""/></g><g><path fill="#FFFFFF" stroke="none" paint-order="stroke fill markers" d=" M 754 222 C 754 218.1340064 757.1340064 215 761 215 C 764.8659936 215 768 218.1340064 768 222 C 768 225.8659936 764.8659936 229 761 229 C 757.1340064 229 754 225.8659936 754 222 Z"/></g><g><path fill="none" stroke="#000000" paint-order="fill stroke markers" d=" M 754 222 C 754 218.1340064 757.1340064 215 761 215 C 764.8659936 215 768 218.1340064 768 222 C 768 225.8659936 764.8659936 229 761 229 C 757.1340064 229 754 225.8659936 754 222 Z" stroke-miterlimit="10" stroke-dasharray=""/></g><g><path fill="none" stroke="#000000" paint-order="fill stroke markers" d=" M 761 229 L 761 215" stroke-miterlimit="10" stroke-dasharray=""/></g><g><path fill="none" stroke="#000000" paint-order="fill stroke markers" d=" M 768 222 L 754 222" stroke-miterlimit="10" stroke-dasharray=""/></g><g><rect fill="#C0C0C0" stroke="none" x="431" y="471" width="67.19999999999999" height="15" transform="matrix(1 0 0 1 497 128)" fill-opacity="0.2"/></g><g><rect fill="#C0C0C0" stroke="none" x="431" y="485" width="168" height="98" transform="matrix(1 0 0 1 497 128)" fill-opacity="0.2"/></g><g><rect fill="#ffffff" stroke="none" x="424" y="479" width="168" height="97" transform="matrix(1 0 0 1 497 128)"/></g><g><path fill="none" stroke="#000000" paint-order="fill stroke markers" d=" M 921 607 L 1089 607 L 1089 704 L 921 704 L 921 607 Z Z" stroke-miterlimit="10" stroke-dasharray=""/></g><g><rect fill="#ffffff" stroke="none" x="424" y="464" width="67.19999999999999" height="15" transform="matrix(1 0 0 1 497 128)"/></g><g><path fill="none" stroke="#000000" paint-order="fill stroke markers" d=" M 921 592 L 988.2 592 L 988.2 607 L 921 607 L 921 592 Z Z" stroke-miterlimit="10" stroke-dasharray=""/></g><g><rect fill="#ffffff" stroke="none" x="424" y="478" width="168" height="98" transform="matrix(1 0 0 1 497 128)"/></g><g><path fill="none" stroke="#000000" paint-order="fill stroke markers" d=" M 921 606 L 1089 606 L 1089 704 L 921 704 L 921 606 Z Z" stroke-miterlimit="10" stroke-dasharray=""/></g><g><g><path fill="none" stroke="none"/><text fill="#000000" stroke="none" font-family="Arial" font-size="13px" font-style="normal" font-weight="bold" text-decoration="undefined" x="508.5" y="492.5" text-anchor="middle" dominant-baseline="central" transform="matrix(1 0 0 1 497 128)">element</text></g></g><g><rect fill="#C0C0C0" stroke="none" x="663" y="463" width="73.60000000000002" height="15" transform="matrix(1 0 0 1 497 128)" fill-opacity="0.2"/></g><g><rect fill="#C0C0C0" stroke="none" x="663" y="477" width="184" height="138" transform="matrix(1 0 0 1 497 128)" fill-opacity="0.2"/></g><g><rect fill="#ffffff" stroke="none" x="656" y="471" width="184" height="137" transform="matrix(1 0 0 1 497 128)"/></g><g><path fill="none" stroke="#000000" paint-order="fill stroke markers" d=" M 1153 599 L 1337 599 L 1337 736 L 1153 736 L 1153 599 Z Z" stroke-miterlimit="10" stroke-dasharray=""/></g><g><rect fill="#ffffff" stroke="none" x="656" y="456" width="73.60000000000002" height="15" transform="matrix(1 0 0 1 497 128)"/></g><g><path fill="none" stroke="#000000" paint-order="fill stroke markers" d=" M 1153 584 L 1226.6 584 L 1226.6 599 L 1153 599 L 1153 584 Z Z" stroke-miterlimit="10" stroke-dasharray=""/></g><g><rect fill="#ffffff" stroke="none" x="656" y="470" width="184" height="138" transform="matrix(1 0 0 1 497 128)"/></g><g><path fill="none" stroke="#000000" paint-order="fill stroke markers" d=" M 1153 598 L 1337 598 L 1337 736 L 1153 736 L 1153 598 Z Z" stroke-miterlimit="10" stroke-dasharray=""/></g><g><g><path fill="none" stroke="none"/><text fill="#000000" stroke="none" font-family="Arial" font-size="13px" font-style="normal" font-weight="bold" text-decoration="undefined" x="748.5" y="484.5" text-anchor="middle" dominant-baseline="central" transform="matrix(1 0 0 1 497 128)">relation</text></g></g><g><rect fill="#C0C0C0" stroke="none" x="167" y="471" width="75.0708984375" height="15" transform="matrix(1 0 0 1 497 128)" fill-opacity="0.2"/></g><g><rect fill="#C0C0C0" stroke="none" x="167" y="485" width="187.67724609375" height="82" transform="matrix(1 0 0 1 497 128)" fill-opacity="0.2"/></g><g><rect fill="#ffffff" stroke="none" x="160" y="479" width="187.67724609375" height="81" transform="matrix(1 0 0 1 497 128)"/></g><g><path fill="none" stroke="#000000" paint-order="fill stroke markers" d=" M 657 607 L 844.67724609375 607 L 844.67724609375 688 L 657 688 L 657 607 Z Z" stroke-miterlimit="10" stroke-dasharray=""/></g><g><rect fill="#ffffff" stroke="none" x="160" y="464" width="75.0708984375" height="15" transform="matrix(1 0 0 1 497 128)"/></g><g><path fill="none" stroke="#000000" paint-order="fill stroke markers" d=" M 657 592 L 732.0708984375 592 L 732.0708984375 607 L 657 607 L 657 592 Z Z" stroke-miterlimit="10" stroke-dasharray=""/></g><g><rect fill="#ffffff" stroke="none" x="160" y="478" width="187.67724609375" height="82" transform="matrix(1 0 0 1 497 128)"/></g><g><path fill="none" stroke="#000000" paint-order="fill stroke markers" d=" M 657 606 L 844.67724609375 606 L 844.67724609375 688 L 657 688 L 657 606 Z Z" stroke-miterlimit="10" stroke-dasharray=""/></g><g><g><path fill="none" stroke="none"/><text fill="#000000" stroke="none" font-family="Arial" font-size="13px" font-style="normal" font-weight="bold" text-decoration="undefined" x="254.338623046875" y="492.5" text-anchor="middle" dominant-baseline="central" transform="matrix(1 0 0 1 497 128)">structure</text></g></g><g><path fill="none" stroke="#000000" paint-order="fill stroke markers" d=" M 713 592 L 713 568 L 961 568 L 961 527" stroke-miterlimit="10" stroke-dasharray=""/></g><g><path fill="#FFFFFF" stroke="none" paint-order="stroke fill markers" d=" M 954 534 C 954 530.1340064 957.1340064 527 961 527 C 964.8659936 527 968 530.1340064 968 534 C 968 537.8659936 964.8659936 541 961 541 C 957.1340064 541 954 537.8659936 954 534 Z"/></g><g><path fill="none" stroke="#000000" paint-order="fill stroke markers" d=" M 954 534 C 954 530.1340064 957.1340064 527 961 527 C 964.8659936 527 968 530.1340064 968 534 C 968 537.8659936 964.8659936 541 961 541 C 957.1340064 541 954 537.8659936 954 534 Z" stroke-miterlimit="10" stroke-dasharray=""/></g><g><path fill="none" stroke="#000000" paint-order="fill stroke markers" d=" M 961 541 L 961 527" stroke-miterlimit="10" stroke-dasharray=""/></g><g><path fill="none" stroke="#000000" paint-order="fill stroke markers" d=" M 968 534 L 954 534" stroke-miterlimit="10" stroke-dasharray=""/></g><g><path fill="none" stroke="#000000" paint-order="fill stroke markers" d=" M 961 592 L 961 527" stroke-miterlimit="10" stroke-dasharray=""/></g><g><path fill="#FFFFFF" stroke="none" paint-order="stroke fill markers" d=" M 954 534 C 954 530.1340064 957.1340064 527 961 527 C 964.8659936 527 968 530.1340064 968 534 C 968 537.8659936 964.8659936 541 961 541 C 957.1340064 541 954 537.8659936 954 534 Z"/></g><g><path fill="none" stroke="#000000" paint-order="fill stroke markers" d=" M 954 534 C 954 530.1340064 957.1340064 527 961 527 C 964.8659936 527 968 530.1340064 968 534 C 968 537.8659936 964.8659936 541 961 541 C 957.1340064 541 954 537.8659936 954 534 Z" stroke-miterlimit="10" stroke-dasharray=""/></g><g><path fill="none" stroke="#000000" paint-order="fill stroke markers" d=" M 961 541 L 961 527" stroke-miterlimit="10" stroke-dasharray=""/></g><g><path fill="none" stroke="#000000" paint-order="fill stroke markers" d=" M 968 534 L 954 534" stroke-miterlimit="10" stroke-dasharray=""/></g><g><path fill="none" stroke="#000000" paint-order="fill stroke markers" d=" M 1177 584 L 1177 568 L 961 568 L 961 527" stroke-miterlimit="10" stroke-dasharray=""/></g><g><path fill="#FFFFFF" stroke="none" paint-order="stroke fill markers" d=" M 954 534 C 954 530.1340064 957.1340064 527 961 527 C 964.8659936 527 968 530.1340064 968 534 C 968 537.8659936 964.8659936 541 961 541 C 957.1340064 541 954 537.8659936 954 534 Z"/></g><g><path fill="none" stroke="#000000" paint-order="fill stroke markers" d=" M 954 534 C 954 530.1340064 957.1340064 527 961 527 C 964.8659936 527 968 530.1340064 968 534 C 968 537.8659936 964.8659936 541 961 541 C 957.1340064 541 954 537.8659936 954 534 Z" stroke-miterlimit="10" stroke-dasharray=""/></g><g><path fill="none" stroke="#000000" paint-order="fill stroke markers" d=" M 961 541 L 961 527" stroke-miterlimit="10" stroke-dasharray=""/></g><g><path fill="none" stroke="#000000" paint-order="fill stroke markers" d=" M 968 534 L 954 534" stroke-miterlimit="10" stroke-dasharray=""/></g><g><rect fill="#C0C0C0" stroke="none" x="455" y="527" width="128.51904296875" height="48" transform="matrix(1 0 0 1 497 128)" fill-opacity="0.2"/></g><g><rect fill="#ffffff" stroke="none" x="448" y="520" width="128.51904296875" height="48" transform="matrix(1 0 0 1 497 128)"/></g><g><path fill="none" stroke="#000000" paint-order="fill stroke markers" d=" M 945 648 L 1073.51904296875 648 L 1073.51904296875 696 L 945 696 L 945 648 Z Z" stroke-miterlimit="10" stroke-dasharray=""/></g><g><g><path fill="none" stroke="none"/><text fill="#000000" stroke="none" font-family="Arial" font-size="13px" font-style="normal" font-weight="bold" text-decoration="undefined" x="512.759521484375" y="533.5" text-anchor="middle" dominant-baseline="central" transform="matrix(1 0 0 1 497 128)">Element</text></g></g><g><rect fill="#C0C0C0" stroke="none" x="183" y="527" width="118.36083984375" height="32" transform="matrix(1 0 0 1 497 128)" fill-opacity="0.2"/></g><g><rect fill="#ffffff" stroke="none" x="176" y="520" width="118.36083984375" height="32" transform="matrix(1 0 0 1 497 128)"/></g><g><path fill="none" stroke="#000000" paint-order="fill stroke markers" d=" M 673 648 L 791.36083984375 648 L 791.36083984375 680 L 673 680 L 673 648 Z Z" stroke-miterlimit="10" stroke-dasharray=""/></g><g><g><path fill="none" stroke="none"/><text fill="#000000" stroke="none" font-family="Arial" font-size="13px" font-style="normal" font-weight="bold" text-decoration="undefined" x="235.680419921875" y="533.5" text-anchor="middle" dominant-baseline="central" transform="matrix(1 0 0 1 497 128)">StructureElement</text></g></g><g><path fill="none" stroke="#000000" paint-order="fill stroke markers" d=" M 945 669 L 791 669" stroke-miterlimit="10" stroke-dasharray=""/></g><g><path fill="#FFFFFF" stroke="none" paint-order="stroke fill markers" d=" M 801.1626748576241 664.790482243984 L 791 669 L 801.1626748576241 673.209517756016 L 813 669"/></g><g><path fill="none" stroke="#000000" paint-order="fill stroke markers" d=" M 801.1626748576241 664.790482243984 L 791 669 L 801.1626748576241 673.209517756016 L 813 669 L 801.1626748576241 664.790482243984" stroke-miterlimit="10" stroke-dasharray=""/></g><g><path fill="none" stroke="#000000" paint-order="fill stroke markers" d=" M 934.8373251423759 673.209517756016 L 945 669 L 934.8373251423759 664.790482243984" stroke-miterlimit="10" stroke-dasharray=""/></g><g><rect fill="#ffffff" stroke="none" x="360" y="544" width="52.7490234375" height="13" transform="matrix(1 0 0 1 497 128)"/></g><g><g><path fill="none" stroke="none"/><text fill="#000000" stroke="none" font-family="Arial" font-size="13px" font-style="normal" font-weight="normal" text-decoration="undefined" x="386.37451171875" y="550.5" text-anchor="middle" dominant-baseline="central" transform="matrix(1 0 0 1 497 128)">elements</text></g></g><g><rect fill="#ffffff" stroke="none" x="399" y="521" width="6.5" height="13" transform="matrix(1 0 0 1 497 128)"/></g><g><g><path fill="none" stroke="none"/><text fill="#000000" stroke="none" font-family="Arial" font-size="13px" font-style="normal" font-weight="normal" text-decoration="undefined" x="402.25" y="527.5" text-anchor="middle" dominant-baseline="central" transform="matrix(1 0 0 1 497 128)">*</text></g></g><g><rect fill="#C0C0C0" stroke="none" x="703" y="519" width="90.9072265625" height="60" transform="matrix(1 0 0 1 497 128)" fill-opacity="0.2"/></g><g><rect fill="#ffffff" stroke="none" x="696" y="512" width="90.9072265625" height="60" transform="matrix(1 0 0 1 497 128)"/></g><g><path fill="none" stroke="#000000" paint-order="fill stroke markers" d=" M 1193 640 L 1283.9072265625 640 L 1283.9072265625 700 L 1193 700 L 1193 640 Z Z" stroke-miterlimit="10" stroke-dasharray=""/></g><g><g><path fill="none" stroke="none"/><text fill="#000000" stroke="none" font-family="Arial" font-size="13px" font-style="normal" font-weight="bold" text-decoration="undefined" x="741.95361328125" y="525.5" text-anchor="middle" dominant-baseline="central" transform="matrix(1 0 0 1 497 128)">Relation</text></g></g><g><path fill="none" stroke="#000000" paint-order="fill stroke markers" d=" M 1074 688 L 1193 688" stroke-miterlimit="10" stroke-dasharray=""/></g><g><path fill="#FFFFFF" stroke="none" paint-order="stroke fill markers" d=" M 1182.837325142376 692.209517756016 L 1193 688 L 1182.837325142376 683.790482243984 L 1171 688"/></g><g><path fill="none" stroke="#000000" paint-order="fill stroke markers" d=" M 1182.837325142376 692.209517756016 L 1193 688 L 1182.837325142376 683.790482243984 L 1171 688 L 1182.837325142376 692.209517756016" stroke-miterlimit="10" stroke-dasharray=""/></g><g><path fill="none" stroke="#000000" paint-order="fill stroke markers" d=" M 1084.162674857624 683.790482243984 L 1074 688 L 1084.162674857624 692.209517756016" stroke-miterlimit="10" stroke-dasharray=""/></g><g><rect fill="#ffffff" stroke="none" x="608" y="544" width="18.43359375" height="13" transform="matrix(1 0 0 1 497 128)"/></g><g><g><path fill="none" stroke="none"/><text fill="#000000" stroke="none" font-family="Arial" font-size="13px" font-style="normal" font-weight="normal" text-decoration="undefined" x="617.216796875" y="550.5" text-anchor="middle" dominant-baseline="central" transform="matrix(1 0 0 1 497 128)">to</text></g></g><g><rect fill="#ffffff" stroke="none" x="595" y="566" width="7.22998046875" height="13" transform="matrix(1 0 0 1 497 128)"/></g><g><g><path fill="none" stroke="none"/><text fill="#000000" stroke="none" font-family="Arial" font-size="13px" font-style="normal" font-weight="normal" text-decoration="undefined" x="598.614990234375" y="572.5" text-anchor="middle" dominant-baseline="central" transform="matrix(1 0 0 1 497 128)">1</text></g></g><g><path fill="none" stroke="#000000" paint-order="fill stroke markers" d=" M 1074 656 L 1193 656" stroke-miterlimit="10" stroke-dasharray=""/></g><g><path fill="#FFFFFF" stroke="none" paint-order="stroke fill markers" d=" M 1182.837325142376 660.209517756016 L 1193 656 L 1182.837325142376 651.790482243984 L 1171 656"/></g><g><path fill="none" stroke="#000000" paint-order="fill stroke markers" d=" M 1182.837325142376 660.209517756016 L 1193 656 L 1182.837325142376 651.790482243984 L 1171 656 L 1182.837325142376 660.209517756016" stroke-miterlimit="10" stroke-dasharray=""/></g><g><path fill="none" stroke="#000000" paint-order="fill stroke markers" d=" M 1084.162674857624 651.790482243984 L 1074 656 L 1084.162674857624 660.209517756016" stroke-miterlimit="10" stroke-dasharray=""/></g><g><rect fill="#ffffff" stroke="none" x="600" y="512" width="33.591796875" height="13" transform="matrix(1 0 0 1 497 128)"/></g><g><g><path fill="none" stroke="none"/><text fill="#000000" stroke="none" font-family="Arial" font-size="13px" font-style="normal" font-weight="normal" text-decoration="undefined" x="616.7958984375" y="518.5" text-anchor="middle" dominant-baseline="central" transform="matrix(1 0 0 1 497 128)">from</text></g></g><g><rect fill="#ffffff" stroke="none" x="595" y="527" width="7.22998046875" height="13" transform="matrix(1 0 0 1 497 128)"/></g><g><g><path fill="none" stroke="none"/><text fill="#000000" stroke="none" font-family="Arial" font-size="13px" font-style="normal" font-weight="normal" text-decoration="undefined" x="598.614990234375" y="533.5" text-anchor="middle" dominant-baseline="central" transform="matrix(1 0 0 1 497 128)">1</text></g></g><g><path fill="none" stroke="#000000" paint-order="fill stroke markers" d=" M 1225 448 L 1129 448 L 1129 400 L 1091 400" stroke-miterlimit="10" stroke-dasharray=""/></g><g><path fill="none" stroke="#000000" paint-order="fill stroke markers" d=" M 1101.162674857624 395.790482243984 L 1091 400 L 1101.162674857624 404.209517756016" stroke-miterlimit="10" stroke-dasharray=""/></g><g><rect fill="#ffffff" stroke="none" x="640" y="279" width="66.4853515625" height="13" transform="matrix(1 0 0 1 497 128)"/></g><g><g><path fill="none" stroke="none"/><text fill="#000000" stroke="none" font-family="Arial" font-size="13px" font-style="normal" font-weight="normal" text-decoration="undefined" x="673.24267578125" y="285.5" text-anchor="middle" dominant-baseline="central" transform="matrix(1 0 0 1 497 128)">knowledge</text></g></g><g><rect fill="#ffffff" stroke="none" x="640" y="293" width="61.4326171875" height="13" transform="matrix(1 0 0 1 497 128)"/></g><g><g><path fill="none" stroke="none"/><text fill="#000000" stroke="none" font-family="Arial" font-size="13px" font-style="normal" font-weight="normal" text-decoration="undefined" x="670.71630859375" y="299.5" text-anchor="middle" dominant-baseline="central" transform="matrix(1 0 0 1 497 128)">{readOnly}</text></g></g><g><rect fill="#C0C0C0" stroke="none" x="735" y="311" width="160.22998046875" height="32" transform="matrix(1 0 0 1 497 128)" fill-opacity="0.2"/></g><g><rect fill="#ffffff" stroke="none" x="728" y="304" width="160.22998046875" height="32" transform="matrix(1 0 0 1 497 128)"/></g><g><path fill="none" stroke="#000000" paint-order="fill stroke markers" d=" M 1225 432 L 1385.22998046875 432 L 1385.22998046875 464 L 1225 464 L 1225 432 Z Z" stroke-miterlimit="10" stroke-dasharray=""/></g><g><g><path fill="none" stroke="none"/><text fill="#000000" stroke="none" font-family="Arial" font-size="13px" font-style="normal" font-weight="bold" text-decoration="undefined" x="808.614990234375" y="317.5" text-anchor="middle" dominant-baseline="central" transform="matrix(1 0 0 1 497 128)">KnowledgeModelLoader</text></g></g><g><rect fill="#C0C0C0" stroke="none" x="807" y="255" width="163.11181640625" height="25" transform="matrix(1 0 0 1 497 128)" fill-opacity="0.2"/></g><g><rect fill="#ffffff" stroke="none" x="800" y="248" width="163.11181640625" height="25" transform="matrix(1 0 0 1 497 128)"/></g><g><path fill="none" stroke="#000000" paint-order="fill stroke markers" d=" M 1297 376 L 1460.11181640625 376 L 1460.11181640625 401 L 1297 401 L 1297 376 Z Z" stroke-miterlimit="10" stroke-dasharray=""/></g><g><g><path fill="none" stroke="none"/><text fill="#000000" stroke="none" font-family="Arial" font-size="13px" font-style="normal" font-weight="bold" text-decoration="undefined" x="882.055908203125" y="261.5" text-anchor="middle" dominant-baseline="central" transform="matrix(1 0 0 1 497 128)">KnowledgeModelLoaded</text></g></g><g><path fill="none" stroke="#000000" paint-order="fill stroke markers" d=" M 1296 387 L 1092 385" stroke-miterlimit="10" stroke-dasharray=""/></g><g><path fill="#FFFFFF" stroke="none" paint-order="stroke fill markers" d=" M 1112.4069085784843 376.7806276231464 L 1092 385 L 1112.2418373836708 393.6178894941296"/></g><g><path fill="none" stroke="#000000" paint-order="fill stroke markers" d=" M 1112.4069085784843 376.7806276231464 L 1092 385 L 1112.2418373836708 393.6178894941296 L 1112.4069085784843 376.7806276231464" stroke-miterlimit="10" stroke-dasharray=""/></g><g><path fill="none" stroke="#000000" paint-order="fill stroke markers" d=" M 1361 432 L 1361 401" stroke-miterlimit="10" stroke-dasharray="3"/></g><g><path fill="none" stroke="#000000" paint-order="fill stroke markers" d=" M 1365.2095177560159 411.16267485762415 L 1361 401 L 1356.7904822439841 411.16267485762415" stroke-miterlimit="10" stroke-dasharray=""/></g><g><rect fill="#ffffff" stroke="none" x="871" y="279" width="43.72265625" height="13" transform="matrix(1 0 0 1 497 128)"/></g><g><g><path fill="none" stroke="none"/><text fill="#000000" stroke="none" font-family="Arial" font-size="13px" font-style="normal" font-weight="normal" text-decoration="undefined" x="892.861328125" y="285.5" text-anchor="middle" dominant-baseline="central" transform="matrix(1 0 0 1 497 128)">create</text></g></g><g><rect fill="#C0C0C0" stroke="none" x="71" y="264" width="115.24267578125" height="25" transform="matrix(1 0 0 1 497 128)" fill-opacity="0.2"/></g><g><rect fill="#C0C0C0" stroke="none" x="177.57177734375" y="231" width="18.6708984375" height="38" transform="matrix(1 0 0 1 497 128)" fill-opacity="0.2"/></g><g><rect fill="#ffffff" stroke="none" x="64" y="257" width="115.24267578125" height="25" transform="matrix(1 0 0 1 497 128)"/></g><g><path fill="none" stroke="#000000" paint-order="fill stroke markers" d=" M 561 385 L 676.24267578125 385 L 676.24267578125 410 L 561 410 L 561 385 Z Z" stroke-miterlimit="10" stroke-dasharray=""/></g><g><g><path fill="none" stroke="none"/><text fill="#000000" stroke="none" font-family="Arial" font-size="13px" font-style="normal" font-weight="bold" text-decoration="undefined" x="122.121337890625" y="270.5" text-anchor="middle" dominant-baseline="central" transform="matrix(1 0 0 1 497 128)">GPT_Request</text></g></g><g><rect fill="#ffffff" stroke="none" x="170.57177734375" y="224" width="18.6708984375" height="38" transform="matrix(1 0 0 1 497 128)"/></g><g><path fill="none" stroke="#000000" paint-order="fill stroke markers" d=" M 667.57177734375 352 L 686.24267578125 352 L 686.24267578125 390 L 667.57177734375 390 L 667.57177734375 352 Z Z" stroke-miterlimit="10" stroke-dasharray="3"/></g><g><g><path fill="none" stroke="none"/><text fill="#000000" stroke="none" font-family="Arial" font-size="13px" font-style="normal" font-weight="normal" text-decoration="undefined" x="175.57177734375" y="235.5" text-anchor="start" dominant-baseline="central" transform="matrix(1 0 0 1 497 128)">T</text></g></g><g><g><path fill="none" stroke="none"/><text fill="#000000" stroke="none" font-family="Arial" font-size="13px" font-style="normal" font-weight="normal" text-decoration="undefined" x="175.57177734375" y="250.5" text-anchor="start" dominant-baseline="central" transform="matrix(1 0 0 1 497 128)">A</text></g></g><g><rect fill="#C0C0C0" stroke="none" x="31" y="367" width="72.2017578125" height="15" transform="matrix(1 0 0 1 497 128)" fill-opacity="0.2"/></g><g><rect fill="#C0C0C0" stroke="none" x="31" y="381" width="180.50439453125" height="54" transform="matrix(1 0 0 1 497 128)" fill-opacity="0.2"/></g><g><rect fill="#ffffff" stroke="none" x="24" y="375" width="180.50439453125" height="53" transform="matrix(1 0 0 1 497 128)"/></g><g><path fill="none" stroke="#000000" paint-order="fill stroke markers" d=" M 521 503 L 701.50439453125 503 L 701.50439453125 556 L 521 556 L 521 503 Z Z" stroke-miterlimit="10" stroke-dasharray=""/></g><g><rect fill="#ffffff" stroke="none" x="24" y="360" width="72.2017578125" height="15" transform="matrix(1 0 0 1 497 128)"/></g><g><path fill="none" stroke="#000000" paint-order="fill stroke markers" d=" M 521 488 L 593.2017578125 488 L 593.2017578125 503 L 521 503 L 521 488 Z Z" stroke-miterlimit="10" stroke-dasharray=""/></g><g><rect fill="#ffffff" stroke="none" x="24" y="374" width="180.50439453125" height="54" transform="matrix(1 0 0 1 497 128)"/></g><g><path fill="none" stroke="#000000" paint-order="fill stroke markers" d=" M 521 502 L 701.50439453125 502 L 701.50439453125 556 L 521 556 L 521 502 Z Z" stroke-miterlimit="10" stroke-dasharray=""/></g><g><g><path fill="none" stroke="none"/><text fill="#000000" stroke="none" font-family="Arial" font-size="13px" font-style="normal" font-weight="normal" text-decoration="undefined" x="114.752197265625" y="386.5" text-anchor="middle" dominant-baseline="central" transform="matrix(1 0 0 1 497 128)">«python»</text></g></g><g><g><path fill="none" stroke="none"/><text fill="#000000" stroke="none" font-family="Arial" font-size="13px" font-style="normal" font-weight="bold" text-decoration="undefined" x="114.752197265625" y="401.5" text-anchor="middle" dominant-baseline="central" transform="matrix(1 0 0 1 497 128)">gpt-connection</text></g></g><g><g><path fill="none" stroke="none"/><text fill="#000000" stroke="none" font-family="Arial" font-size="13px" font-style="normal" font-weight="normal" text-decoration="undefined" x="114.752197265625" y="416.5" text-anchor="middle" dominant-baseline="central" transform="matrix(1 0 0 1 497 128)">(from root)</text></g></g><g><path fill="none" stroke="#000000" paint-order="fill stroke markers" d=" M 569 410 L 569 488" stroke-miterlimit="10" stroke-dasharray="3"/></g><g><path fill="none" stroke="#000000" paint-order="fill stroke markers" d=" M 564.790482243984 477.83732514237585 L 569 488 L 573.209517756016 477.83732514237585" stroke-miterlimit="10" stroke-dasharray=""/></g><g><rect fill="#ffffff" stroke="none" x="80" y="312" width="37.2099609375" height="13" transform="matrix(1 0 0 1 497 128)"/></g><g><g><path fill="none" stroke="none"/><text fill="#000000" stroke="none" font-family="Arial" font-size="13px" font-style="normal" font-weight="normal" text-decoration="undefined" x="98.60498046875" y="318.5" text-anchor="middle" dominant-baseline="central" transform="matrix(1 0 0 1 497 128)">calls</text></g></g></g></svg>