<svg version="1.1" xmlns="http://www.w3.org/2000/svg" xmlns:xlink="http://www.w3.org/1999/xlink" width="900" height="620"><defs/><g><g><path fill="#C0C0C0" stroke="none" paint-order="stroke fill markers" d=" M 23 129 L 715 129 Q 721 129 721 135 L 721 451 Q 721 457 715 457 L 23 457 Q 17 457 17 451 L 17 135 Q 17 129 23 129 Z" fill-opacity="0.2"/></g><g><path fill="#ffffff" stroke="none" paint-order="stroke fill markers" d=" M 16 122 L 708 122 Q 714 122 714 128 L 714 444 Q 714 450 708 450 L 16 450 Q 10 450 10 444 L 10 128 Q 10 122 16 122 Z"/></g><g><path fill="none" stroke="#000000" paint-order="fill stroke markers" d=" M 16 122 L 708 122 Q 714 122 714 128 L 714 444 Q 714 450 708 450 L 16 450 Q 10 450 10 444 L 10 128 Q 10 122 16 122 Z" stroke-miterlimit="10" stroke-dasharray=""/></g><g><g><path fill="none" stroke="none"/><text fill="#000000" stroke="none" font-family="Arial" font-size="13px" font-style="normal" font-weight="bold" text-decoration="undefined" x="24" y="434.5" text-anchor="start" dominant-baseline="central" transform="matrix(1 0 0 1 -6 -14)">Backend</text></g></g><g><g><path fill="none" stroke="none"/><text fill="#000000" stroke="none" font-family="Arial" font-size="13px" font-style="normal" font-weight="normal" text-decoration="undefined" x="24" y="449.5" text-anchor="start" dominant-baseline="central" transform="matrix(1 0 0 1 -6 -14)">[Container]</text></g></g><g><g><path fill="none" stroke="none"/></g></g><g><path fill="#C0C0C0" stroke="none" paint-order="stroke fill markers" d=" M 495 153 L 707 153 Q 713 153 713 159 L 713 291 Q 713 297 707 297 L 495 297 Q 489 297 489 291 L 489 159 Q 489 153 495 153 Z" fill-opacity="0.2"/></g><g><path fill="#d8f2ff" stroke="none" paint-order="stroke fill markers" d=" M 488 146 L 700 146 Q 706 146 706 152 L 706 284 Q 706 290 700 290 L 488 290 Q 482 290 482 284 L 482 152 Q 482 146 488 146 Z"/></g><g><path fill="none" stroke="#000000" paint-order="fill stroke markers" d=" M 488 146 L 700 146 Q 706 146 706 152 L 706 284 Q 706 290 700 290 L 488 290 Q 482 290 482 284 L 482 152 Q 482 146 488 146 Z" stroke-miterlimit="10" stroke-dasharray=""/></g><g><g><path fill="none" stroke="none"/><text fill="#000000" stroke="none" font-family="Arial" font-size="13px" font-style="normal" font-weight="bold" text-decoration="undefined" x="600" y="174.5" text-anchor="middle" dominant-baseline="central" transform="matrix(1 0 0 1 -6 -14)">Aggregation</text></g></g><g><g><path fill="none" stroke="none"/><text fill="#000000" stroke="none" font-family="Arial" font-size="13px" font-style="normal" font-weight="normal" text-decoration="undefined" x="600" y="189.5" text-anchor="middle" dominant-baseline="central" transform="matrix(1 0 0 1 -6 -14)">[Component: Java]</text></g></g><g><g><path fill="none" stroke="none"/><text fill="#000000" stroke="none" font-family="Arial" font-size="13px" font-style="normal" font-weight="normal" text-decoration="undefined" x="600" y="212.5" text-anchor="middle" dominant-baseline="central" transform="matrix(1 0 0 1 -6 -14)">Extract knowledge and manage</text><text fill="#000000" stroke="none" font-family="Arial" font-size="13px" font-style="normal" font-weight="normal" text-decoration="undefined" x="600" y="225.5" text-anchor="middle" dominant-baseline="central" transform="matrix(1 0 0 1 -6 -14)">knowledge model</text></g></g><g><path fill="#C0C0C0" stroke="none" paint-order="stroke fill markers" d=" M 207 353 L 443 353 Q 449 353 449 359 L 449 414 Q 449 420 443 420 L 207 420 Q 201 420 201 414 L 201 359 Q 201 353 207 353 Z" fill-opacity="0.2"/></g><g><path fill="#d8f2ff" stroke="none" paint-order="stroke fill markers" d=" M 200 346 L 436 346 Q 442 346 442 352 L 442 407 Q 442 413 436 413 L 200 413 Q 194 413 194 407 L 194 352 Q 194 346 200 346 Z"/></g><g><path fill="none" stroke="#000000" paint-order="fill stroke markers" d=" M 200 346 L 436 346 Q 442 346 442 352 L 442 407 Q 442 413 436 413 L 200 413 Q 194 413 194 407 L 194 352 Q 194 346 200 346 Z" stroke-miterlimit="10" stroke-dasharray=""/></g><g><g><path fill="none" stroke="none"/><text fill="#000000" stroke="none" font-family="Arial" font-size="13px" font-style="normal" font-weight="bold" text-decoration="undefined" x="324" y="374.5" text-anchor="middle" dominant-baseline="central" transform="matrix(1 0 0 1 -6 -14)">Generation</text></g></g><g><g><path fill="none" stroke="none"/><text fill="#000000" stroke="none" font-family="Arial" font-size="13px" font-style="normal" font-weight="normal" text-decoration="undefined" x="324" y="389.5" text-anchor="middle" dominant-baseline="central" transform="matrix(1 0 0 1 -6 -14)">[Component: Java]</text></g></g><g><g><path fill="none" stroke="none"/><text fill="#000000" stroke="none" font-family="Arial" font-size="13px" font-style="normal" font-weight="normal" text-decoration="undefined" x="324" y="412.5" text-anchor="middle" dominant-baseline="central" transform="matrix(1 0 0 1 -6 -14)">Generate material</text></g></g><g><path fill="#C0C0C0" stroke="none" paint-order="stroke fill markers" d=" M 457 489 C 457 484.5817216 482.4163634265625 481 513.76904296875 481 C 545.1217225109375 481 570.5380859375 484.5817216 570.5380859375 489 L 570.5380859375 543 C 570.5380859375 547.4182784 545.1217225109375 551 513.76904296875 551 C 482.4163634265625 551 457 547.4182784 457 543 L 457 489 Z" fill-opacity="0.2"/></g><g><path fill="#a3e0ff" stroke="#000000" paint-order="fill stroke markers" d=" M 450 482 C 450 477.5817216 475.4163634265625 474 506.76904296875 474 C 538.1217225109375 474 563.5380859375 477.5817216 563.5380859375 482 L 563.5380859375 536 C 563.5380859375 540.4182784 538.1217225109375 544 506.76904296875 544 C 475.4163634265625 544 450 540.4182784 450 536 L 450 482 Z" stroke-miterlimit="10" stroke-dasharray=""/></g><g><path fill="none" stroke="#000000" paint-order="fill stroke markers" d=" M 450 482 C 450 486.4182784 475.4163634265625 490 506.76904296875 490 C 538.1217225109375 490 563.5380859375 486.4182784 563.5380859375 482" stroke-miterlimit="10" stroke-dasharray=""/></g><g><g><path fill="none" stroke="none"/><text fill="#000000" stroke="none" font-family="Arial" font-size="13px" font-style="normal" font-weight="bold" text-decoration="undefined" x="512.76904296875" y="518.5" text-anchor="middle" dominant-baseline="central" transform="matrix(1 0 0 1 -6 -14)">Neo4j-Database</text></g></g><g><g><path fill="none" stroke="none"/><text fill="#000000" stroke="none" font-family="Arial" font-size="13px" font-style="normal" font-weight="normal" text-decoration="undefined" x="512.76904296875" y="533.5" text-anchor="middle" dominant-baseline="central" transform="matrix(1 0 0 1 -6 -14)">[Container]</text></g></g><g><g><path fill="none" stroke="none"/></g></g><g><path fill="#C0C0C0" stroke="none" paint-order="stroke fill markers" d=" M 241 489 C 241 484.5817216 262.21170996015627 481 288.377685546875 481 C 314.54366113359373 481 335.75537109375 484.5817216 335.75537109375 489 L 335.75537109375 543 C 335.75537109375 547.4182784 314.54366113359373 551 288.377685546875 551 C 262.21170996015627 551 241 547.4182784 241 543 L 241 489 Z" fill-opacity="0.2"/></g><g><path fill="#a3e0ff" stroke="#000000" paint-order="fill stroke markers" d=" M 234 482 C 234 477.5817216 255.21170996015627 474 281.377685546875 474 C 307.54366113359373 474 328.75537109375 477.5817216 328.75537109375 482 L 328.75537109375 536 C 328.75537109375 540.4182784 307.54366113359373 544 281.377685546875 544 C 255.21170996015627 544 234 540.4182784 234 536 L 234 482 Z" stroke-miterlimit="10" stroke-dasharray=""/></g><g><path fill="none" stroke="#000000" paint-order="fill stroke markers" d=" M 234 482 C 234 486.4182784 255.21170996015627 490 281.377685546875 490 C 307.54366113359373 490 328.75537109375 486.4182784 328.75537109375 482" stroke-miterlimit="10" stroke-dasharray=""/></g><g><g><path fill="none" stroke="none"/><text fill="#000000" stroke="none" font-family="Arial" font-size="13px" font-style="normal" font-weight="bold" text-decoration="undefined" x="287.377685546875" y="518.5" text-anchor="middle" dominant-baseline="central" transform="matrix(1 0 0 1 -6 -14)">H2-Database</text></g></g><g><g><path fill="none" stroke="none"/><text fill="#000000" stroke="none" font-family="Arial" font-size="13px" font-style="normal" font-weight="normal" text-decoration="undefined" x="287.377685546875" y="533.5" text-anchor="middle" dominant-baseline="central" transform="matrix(1 0 0 1 -6 -14)">[Container]</text></g></g><g><g><path fill="none" stroke="none"/></g></g><g><path fill="#C0C0C0" stroke="none" paint-order="stroke fill markers" d=" M 767 233 L 891 233 Q 897 233 897 239 L 897 294 Q 897 300 891 300 L 767 300 Q 761 300 761 294 L 761 239 Q 761 233 767 233 Z" fill-opacity="0.2"/></g><g><path fill="#C6C6C6" stroke="none" paint-order="stroke fill markers" d=" M 760 226 L 884 226 Q 890 226 890 232 L 890 287 Q 890 293 884 293 L 760 293 Q 754 293 754 287 L 754 232 Q 754 226 760 226 Z"/></g><g><path fill="none" stroke="#000000" paint-order="fill stroke markers" d=" M 760 226 L 884 226 Q 890 226 890 232 L 890 287 Q 890 293 884 293 L 760 293 Q 754 293 754 287 L 754 232 Q 754 226 760 226 Z" stroke-miterlimit="10" stroke-dasharray=""/></g><g><g><path fill="none" stroke="none"/><text fill="#000000" stroke="none" font-family="Arial" font-size="13px" font-style="normal" font-weight="bold" text-decoration="undefined" x="828" y="254.5" text-anchor="middle" dominant-baseline="central" transform="matrix(1 0 0 1 -6 -14)">GPT4All</text></g></g><g><g><path fill="none" stroke="none"/><text fill="#000000" stroke="none" font-family="Arial" font-size="13px" font-style="normal" font-weight="normal" text-decoration="undefined" x="828" y="269.5" text-anchor="middle" dominant-baseline="central" transform="matrix(1 0 0 1 -6 -14)">[Software System]</text></g></g><g><g><path fill="none" stroke="none"/></g></g><g><path fill="#C0C0C0" stroke="none" paint-order="stroke fill markers" d=" M 47 153 L 283 153 Q 289 153 289 159 L 289 299 Q 289 305 283 305 L 47 305 Q 41 305 41 299 L 41 159 Q 41 153 47 153 Z" fill-opacity="0.2"/></g><g><path fill="#d8f2ff" stroke="none" paint-order="stroke fill markers" d=" M 40 146 L 276 146 Q 282 146 282 152 L 282 292 Q 282 298 276 298 L 40 298 Q 34 298 34 292 L 34 152 Q 34 146 40 146 Z"/></g><g><path fill="none" stroke="#000000" paint-order="fill stroke markers" d=" M 40 146 L 276 146 Q 282 146 282 152 L 282 292 Q 282 298 276 298 L 40 298 Q 34 298 34 292 L 34 152 Q 34 146 40 146 Z" stroke-miterlimit="10" stroke-dasharray=""/></g><g><g><path fill="none" stroke="none"/><text fill="#000000" stroke="none" font-family="Arial" font-size="13px" font-style="normal" font-weight="bold" text-decoration="undefined" x="164" y="174.5" text-anchor="middle" dominant-baseline="central" transform="matrix(1 0 0 1 -6 -14)">Finalization</text></g></g><g><g><path fill="none" stroke="none"/><text fill="#000000" stroke="none" font-family="Arial" font-size="13px" font-style="normal" font-weight="normal" text-decoration="undefined" x="164" y="189.5" text-anchor="middle" dominant-baseline="central" transform="matrix(1 0 0 1 -6 -14)">[Component: Java]</text></g></g><g><g><path fill="none" stroke="none"/><text fill="#000000" stroke="none" font-family="Arial" font-size="13px" font-style="normal" font-weight="normal" text-decoration="undefined" x="164" y="212.5" text-anchor="middle" dominant-baseline="central" transform="matrix(1 0 0 1 -6 -14)">Create and edit a RawCourse.  

-</text><text fill="#000000" stroke="none" font-family="Arial" font-size="13px" font-style="normal" font-weight="normal" text-decoration="undefined" x="164" y="225.5" text-anchor="middle" dominant-baseline="central" transform="matrix(1 0 0 1 -6 -14)">Export a course. Possible Formats:</text><text fill="#000000" stroke="none" font-family="Arial" font-size="13px" font-style="normal" font-weight="normal" text-decoration="undefined" x="164" y="238.5" text-anchor="middle" dominant-baseline="central" transform="matrix(1 0 0 1 -6 -14)">HTML and OpenOlat </text></g></g><g><path fill="#C0C0C0" stroke="none" paint-order="stroke fill markers" d=" M 551 361 L 699 361 Q 705 361 705 367 L 705 435 Q 705 441 699 441 L 551 441 Q 545 441 545 435 L 545 367 Q 545 361 551 361 Z" fill-opacity="0.2"/></g><g><path fill="#0A92D6" stroke="none" paint-order="stroke fill markers" d=" M 544 354 L 692 354 Q 698 354 698 360 L 698 428 Q 698 434 692 434 L 544 434 Q 538 434 538 428 L 538 360 Q 538 354 544 354 Z"/></g><g><path fill="none" stroke="#000000" paint-order="fill stroke markers" d=" M 544 354 L 692 354 Q 698 354 698 360 L 698 428 Q 698 434 692 434 L 544 434 Q 538 434 538 428 L 538 360 Q 538 354 544 354 Z" stroke-miterlimit="10" stroke-dasharray=""/></g><g><g><path fill="none" stroke="none"/><text fill="#000000" stroke="none" font-family="Arial" font-size="13px" font-style="normal" font-weight="bold" text-decoration="undefined" x="624" y="382.5" text-anchor="middle" dominant-baseline="central" transform="matrix(1 0 0 1 -6 -14)">GPT-Connection</text></g></g><g><g><path fill="none" stroke="none"/><text fill="#000000" stroke="none" font-family="Arial" font-size="13px" font-style="normal" font-weight="normal" text-decoration="undefined" x="624" y="397.5" text-anchor="middle" dominant-baseline="central" transform="matrix(1 0 0 1 -6 -14)">[Component: Python]</text></g></g><g><g><path fill="none" stroke="none"/><text fill="#000000" stroke="none" font-family="Arial" font-size="13px" font-style="normal" font-weight="normal" text-decoration="undefined" x="624" y="420.5" text-anchor="middle" dominant-baseline="central" transform="matrix(1 0 0 1 -6 -14)">API to communicate with</text><text fill="#000000" stroke="none" font-family="Arial" font-size="13px" font-style="normal" font-weight="normal" text-decoration="undefined" x="624" y="433.5" text-anchor="middle" dominant-baseline="central" transform="matrix(1 0 0 1 -6 -14)">the GPT4All-Server</text></g></g><g><path fill="none" stroke="#000000" paint-order="fill stroke markers" d=" M 698 378 L 794 378 L 794 293" stroke-miterlimit="10" stroke-dasharray="3"/></g><g><path fill="#000000" stroke="none" paint-order="stroke fill markers" d=" M 798.209517756016 303.16267485762415 L 794 293 L 789.790482243984 303.16267485762415"/></g><g><path fill="none" stroke="#000000" paint-order="fill stroke markers" d=" M 798.209517756016 303.16267485762415 L 794 293 L 789.790482243984 303.16267485762415 L 798.209517756016 303.16267485762415" stroke-miterlimit="10" stroke-dasharray=""/></g><g><rect fill="#ffffff" stroke="none" x="727" y="368" width="43.36083984375" height="13" transform="matrix(1 0 0 1 -6 -14)"/></g><g><g><path fill="none" stroke="none"/><text fill="#000000" stroke="none" font-family="Arial" font-size="13px" font-style="normal" font-weight="normal" text-decoration="undefined" x="748.680419921875" y="374.5" text-anchor="middle" dominant-baseline="central" transform="matrix(1 0 0 1 -6 -14)">request</text></g></g><g><path fill="none" stroke="#000000" paint-order="fill stroke markers" d=" M 842 293 L 842 410 L 698 410" stroke-miterlimit="10" stroke-dasharray="3"/></g><g><path fill="#000000" stroke="none" paint-order="stroke fill markers" d=" M 708.1626748576241 405.790482243984 L 698 410 L 708.1626748576241 414.209517756016"/></g><g><path fill="none" stroke="#000000" paint-order="fill stroke markers" d=" M 708.1626748576241 405.790482243984 L 698 410 L 708.1626748576241 414.209517756016 L 708.1626748576241 405.790482243984" stroke-miterlimit="10" stroke-dasharray=""/></g><g><rect fill="#ffffff" stroke="none" x="776" y="432" width="59.26806640625" height="39" transform="matrix(1 0 0 1 -6 -14)"/></g><g><g><path fill="none" stroke="none"/><text fill="#000000" stroke="none" font-family="Arial" font-size="13px" font-style="normal" font-weight="normal" text-decoration="undefined" x="805.634033203125" y="445" text-anchor="middle" dominant-baseline="central" transform="matrix(1 0 0 1 -6 -14)">Responde</text><text fill="#000000" stroke="none" font-family="Arial" font-size="13px" font-style="normal" font-weight="normal" text-decoration="undefined" x="805.634033203125" y="458" text-anchor="middle" dominant-baseline="central" transform="matrix(1 0 0 1 -6 -14)">to a promt</text></g></g><g><path fill="#C0C0C0" stroke="none" paint-order="stroke fill markers" d=" M 295 17 L 523 17 Q 529 17 529 23 L 529 87 Q 529 93 523 93 L 295 93 Q 289 93 289 87 L 289 23 Q 289 17 295 17 Z" fill-opacity="0.2"/></g><g><path fill="#a3e0ff" stroke="none" paint-order="stroke fill markers" d=" M 288 10 L 516 10 Q 522 10 522 16 L 522 80 Q 522 86 516 86 L 288 86 Q 282 86 282 80 L 282 16 Q 282 10 288 10 Z"/></g><g><path fill="none" stroke="#000000" paint-order="fill stroke markers" d=" M 288 10 L 516 10 Q 522 10 522 16 L 522 80 Q 522 86 516 86 L 288 86 Q 282 86 282 80 L 282 16 Q 282 10 288 10 Z" stroke-miterlimit="10" stroke-dasharray=""/></g><g><path fill="none" stroke="#000000" paint-order="fill stroke markers" d=" M 290 21 C 290 18.238576000000002 292.238576 16 295 16 C 297.761424 16 300 18.238576000000002 300 21 C 300 23.761423999999998 297.761424 26 295 26 C 292.238576 26 290 23.761423999999998 290 21 Z" stroke-miterlimit="10" stroke-dasharray=""/></g><g><path fill="none" stroke="#000000" paint-order="fill stroke markers" d=" M 304 21 C 304 18.238576000000002 306.238576 16 309 16 C 311.761424 16 314 18.238576000000002 314 21 C 314 23.761423999999998 311.761424 26 309 26 C 306.238576 26 304 23.761423999999998 304 21 Z" stroke-miterlimit="10" stroke-dasharray=""/></g><g><path fill="none" stroke="#000000" paint-order="fill stroke markers" d=" M 323 16 L 509 16 Q 514 16 514 21 L 514 21 Q 514 26 509 26 L 323 26 Q 318 26 318 21 L 318 21 Q 318 16 323 16 Z" stroke-miterlimit="10" stroke-dasharray=""/></g><g><path fill="none" stroke="#000000" paint-order="fill stroke markers" d=" M 282 34 L 522 34" stroke-miterlimit="10" stroke-dasharray=""/></g><g><g><path fill="none" stroke="none"/><text fill="#000000" stroke="none" font-family="Arial" font-size="13px" font-style="normal" font-weight="bold" text-decoration="undefined" x="408" y="60.5" text-anchor="middle" dominant-baseline="central" transform="matrix(1 0 0 1 -6 -14)">Frontend</text></g></g><g><g><path fill="none" stroke="none"/><text fill="#000000" stroke="none" font-family="Arial" font-size="13px" font-style="normal" font-weight="normal" text-decoration="undefined" x="408" y="75.5" text-anchor="middle" dominant-baseline="central" transform="matrix(1 0 0 1 -6 -14)">[Container: HTML - Thymeleaf]</text></g></g><g><g><path fill="none" stroke="none"/></g></g><g><path fill="none" stroke="#000000" paint-order="fill stroke markers" d=" M 604 290 L 604 354" stroke-miterlimit="10" stroke-dasharray="3"/></g><g><path fill="#000000" stroke="none" paint-order="stroke fill markers" d=" M 599.790482243984 343.83732514237585 L 604 354 L 608.209517756016 343.83732514237585"/></g><g><path fill="none" stroke="#000000" paint-order="fill stroke markers" d=" M 599.790482243984 343.83732514237585 L 604 354 L 608.209517756016 343.83732514237585 L 599.790482243984 343.83732514237585" stroke-miterlimit="10" stroke-dasharray=""/></g><g><rect fill="#ffffff" stroke="none" x="576" y="322" width="96" height="26" transform="matrix(1 0 0 1 -6 -14)"/></g><g><g><path fill="none" stroke="none"/><text fill="#000000" stroke="none" font-family="Arial" font-size="13px" font-style="normal" font-weight="normal" text-decoration="undefined" x="624" y="328.5" text-anchor="middle" dominant-baseline="central" transform="matrix(1 0 0 1 -6 -14)">Make requests</text><text fill="#000000" stroke="none" font-family="Arial" font-size="13px" font-style="normal" font-weight="normal" text-decoration="undefined" x="624" y="341.5" text-anchor="middle" dominant-baseline="central" transform="matrix(1 0 0 1 -6 -14)">for Aggregation</text></g></g><g><path fill="none" stroke="#000000" paint-order="fill stroke markers" d=" M 426 346 L 426 258 L 482 258" stroke-miterlimit="10" stroke-dasharray="3"/></g><g><path fill="#000000" stroke="none" paint-order="stroke fill markers" d=" M 471.83732514237585 262.209517756016 L 482 258 L 471.83732514237585 253.790482243984"/></g><g><path fill="none" stroke="#000000" paint-order="fill stroke markers" d=" M 471.83732514237585 262.209517756016 L 482 258 L 471.83732514237585 253.790482243984 L 471.83732514237585 262.209517756016" stroke-miterlimit="10" stroke-dasharray=""/></g><g><rect fill="#ffffff" stroke="none" x="360" y="288" width="62.15625" height="26" transform="matrix(1 0 0 1 -6 -14)"/></g><g><g><path fill="none" stroke="none"/><text fill="#000000" stroke="none" font-family="Arial" font-size="13px" font-style="normal" font-weight="normal" text-decoration="undefined" x="391.078125" y="294.5" text-anchor="middle" dominant-baseline="central" transform="matrix(1 0 0 1 -6 -14)">Use</text><text fill="#000000" stroke="none" font-family="Arial" font-size="13px" font-style="normal" font-weight="normal" text-decoration="undefined" x="391.078125" y="307.5" text-anchor="middle" dominant-baseline="central" transform="matrix(1 0 0 1 -6 -14)">knowledge</text></g></g><g><path fill="none" stroke="#000000" paint-order="fill stroke markers" d=" M 236 298 L 236 346" stroke-miterlimit="10" stroke-dasharray="3"/></g><g><path fill="#000000" stroke="none" paint-order="stroke fill markers" d=" M 231.790482243984 335.83732514237585 L 236 346 L 240.209517756016 335.83732514237585"/></g><g><path fill="none" stroke="#000000" paint-order="fill stroke markers" d=" M 231.790482243984 335.83732514237585 L 236 346 L 240.209517756016 335.83732514237585 L 231.790482243984 335.83732514237585" stroke-miterlimit="10" stroke-dasharray=""/></g><g><rect fill="#ffffff" stroke="none" x="248" y="322" width="52.736328125" height="26" transform="matrix(1 0 0 1 -6 -14)"/></g><g><g><path fill="none" stroke="none"/><text fill="#000000" stroke="none" font-family="Arial" font-size="13px" font-style="normal" font-weight="normal" text-decoration="undefined" x="274.3681640625" y="328.5" text-anchor="middle" dominant-baseline="central" transform="matrix(1 0 0 1 -6 -14)">Use</text><text fill="#000000" stroke="none" font-family="Arial" font-size="13px" font-style="normal" font-weight="normal" text-decoration="undefined" x="274.3681640625" y="341.5" text-anchor="middle" dominant-baseline="central" transform="matrix(1 0 0 1 -6 -14)">materials</text></g></g><g><path fill="none" stroke="#000000" paint-order="fill stroke markers" d=" M 514 290 L 514 474" stroke-miterlimit="10" stroke-dasharray="3"/></g><g><path fill="#000000" stroke="none" paint-order="stroke fill markers" d=" M 509.790482243984 463.83732514237585 L 514 474 L 518.209517756016 463.83732514237585"/></g><g><path fill="none" stroke="#000000" paint-order="fill stroke markers" d=" M 509.790482243984 463.83732514237585 L 514 474 L 518.209517756016 463.83732514237585 L 509.790482243984 463.83732514237585" stroke-miterlimit="10" stroke-dasharray=""/></g><g><rect fill="#ffffff" stroke="none" x="472" y="381" width="62.15625" height="26" transform="matrix(1 0 0 1 -6 -14)"/></g><g><g><path fill="none" stroke="none"/><text fill="#000000" stroke="none" font-family="Arial" font-size="13px" font-style="normal" font-weight="normal" text-decoration="undefined" x="503.078125" y="387.5" text-anchor="middle" dominant-baseline="central" transform="matrix(1 0 0 1 -6 -14)">Edit</text><text fill="#000000" stroke="none" font-family="Arial" font-size="13px" font-style="normal" font-weight="normal" text-decoration="undefined" x="503.078125" y="400.5" text-anchor="middle" dominant-baseline="central" transform="matrix(1 0 0 1 -6 -14)">knowledge</text></g></g><g><path fill="none" stroke="#000000" paint-order="fill stroke markers" d=" M 265 413 L 265 474" stroke-miterlimit="10" stroke-dasharray="3"/></g><g><path fill="#000000" stroke="none" paint-order="stroke fill markers" d=" M 260.790482243984 463.83732514237585 L 265 474 L 269.209517756016 463.83732514237585"/></g><g><path fill="none" stroke="#000000" paint-order="fill stroke markers" d=" M 260.790482243984 463.83732514237585 L 265 474 L 269.209517756016 463.83732514237585 L 260.790482243984 463.83732514237585" stroke-miterlimit="10" stroke-dasharray=""/></g><g><rect fill="#ffffff" stroke="none" x="280" y="432" width="46.97900390625" height="26" transform="matrix(1 0 0 1 -6 -14)"/></g><g><g><path fill="none" stroke="none"/><text fill="#000000" stroke="none" font-family="Arial" font-size="13px" font-style="normal" font-weight="normal" text-decoration="undefined" x="303.489501953125" y="438.5" text-anchor="middle" dominant-baseline="central" transform="matrix(1 0 0 1 -6 -14)">Store</text><text fill="#000000" stroke="none" font-family="Arial" font-size="13px" font-style="normal" font-weight="normal" text-decoration="undefined" x="303.489501953125" y="451.5" text-anchor="middle" dominant-baseline="central" transform="matrix(1 0 0 1 -6 -14)">material</text></g></g><g><path fill="none" stroke="#000000" paint-order="fill stroke markers" d=" M 170 298 L 170 490 L 234 490" stroke-miterlimit="10" stroke-dasharray="3"/></g><g><path fill="#000000" stroke="none" paint-order="stroke fill markers" d=" M 223.83732514237585 494.209517756016 L 234 490 L 223.83732514237585 485.790482243984"/></g><g><path fill="none" stroke="#000000" paint-order="fill stroke markers" d=" M 223.83732514237585 494.209517756016 L 234 490 L 223.83732514237585 485.790482243984 L 223.83732514237585 494.209517756016" stroke-miterlimit="10" stroke-dasharray=""/></g><g><rect fill="#ffffff" stroke="none" x="128" y="383" width="39.01904296875" height="26" transform="matrix(1 0 0 1 -6 -14)"/></g><g><g><path fill="none" stroke="none"/><text fill="#000000" stroke="none" font-family="Arial" font-size="13px" font-style="normal" font-weight="normal" text-decoration="undefined" x="147.509521484375" y="389.5" text-anchor="middle" dominant-baseline="central" transform="matrix(1 0 0 1 -6 -14)">Store</text><text fill="#000000" stroke="none" font-family="Arial" font-size="13px" font-style="normal" font-weight="normal" text-decoration="undefined" x="147.509521484375" y="402.5" text-anchor="middle" dominant-baseline="central" transform="matrix(1 0 0 1 -6 -14)">course</text></g></g><g><path fill="#C0C0C0" stroke="none" paint-order="stroke fill markers" d=" M 47 537 L 197 537 Q 203 537 203 543 L 203 611 Q 203 617 197 617 L 47 617 Q 41 617 41 611 L 41 543 Q 41 537 47 537 Z" fill-opacity="0.2"/></g><g><path fill="#AAAAAA" stroke="none" paint-order="stroke fill markers" d=" M 40 530 L 190 530 Q 196 530 196 536 L 196 604 Q 196 610 190 610 L 40 610 Q 34 610 34 604 L 34 536 Q 34 530 40 530 Z"/></g><g><path fill="none" stroke="#000000" paint-order="fill stroke markers" d=" M 40 530 L 190 530 Q 196 530 196 536 L 196 604 Q 196 610 190 610 L 40 610 Q 34 610 34 604 L 34 536 Q 34 530 40 530 Z" stroke-miterlimit="10" stroke-dasharray=""/></g><g><g><path fill="none" stroke="none"/><text fill="#000000" stroke="none" font-family="Arial" font-size="13px" font-style="normal" font-weight="bold" text-decoration="undefined" x="121" y="558.5" text-anchor="middle" dominant-baseline="central" transform="matrix(1 0 0 1 -6 -14)">OPAL</text></g></g><g><g><path fill="none" stroke="none"/><text fill="#000000" stroke="none" font-family="Arial" font-size="13px" font-style="normal" font-weight="normal" text-decoration="undefined" x="121" y="573.5" text-anchor="middle" dominant-baseline="central" transform="matrix(1 0 0 1 -6 -14)">[Software System]</text></g></g><g><g><path fill="none" stroke="none"/><text fill="#000000" stroke="none" font-family="Arial" font-size="13px" font-style="normal" font-weight="normal" text-decoration="undefined" x="121" y="596.5" text-anchor="middle" dominant-baseline="central" transform="matrix(1 0 0 1 -6 -14)">LMS</text></g></g><g><path fill="none" stroke="#000000" paint-order="fill stroke markers" d=" M 90 298 L 90 530" stroke-miterlimit="10" stroke-dasharray="3"/></g><g><path fill="#000000" stroke="none" paint-order="stroke fill markers" d=" M 85.79048224398402 519.8373251423759 L 90 530 L 94.20951775601598 519.8373251423759"/></g><g><path fill="none" stroke="#000000" paint-order="fill stroke markers" d=" M 85.79048224398402 519.8373251423759 L 90 530 L 94.20951775601598 519.8373251423759 L 85.79048224398402 519.8373251423759" stroke-miterlimit="10" stroke-dasharray=""/></g><g><rect fill="#ffffff" stroke="none" x="32" y="488" width="56" height="26" transform="matrix(1 0 0 1 -6 -14)"/></g><g><g><path fill="none" stroke="none"/><text fill="#000000" stroke="none" font-family="Arial" font-size="13px" font-style="normal" font-weight="normal" text-decoration="undefined" x="60" y="494.5" text-anchor="middle" dominant-baseline="central" transform="matrix(1 0 0 1 -6 -14)">Export</text><text fill="#000000" stroke="none" font-family="Arial" font-size="13px" font-style="normal" font-weight="normal" text-decoration="undefined" x="60" y="507.5" text-anchor="middle" dominant-baseline="central" transform="matrix(1 0 0 1 -6 -14)">course to</text></g></g><g><path fill="none" stroke="#000000" paint-order="fill stroke markers" d=" M 282 66 L 250 66 L 250 98 L 218 98 L 218 146" stroke-miterlimit="10" stroke-dasharray="3"/></g><g><path fill="#000000" stroke="none" paint-order="stroke fill markers" d=" M 213.790482243984 135.83732514237585 L 218 146 L 222.209517756016 135.83732514237585"/></g><g><path fill="none" stroke="#000000" paint-order="fill stroke markers" d=" M 213.790482243984 135.83732514237585 L 218 146 L 222.209517756016 135.83732514237585 L 213.790482243984 135.83732514237585" stroke-miterlimit="10" stroke-dasharray=""/></g><g><rect fill="#ffffff" stroke="none" x="184" y="71" width="65.75537109375" height="39" transform="matrix(1 0 0 1 -6 -14)"/></g><g><g><path fill="none" stroke="none"/><text fill="#000000" stroke="none" font-family="Arial" font-size="13px" font-style="normal" font-weight="normal" text-decoration="undefined" x="216.877685546875" y="77.5" text-anchor="middle" dominant-baseline="central" transform="matrix(1 0 0 1 -6 -14)">Request</text><text fill="#000000" stroke="none" font-family="Arial" font-size="13px" font-style="normal" font-weight="normal" text-decoration="undefined" x="216.877685546875" y="90.5" text-anchor="middle" dominant-baseline="central" transform="matrix(1 0 0 1 -6 -14)">Finalization</text><text fill="#000000" stroke="none" font-family="Arial" font-size="13px" font-style="normal" font-weight="normal" text-decoration="undefined" x="216.877685546875" y="103.5" text-anchor="middle" dominant-baseline="central" transform="matrix(1 0 0 1 -6 -14)">features</text></g></g><g><path fill="none" stroke="#000000" paint-order="fill stroke markers" d=" M 338 86 L 338 346" stroke-miterlimit="10" stroke-dasharray="3"/></g><g><path fill="#000000" stroke="none" paint-order="stroke fill markers" d=" M 333.790482243984 335.83732514237585 L 338 346 L 342.209517756016 335.83732514237585"/></g><g><path fill="none" stroke="#000000" paint-order="fill stroke markers" d=" M 333.790482243984 335.83732514237585 L 338 346 L 342.209517756016 335.83732514237585 L 333.790482243984 335.83732514237585" stroke-miterlimit="10" stroke-dasharray=""/></g><g><rect fill="#ffffff" stroke="none" x="344" y="210" width="80.32080078125" height="39" transform="matrix(1 0 0 1 -6 -14)"/></g><g><g><path fill="none" stroke="none"/><text fill="#000000" stroke="none" font-family="Arial" font-size="13px" font-style="normal" font-weight="normal" text-decoration="undefined" x="384.160400390625" y="216.5" text-anchor="middle" dominant-baseline="central" transform="matrix(1 0 0 1 -6 -14)">Request</text><text fill="#000000" stroke="none" font-family="Arial" font-size="13px" font-style="normal" font-weight="normal" text-decoration="undefined" x="384.160400390625" y="229.5" text-anchor="middle" dominant-baseline="central" transform="matrix(1 0 0 1 -6 -14)">Generation</text><text fill="#000000" stroke="none" font-family="Arial" font-size="13px" font-style="normal" font-weight="normal" text-decoration="undefined" x="384.160400390625" y="242.5" text-anchor="middle" dominant-baseline="central" transform="matrix(1 0 0 1 -6 -14)">features</text></g></g><g><path fill="none" stroke="#000000" paint-order="fill stroke markers" d=" M 506 86 L 506 146" stroke-miterlimit="10" stroke-dasharray="3"/></g><g><path fill="#000000" stroke="none" paint-order="stroke fill markers" d=" M 501.790482243984 135.83732514237585 L 506 146 L 510.209517756016 135.83732514237585"/></g><g><path fill="none" stroke="#000000" paint-order="fill stroke markers" d=" M 501.790482243984 135.83732514237585 L 506 146 L 510.209517756016 135.83732514237585 L 501.790482243984 135.83732514237585" stroke-miterlimit="10" stroke-dasharray=""/></g><g><rect fill="#ffffff" stroke="none" x="520" y="104" width="134" height="26" transform="matrix(1 0 0 1 -6 -14)"/></g><g><g><path fill="none" stroke="none"/><text fill="#000000" stroke="none" font-family="Arial" font-size="13px" font-style="normal" font-weight="normal" text-decoration="undefined" x="587" y="110.5" text-anchor="middle" dominant-baseline="central" transform="matrix(1 0 0 1 -6 -14)">Request Aggregation</text><text fill="#000000" stroke="none" font-family="Arial" font-size="13px" font-style="normal" font-weight="normal" text-decoration="undefined" x="587" y="123.5" text-anchor="middle" dominant-baseline="central" transform="matrix(1 0 0 1 -6 -14)">features</text></g></g><g><path fill="none" stroke="#000000" paint-order="fill stroke markers" d=" M 386 413 L 386 509 L 450 509" stroke-miterlimit="10" stroke-dasharray="3"/></g><g><path fill="#000000" stroke="none" paint-order="stroke fill markers" d=" M 439.83732514237585 513.209517756016 L 450 509 L 439.83732514237585 504.790482243984"/></g><g><path fill="none" stroke="#000000" paint-order="fill stroke markers" d=" M 439.83732514237585 513.209517756016 L 450 509 L 439.83732514237585 504.790482243984 L 439.83732514237585 513.209517756016" stroke-miterlimit="10" stroke-dasharray=""/></g><g><rect fill="#ffffff" stroke="none" x="401" y="432" width="62.15625" height="26" transform="matrix(1 0 0 1 -6 -14)"/></g><g><g><path fill="none" stroke="none"/><text fill="#000000" stroke="none" font-family="Arial" font-size="13px" font-style="normal" font-weight="normal" text-decoration="undefined" x="432.078125" y="438.5" text-anchor="middle" dominant-baseline="central" transform="matrix(1 0 0 1 -6 -14)">Read</text><text fill="#000000" stroke="none" font-family="Arial" font-size="13px" font-style="normal" font-weight="normal" text-decoration="undefined" x="432.078125" y="451.5" text-anchor="middle" dominant-baseline="central" transform="matrix(1 0 0 1 -6 -14)">knowledge</text></g></g></g></svg>