<svg version="1.1" xmlns="http://www.w3.org/2000/svg" xmlns:xlink="http://www.w3.org/1999/xlink" width="611.09716796875" height="588"><defs/><g><g><path fill="#C0C0C0" stroke="none" paint-order="stroke fill markers" d=" M 23 49 L 363 49 Q 369 49 369 55 L 369 579 Q 369 585 363 585 L 23 585 Q 17 585 17 579 L 17 55 Q 17 49 23 49 Z" fill-opacity="0.2"/></g><g><path fill="#FFFFFF78" stroke="none" paint-order="stroke fill markers" d=" M 16 42 L 356 42 Q 362 42 362 48 L 362 572 Q 362 578 356 578 L 16 578 Q 10 578 10 572 L 10 48 Q 10 42 16 42 Z"/></g><g><path fill="none" stroke="#000000" paint-order="fill stroke markers" d=" M 16 42 L 356 42 Q 362 42 362 48 L 362 572 Q 362 578 356 578 L 16 578 Q 10 578 10 572 L 10 48 Q 10 42 16 42 Z" stroke-miterlimit="10" stroke-dasharray=""/></g><g><g><path fill="none" stroke="none"/><text fill="#000000" stroke="none" font-family="Arial" font-size="13px" font-style="normal" font-weight="bold" text-decoration="undefined" x="16" y="586.5" text-anchor="start" dominant-baseline="central" transform="matrix(1 0 0 1 2 -38)">MDTea-Prototype</text></g></g><g><g><path fill="none" stroke="none"/><text fill="#000000" stroke="none" font-family="Arial" font-size="13px" font-style="normal" font-weight="normal" text-decoration="undefined" x="16" y="601.5" text-anchor="start" dominant-baseline="central" transform="matrix(1 0 0 1 2 -38)">[Software System]</text></g></g><g><g><path fill="none" stroke="none"/></g></g><g><path fill="#C0C0C0" stroke="none" paint-order="stroke fill markers" d=" M 460.9599609375 31 C 460.9599609375 23.2680128 467.2279737375 17 474.9599609375 17 C 482.6919481375 17 488.9599609375 23.2680128 488.9599609375 31 C 488.9599609375 38.731987200000006 482.6919481375 45 474.9599609375 45 C 467.2279737375 45 460.9599609375 38.731987200000006 460.9599609375 31 Z" fill-opacity="0.2"/></g><g><path fill="#C0C0C0" stroke="none" paint-order="stroke fill markers" d=" M 439 53 L 510.919921875 53 Q 516.919921875 53 516.919921875 59 L 516.919921875 101 Q 516.919921875 107 510.919921875 107 L 439 107 Q 433 107 433 101 L 433 59 Q 433 53 439 53 Z" fill-opacity="0.2"/></g><g><path fill="#38bcff" stroke="none" paint-order="stroke fill markers" d=" M 453.9599609375 24 C 453.9599609375 16.2680128 460.2279737375 10 467.9599609375 10 C 475.6919481375 10 481.9599609375 16.2680128 481.9599609375 24 C 481.9599609375 31.731987200000006 475.6919481375 38 467.9599609375 38 C 460.2279737375 38 453.9599609375 31.731987200000006 453.9599609375 24 Z"/></g><g><path fill="none" stroke="#000000" paint-order="fill stroke markers" d=" M 453.9599609375 24 C 453.9599609375 16.2680128 460.2279737375 10 467.9599609375 10 C 475.6919481375 10 481.9599609375 16.2680128 481.9599609375 24 C 481.9599609375 31.731987200000006 475.6919481375 38 467.9599609375 38 C 460.2279737375 38 453.9599609375 31.731987200000006 453.9599609375 24 Z" stroke-miterlimit="10" stroke-dasharray=""/></g><g><path fill="#38bcff" stroke="none" paint-order="stroke fill markers" d=" M 432 46 L 503.919921875 46 Q 509.919921875 46 509.919921875 52 L 509.919921875 94 Q 509.919921875 100 503.919921875 100 L 432 100 Q 426 100 426 94 L 426 52 Q 426 46 432 46 Z"/></g><g><path fill="none" stroke="#000000" paint-order="fill stroke markers" d=" M 432 46 L 503.919921875 46 Q 509.919921875 46 509.919921875 52 L 509.919921875 94 Q 509.919921875 100 503.919921875 100 L 432 100 Q 426 100 426 94 L 426 52 Q 426 46 432 46 Z" stroke-miterlimit="10" stroke-dasharray=""/></g><g><g><path fill="none" stroke="none"/><text fill="#000000" stroke="none" font-family="Arial" font-size="13px" font-style="normal" font-weight="bold" text-decoration="undefined" x="465.9599609375" y="98.5" text-anchor="middle" dominant-baseline="central" transform="matrix(1 0 0 1 2 -38)">User</text></g></g><g><g><path fill="none" stroke="none"/><text fill="#000000" stroke="none" font-family="Arial" font-size="13px" font-style="normal" font-weight="normal" text-decoration="undefined" x="465.9599609375" y="113.5" text-anchor="middle" dominant-baseline="central" transform="matrix(1 0 0 1 2 -38)">[Person]</text></g></g><g><g><path fill="none" stroke="none"/></g></g><g><path fill="#C0C0C0" stroke="none" paint-order="stroke fill markers" d=" M 31 201 L 315 201 Q 321 201 321 207 L 321 339 Q 321 345 315 345 L 31 345 Q 25 345 25 339 L 25 207 Q 25 201 31 201 Z" fill-opacity="0.2"/></g><g><path fill="#a3e0ff" stroke="none" paint-order="stroke fill markers" d=" M 24 194 L 308 194 Q 314 194 314 200 L 314 332 Q 314 338 308 338 L 24 338 Q 18 338 18 332 L 18 200 Q 18 194 24 194 Z"/></g><g><path fill="none" stroke="#000000" paint-order="fill stroke markers" d=" M 24 194 L 308 194 Q 314 194 314 200 L 314 332 Q 314 338 308 338 L 24 338 Q 18 338 18 332 L 18 200 Q 18 194 24 194 Z" stroke-miterlimit="10" stroke-dasharray=""/></g><g><g><path fill="none" stroke="none"/><text fill="#000000" stroke="none" font-family="Arial" font-size="13px" font-style="normal" font-weight="bold" text-decoration="undefined" x="164" y="246.5" text-anchor="middle" dominant-baseline="central" transform="matrix(1 0 0 1 2 -38)">Backend</text></g></g><g><g><path fill="none" stroke="none"/><text fill="#000000" stroke="none" font-family="Arial" font-size="13px" font-style="normal" font-weight="normal" text-decoration="undefined" x="164" y="261.5" text-anchor="middle" dominant-baseline="central" transform="matrix(1 0 0 1 2 -38)">[Container: Java  - Spring Boot]</text></g></g><g><g><path fill="none" stroke="none"/><text fill="#000000" stroke="none" font-family="Arial" font-size="13px" font-style="normal" font-weight="normal" text-decoration="undefined" x="164" y="284.5" text-anchor="middle" dominant-baseline="central" transform="matrix(1 0 0 1 2 -38)">Realization of the Aggregation, Generation and</text><text fill="#000000" stroke="none" font-family="Arial" font-size="13px" font-style="normal" font-weight="normal" text-decoration="undefined" x="164" y="297.5" text-anchor="middle" dominant-baseline="central" transform="matrix(1 0 0 1 2 -38)">Finalization</text></g></g><g><path fill="#C0C0C0" stroke="none" paint-order="stroke fill markers" d=" M 41 481 C 41 476.58172160000004 63.501951713281244 473 91.259521484375 473 C 119.01709125546876 473 141.51904296875 476.58172160000004 141.51904296875 481 L 141.51904296875 535 C 141.51904296875 539.4182784 119.01709125546876 543 91.259521484375 543 C 63.501951713281244 543 41 539.4182784 41 535 L 41 481 Z" fill-opacity="0.2"/></g><g><path fill="#a3e0ff" stroke="#000000" paint-order="fill stroke markers" d=" M 34 474 C 34 469.5817216 56.501951713281244 466 84.259521484375 466 C 112.01709125546876 466 134.51904296875 469.5817216 134.51904296875 474 L 134.51904296875 528 C 134.51904296875 532.4182784 112.01709125546876 536 84.259521484375 536 C 56.501951713281244 536 34 532.4182784 34 528 L 34 474 Z" stroke-miterlimit="10" stroke-dasharray=""/></g><g><path fill="none" stroke="#000000" paint-order="fill stroke markers" d=" M 34 474 C 34 478.41827839999996 56.501951713281244 482 84.259521484375 482 C 112.01709125546876 482 134.51904296875 478.41827839999996 134.51904296875 474" stroke-miterlimit="10" stroke-dasharray=""/></g><g><g><path fill="none" stroke="none"/><text fill="#000000" stroke="none" font-family="Arial" font-size="13px" font-style="normal" font-weight="bold" text-decoration="undefined" x="82.259521484375" y="534.5" text-anchor="middle" dominant-baseline="central" transform="matrix(1 0 0 1 2 -38)">H2-Database</text></g></g><g><g><path fill="none" stroke="none"/><text fill="#000000" stroke="none" font-family="Arial" font-size="13px" font-style="normal" font-weight="normal" text-decoration="undefined" x="82.259521484375" y="549.5" text-anchor="middle" dominant-baseline="central" transform="matrix(1 0 0 1 2 -38)">[Container]</text></g></g><g><g><path fill="none" stroke="none"/></g></g><g><path fill="#C0C0C0" stroke="none" paint-order="stroke fill markers" d=" M 217 481 C 217 476.58172160000004 242.4163634265625 473 273.76904296875 473 C 305.1217225109375 473 330.5380859375 476.58172160000004 330.5380859375 481 L 330.5380859375 535 C 330.5380859375 539.4182784 305.1217225109375 543 273.76904296875 543 C 242.4163634265625 543 217 539.4182784 217 535 L 217 481 Z" fill-opacity="0.2"/></g><g><path fill="#a3e0ff" stroke="#000000" paint-order="fill stroke markers" d=" M 210 474 C 210 469.5817216 235.4163634265625 466 266.76904296875 466 C 298.1217225109375 466 323.5380859375 469.5817216 323.5380859375 474 L 323.5380859375 528 C 323.5380859375 532.4182784 298.1217225109375 536 266.76904296875 536 C 235.4163634265625 536 210 532.4182784 210 528 L 210 474 Z" stroke-miterlimit="10" stroke-dasharray=""/></g><g><path fill="none" stroke="#000000" paint-order="fill stroke markers" d=" M 210 474 C 210 478.41827839999996 235.4163634265625 482 266.76904296875 482 C 298.1217225109375 482 323.5380859375 478.41827839999996 323.5380859375 474" stroke-miterlimit="10" stroke-dasharray=""/></g><g><g><path fill="none" stroke="none"/><text fill="#000000" stroke="none" font-family="Arial" font-size="13px" font-style="normal" font-weight="bold" text-decoration="undefined" x="264.76904296875" y="534.5" text-anchor="middle" dominant-baseline="central" transform="matrix(1 0 0 1 2 -38)">Neo4j-Database</text></g></g><g><g><path fill="none" stroke="none"/><text fill="#000000" stroke="none" font-family="Arial" font-size="13px" font-style="normal" font-weight="normal" text-decoration="undefined" x="264.76904296875" y="549.5" text-anchor="middle" dominant-baseline="central" transform="matrix(1 0 0 1 2 -38)">[Container]</text></g></g><g><g><path fill="none" stroke="none"/></g></g><g><path fill="#C0C0C0" stroke="none" paint-order="stroke fill markers" d=" M 63 57 L 291 57 Q 297 57 297 63 L 297 127 Q 297 133 291 133 L 63 133 Q 57 133 57 127 L 57 63 Q 57 57 63 57 Z" fill-opacity="0.2"/></g><g><path fill="#a3e0ff" stroke="none" paint-order="stroke fill markers" d=" M 56 50 L 284 50 Q 290 50 290 56 L 290 120 Q 290 126 284 126 L 56 126 Q 50 126 50 120 L 50 56 Q 50 50 56 50 Z"/></g><g><path fill="none" stroke="#000000" paint-order="fill stroke markers" d=" M 56 50 L 284 50 Q 290 50 290 56 L 290 120 Q 290 126 284 126 L 56 126 Q 50 126 50 120 L 50 56 Q 50 50 56 50 Z" stroke-miterlimit="10" stroke-dasharray=""/></g><g><path fill="none" stroke="#000000" paint-order="fill stroke markers" d=" M 58 61 C 58 58.238575999999995 60.238576 56 63 56 C 65.761424 56 68 58.238575999999995 68 61 C 68 63.761424000000005 65.761424 66 63 66 C 60.238576 66 58 63.761424000000005 58 61 Z" stroke-miterlimit="10" stroke-dasharray=""/></g><g><path fill="none" stroke="#000000" paint-order="fill stroke markers" d=" M 72 61 C 72 58.238575999999995 74.238576 56 77 56 C 79.761424 56 82 58.238575999999995 82 61 C 82 63.761424000000005 79.761424 66 77 66 C 74.238576 66 72 63.761424000000005 72 61 Z" stroke-miterlimit="10" stroke-dasharray=""/></g><g><path fill="none" stroke="#000000" paint-order="fill stroke markers" d=" M 91 56 L 277 56 Q 282 56 282 61 L 282 61 Q 282 66 277 66 L 91 66 Q 86 66 86 61 L 86 61 Q 86 56 91 56 Z" stroke-miterlimit="10" stroke-dasharray=""/></g><g><path fill="none" stroke="#000000" paint-order="fill stroke markers" d=" M 50 74 L 290 74" stroke-miterlimit="10" stroke-dasharray=""/></g><g><g><path fill="none" stroke="none"/><text fill="#000000" stroke="none" font-family="Arial" font-size="13px" font-style="normal" font-weight="bold" text-decoration="undefined" x="168" y="124.5" text-anchor="middle" dominant-baseline="central" transform="matrix(1 0 0 1 2 -38)">Frontend</text></g></g><g><g><path fill="none" stroke="none"/><text fill="#000000" stroke="none" font-family="Arial" font-size="13px" font-style="normal" font-weight="normal" text-decoration="undefined" x="168" y="139.5" text-anchor="middle" dominant-baseline="central" transform="matrix(1 0 0 1 2 -38)">[Container: HTML - Thymeleaf]</text></g></g><g><g><path fill="none" stroke="none"/></g></g><g><path fill="#C0C0C0" stroke="none" paint-order="stroke fill markers" d=" M 463 233 L 602.09716796875 233 Q 608.09716796875 233 608.09716796875 239 L 608.09716796875 281 Q 608.09716796875 287 602.09716796875 287 L 463 287 Q 457 287 457 281 L 457 239 Q 457 233 463 233 Z" fill-opacity="0.2"/></g><g><path fill="#717577" stroke="none" paint-order="stroke fill markers" d=" M 456 226 L 595.09716796875 226 Q 601.09716796875 226 601.09716796875 232 L 601.09716796875 274 Q 601.09716796875 280 595.09716796875 280 L 456 280 Q 450 280 450 274 L 450 232 Q 450 226 456 226 Z"/></g><g><path fill="none" stroke="#000000" paint-order="fill stroke markers" d=" M 456 226 L 595.09716796875 226 Q 601.09716796875 226 601.09716796875 232 L 601.09716796875 274 Q 601.09716796875 280 595.09716796875 280 L 456 280 Q 450 280 450 274 L 450 232 Q 450 226 456 226 Z" stroke-miterlimit="10" stroke-dasharray=""/></g><g><g><path fill="none" stroke="none"/><text fill="#000000" stroke="none" font-family="Arial" font-size="13px" font-style="normal" font-weight="bold" text-decoration="undefined" x="523.548583984375" y="278.5" text-anchor="middle" dominant-baseline="central" transform="matrix(1 0 0 1 2 -38)">GPT4All-Client/Server</text></g></g><g><g><path fill="none" stroke="none"/><text fill="#000000" stroke="none" font-family="Arial" font-size="13px" font-style="normal" font-weight="normal" text-decoration="undefined" x="523.548583984375" y="293.5" text-anchor="middle" dominant-baseline="central" transform="matrix(1 0 0 1 2 -38)">[Container]</text></g></g><g><g><path fill="none" stroke="none"/></g></g><g><path fill="none" stroke="#000000" paint-order="fill stroke markers" d=" M 426 75 L 290 75" stroke-miterlimit="10" stroke-dasharray="3"/></g><g><path fill="#000000" stroke="none" paint-order="stroke fill markers" d=" M 300.16267485762415 70.79048224398402 L 290 75 L 300.16267485762415 79.20951775601598"/></g><g><path fill="none" stroke="#000000" paint-order="fill stroke markers" d=" M 300.16267485762415 70.79048224398402 L 290 75 L 300.16267485762415 79.20951775601598 L 300.16267485762415 70.79048224398402" stroke-miterlimit="10" stroke-dasharray=""/></g><g><rect fill="#ffffff" stroke="none" x="347" y="68" width="59.25537109375" height="26" transform="matrix(1 0 0 1 2 -38)"/></g><g><g><path fill="none" stroke="none"/><text fill="#000000" stroke="none" font-family="Arial" font-size="13px" font-style="normal" font-weight="normal" text-decoration="undefined" x="376.627685546875" y="74.5" text-anchor="middle" dominant-baseline="central" transform="matrix(1 0 0 1 2 -38)">Visit</text><text fill="#000000" stroke="none" font-family="Arial" font-size="13px" font-style="normal" font-weight="normal" text-decoration="undefined" x="376.627685546875" y="87.5" text-anchor="middle" dominant-baseline="central" transform="matrix(1 0 0 1 2 -38)">software</text></g></g><g><path fill="none" stroke="#000000" paint-order="fill stroke markers" d=" M 169 127 L 168 193" stroke-miterlimit="10" stroke-dasharray="3"/></g><g><path fill="#000000" stroke="none" paint-order="stroke fill markers" d=" M 163.9449275976234 182.77471820381052 L 168 193 L 172.362996903706 182.90226470844814"/></g><g><path fill="none" stroke="#000000" paint-order="fill stroke markers" d=" M 163.9449275976234 182.77471820381052 L 168 193 L 172.362996903706 182.90226470844814 L 163.9449275976234 182.77471820381052" stroke-miterlimit="10" stroke-dasharray=""/></g><g><rect fill="#ffffff" stroke="none" x="176" y="176" width="59" height="26" transform="matrix(1 0 0 1 2 -38)"/></g><g><g><path fill="none" stroke="none"/><text fill="#000000" stroke="none" font-family="Arial" font-size="13px" font-style="normal" font-weight="normal" text-decoration="undefined" x="205.5" y="182.5" text-anchor="middle" dominant-baseline="central" transform="matrix(1 0 0 1 2 -38)">Make API</text><text fill="#000000" stroke="none" font-family="Arial" font-size="13px" font-style="normal" font-weight="normal" text-decoration="undefined" x="205.5" y="195.5" text-anchor="middle" dominant-baseline="central" transform="matrix(1 0 0 1 2 -38)">calls</text></g></g><g><rect fill="#ffffff" stroke="none" x="79" y="181" width="79.447265625" height="13" transform="matrix(1 0 0 1 2 -38)"/></g><g><g><path fill="none" stroke="none"/><text fill="#000000" stroke="none" font-family="Arial" font-size="13px" font-style="normal" font-weight="normal" text-decoration="undefined" x="118.7236328125" y="187.5" text-anchor="middle" dominant-baseline="central" transform="matrix(1 0 0 1 2 -38)">[HTTP/JSON]</text></g></g><g><path fill="none" stroke="#000000" paint-order="fill stroke markers" d=" M 141 339 L 97 465" stroke-miterlimit="10" stroke-dasharray="3"/></g><g><path fill="#000000" stroke="none" paint-order="stroke fill markers" d=" M 96.3762884573133 454.0176967847578 L 97 465 L 104.3246304152065 456.7933082621173"/></g><g><path fill="none" stroke="#000000" paint-order="fill stroke markers" d=" M 96.3762884573133 454.0176967847578 L 97 465 L 104.3246304152065 456.7933082621173 L 96.3762884573133 454.0176967847578" stroke-miterlimit="10" stroke-dasharray=""/></g><g><rect fill="#ffffff" stroke="none" x="59" y="446" width="37.578125" height="39" transform="matrix(1 0 0 1 2 -38)"/></g><g><g><path fill="none" stroke="none"/><text fill="#000000" stroke="none" font-family="Arial" font-size="13px" font-style="normal" font-weight="normal" text-decoration="undefined" x="77.7890625" y="452.5" text-anchor="middle" dominant-baseline="central" transform="matrix(1 0 0 1 2 -38)">Reads</text><text fill="#000000" stroke="none" font-family="Arial" font-size="13px" font-style="normal" font-weight="normal" text-decoration="undefined" x="77.7890625" y="465.5" text-anchor="middle" dominant-baseline="central" transform="matrix(1 0 0 1 2 -38)">and</text><text fill="#000000" stroke="none" font-family="Arial" font-size="13px" font-style="normal" font-weight="normal" text-decoration="undefined" x="77.7890625" y="478.5" text-anchor="middle" dominant-baseline="central" transform="matrix(1 0 0 1 2 -38)">writes</text></g></g><g><rect fill="#ffffff" stroke="none" x="49" y="430" width="63.5908203125" height="13" transform="matrix(1 0 0 1 2 -38)"/></g><g><g><path fill="none" stroke="none"/><text fill="#000000" stroke="none" font-family="Arial" font-size="13px" font-style="normal" font-weight="normal" text-decoration="undefined" x="80.79541015625" y="436.5" text-anchor="middle" dominant-baseline="central" transform="matrix(1 0 0 1 2 -38)">[Hibernate]</text></g></g><g><path fill="none" stroke="#000000" paint-order="fill stroke markers" d=" M 197 339 L 251 465" stroke-miterlimit="10" stroke-dasharray="3"/></g><g><path fill="#000000" stroke="none" paint-order="stroke fill markers" d=" M 243.12756892418167 457.31723819473166 L 251 465 L 250.8658835726114 454.00081763111893"/></g><g><path fill="none" stroke="#000000" paint-order="fill stroke markers" d=" M 243.12756892418167 457.31723819473166 L 251 465 L 250.8658835726114 454.00081763111893 L 243.12756892418167 457.31723819473166" stroke-miterlimit="10" stroke-dasharray=""/></g><g><rect fill="#ffffff" stroke="none" x="235" y="439" width="114" height="26" transform="matrix(1 0 0 1 2 -38)"/></g><g><g><path fill="none" stroke="none"/><text fill="#000000" stroke="none" font-family="Arial" font-size="13px" font-style="normal" font-weight="normal" text-decoration="undefined" x="292" y="445.5" text-anchor="middle" dominant-baseline="central" transform="matrix(1 0 0 1 2 -38)">Reads and writes</text><text fill="#000000" stroke="none" font-family="Arial" font-size="13px" font-style="normal" font-weight="normal" text-decoration="undefined" x="292" y="458.5" text-anchor="middle" dominant-baseline="central" transform="matrix(1 0 0 1 2 -38)">knowledge</text></g></g><g><rect fill="#ffffff" stroke="none" x="175" y="438" width="49.130859375" height="13" transform="matrix(1 0 0 1 2 -38)"/></g><g><g><path fill="none" stroke="none"/><text fill="#000000" stroke="none" font-family="Arial" font-size="13px" font-style="normal" font-weight="normal" text-decoration="undefined" x="199.5654296875" y="444.5" text-anchor="middle" dominant-baseline="central" transform="matrix(1 0 0 1 2 -38)">[Cypher]</text></g></g><g><path fill="none" stroke="#000000" paint-order="fill stroke markers" d=" M 314 261 L 450 261" stroke-miterlimit="10" stroke-dasharray="3"/></g><g><path fill="#000000" stroke="none" paint-order="stroke fill markers" d=" M 439.83732514237585 265.209517756016 L 450 261 L 439.83732514237585 256.790482243984"/></g><g><path fill="none" stroke="#000000" paint-order="fill stroke markers" d=" M 439.83732514237585 265.209517756016 L 450 261 L 439.83732514237585 256.790482243984 L 439.83732514237585 265.209517756016" stroke-miterlimit="10" stroke-dasharray=""/></g><g><rect fill="#ffffff" stroke="none" x="355" y="271" width="51.3017578125" height="26" transform="matrix(1 0 0 1 2 -38)"/></g><g><g><path fill="none" stroke="none"/><text fill="#000000" stroke="none" font-family="Arial" font-size="13px" font-style="normal" font-weight="normal" text-decoration="undefined" x="380.65087890625" y="277.5" text-anchor="middle" dominant-baseline="central" transform="matrix(1 0 0 1 2 -38)">Analyze</text><text fill="#000000" stroke="none" font-family="Arial" font-size="13px" font-style="normal" font-weight="normal" text-decoration="undefined" x="380.65087890625" y="290.5" text-anchor="middle" dominant-baseline="central" transform="matrix(1 0 0 1 2 -38)">fragment</text></g></g><g><path fill="#C0C0C0" stroke="none" paint-order="stroke fill markers" d=" M 455 345 L 586 345 Q 592 345 592 351 L 592 419 Q 592 425 586 425 L 455 425 Q 449 425 449 419 L 449 351 Q 449 345 455 345 Z" fill-opacity="0.2"/></g><g><path fill="#707070" stroke="none" paint-order="stroke fill markers" d=" M 448 338 L 579 338 Q 585 338 585 344 L 585 412 Q 585 418 579 418 L 448 418 Q 442 418 442 412 L 442 344 Q 442 338 448 338 Z"/></g><g><path fill="none" stroke="#000000" paint-order="fill stroke markers" d=" M 448 338 L 579 338 Q 585 338 585 344 L 585 412 Q 585 418 579 418 L 448 418 Q 442 418 442 412 L 442 344 Q 442 338 448 338 Z" stroke-miterlimit="10" stroke-dasharray=""/></g><g><g><path fill="none" stroke="none"/><text fill="#000000" stroke="none" font-family="Arial" font-size="13px" font-style="normal" font-weight="bold" text-decoration="undefined" x="511.5" y="390.5" text-anchor="middle" dominant-baseline="central" transform="matrix(1 0 0 1 2 -38)">OPAL</text></g></g><g><g><path fill="none" stroke="none"/><text fill="#000000" stroke="none" font-family="Arial" font-size="13px" font-style="normal" font-weight="normal" text-decoration="undefined" x="511.5" y="405.5" text-anchor="middle" dominant-baseline="central" transform="matrix(1 0 0 1 2 -38)">[Software System]</text></g></g><g><g><path fill="none" stroke="none"/><text fill="#000000" stroke="none" font-family="Arial" font-size="13px" font-style="normal" font-weight="normal" text-decoration="undefined" x="511.5" y="428.5" text-anchor="middle" dominant-baseline="central" transform="matrix(1 0 0 1 2 -38)">LMS</text></g></g><g><path fill="none" stroke="#000000" paint-order="fill stroke markers" d=" M 314 298 L 410 298 L 410 386 L 442 386" stroke-miterlimit="10" stroke-dasharray="3"/></g><g><path fill="#000000" stroke="none" paint-order="stroke fill markers" d=" M 431.83732514237585 390.209517756016 L 442 386 L 431.83732514237585 381.790482243984"/></g><g><path fill="none" stroke="#000000" paint-order="fill stroke markers" d=" M 431.83732514237585 390.209517756016 L 442 386 L 431.83732514237585 381.790482243984 L 431.83732514237585 390.209517756016" stroke-miterlimit="10" stroke-dasharray=""/></g><g><rect fill="#ffffff" stroke="none" x="408" y="352" width="96" height="13" transform="matrix(1 0 0 1 2 -38)"/></g><g><g><path fill="none" stroke="none"/><text fill="#000000" stroke="none" font-family="Arial" font-size="13px" font-style="normal" font-weight="normal" text-decoration="undefined" x="456" y="358.5" text-anchor="middle" dominant-baseline="central" transform="matrix(1 0 0 1 2 -38)">Export course</text></g></g></g></svg>