<svg version="1.1" xmlns="http://www.w3.org/2000/svg" xmlns:xlink="http://www.w3.org/1999/xlink" width="693" height="503"><defs/><g><g><rect fill="#C0C0C0" stroke="none" x="31" y="151" width="92.8" height="15" transform="matrix(1 0 0 1 -14 -6)" fill-opacity="0.2"/></g><g><rect fill="#C0C0C0" stroke="none" x="31" y="165" width="232" height="170" transform="matrix(1 0 0 1 -14 -6)" fill-opacity="0.2"/></g><g><rect fill="#ffffff" stroke="none" x="24" y="159" width="232" height="169" transform="matrix(1 0 0 1 -14 -6)"/></g><g><path fill="none" stroke="#000000" paint-order="fill stroke markers" d=" M 10 153 L 242 153 L 242 322 L 10 322 L 10 153 Z Z" stroke-miterlimit="10" stroke-dasharray=""/></g><g><rect fill="#ffffff" stroke="none" x="24" y="144" width="92.8" height="15" transform="matrix(1 0 0 1 -14 -6)"/></g><g><path fill="none" stroke="#000000" paint-order="fill stroke markers" d=" M 10 138 L 102.8 138 L 102.8 153 L 10 153 L 10 138 Z Z" stroke-miterlimit="10" stroke-dasharray=""/></g><g><rect fill="#ffffff" stroke="none" x="24" y="158" width="232" height="170" transform="matrix(1 0 0 1 -14 -6)"/></g><g><path fill="none" stroke="#000000" paint-order="fill stroke markers" d=" M 10 152 L 242 152 L 242 322 L 10 322 L 10 152 Z Z" stroke-miterlimit="10" stroke-dasharray=""/></g><g><g><path fill="none" stroke="none"/><text fill="#000000" stroke="none" font-family="Arial" font-size="13px" font-style="normal" font-weight="bold" text-decoration="undefined" x="140.5" y="172.5" text-anchor="middle" dominant-baseline="central" transform="matrix(1 0 0 1 -14 -6)">export</text></g></g><g><rect fill="#C0C0C0" stroke="none" x="503" y="151" width="80" height="15" transform="matrix(1 0 0 1 -14 -6)" fill-opacity="0.2"/></g><g><rect fill="#C0C0C0" stroke="none" x="503" y="165" width="200" height="194" transform="matrix(1 0 0 1 -14 -6)" fill-opacity="0.2"/></g><g><rect fill="#ffffff" stroke="none" x="496" y="159" width="200" height="193" transform="matrix(1 0 0 1 -14 -6)"/></g><g><path fill="none" stroke="#000000" paint-order="fill stroke markers" d=" M 482 153 L 682 153 L 682 346 L 482 346 L 482 153 Z Z" stroke-miterlimit="10" stroke-dasharray=""/></g><g><rect fill="#ffffff" stroke="none" x="496" y="144" width="80" height="15" transform="matrix(1 0 0 1 -14 -6)"/></g><g><path fill="none" stroke="#000000" paint-order="fill stroke markers" d=" M 482 138 L 562 138 L 562 153 L 482 153 L 482 138 Z Z" stroke-miterlimit="10" stroke-dasharray=""/></g><g><rect fill="#ffffff" stroke="none" x="496" y="158" width="200" height="194" transform="matrix(1 0 0 1 -14 -6)"/></g><g><path fill="none" stroke="#000000" paint-order="fill stroke markers" d=" M 482 152 L 682 152 L 682 346 L 482 346 L 482 152 Z Z" stroke-miterlimit="10" stroke-dasharray=""/></g><g><g><path fill="none" stroke="none"/><text fill="#000000" stroke="none" font-family="Arial" font-size="13px" font-style="normal" font-weight="bold" text-decoration="undefined" x="596.5" y="172.5" text-anchor="middle" dominant-baseline="central" transform="matrix(1 0 0 1 -14 -6)">material_assign</text></g></g><g><rect fill="#C0C0C0" stroke="none" x="303" y="151" width="60.80000000000001" height="15" transform="matrix(1 0 0 1 -14 -6)" fill-opacity="0.2"/></g><g><rect fill="#C0C0C0" stroke="none" x="303" y="165" width="152" height="122" transform="matrix(1 0 0 1 -14 -6)" fill-opacity="0.2"/></g><g><rect fill="#ffffff" stroke="none" x="296" y="159" width="152" height="121" transform="matrix(1 0 0 1 -14 -6)"/></g><g><path fill="none" stroke="#000000" paint-order="fill stroke markers" d=" M 282 153 L 434 153 L 434 274 L 282 274 L 282 153 Z Z" stroke-miterlimit="10" stroke-dasharray=""/></g><g><rect fill="#ffffff" stroke="none" x="296" y="144" width="60.80000000000001" height="15" transform="matrix(1 0 0 1 -14 -6)"/></g><g><path fill="none" stroke="#000000" paint-order="fill stroke markers" d=" M 282 138 L 342.8 138 L 342.8 153 L 282 153 L 282 138 Z Z" stroke-miterlimit="10" stroke-dasharray=""/></g><g><rect fill="#ffffff" stroke="none" x="296" y="158" width="152" height="122" transform="matrix(1 0 0 1 -14 -6)"/></g><g><path fill="none" stroke="#000000" paint-order="fill stroke markers" d=" M 282 152 L 434 152 L 434 274 L 282 274 L 282 152 Z Z" stroke-miterlimit="10" stroke-dasharray=""/></g><g><g><path fill="none" stroke="none"/><text fill="#000000" stroke="none" font-family="Arial" font-size="13px" font-style="normal" font-weight="bold" text-decoration="undefined" x="372.5" y="172.5" text-anchor="middle" dominant-baseline="central" transform="matrix(1 0 0 1 -14 -6)">parts</text></g></g><g><rect fill="#C0C0C0" stroke="none" x="207" y="23" width="60.0625" height="15" transform="matrix(1 0 0 1 -14 -6)" fill-opacity="0.2"/></g><g><rect fill="#C0C0C0" stroke="none" x="207" y="37" width="150.15625" height="41" transform="matrix(1 0 0 1 -14 -6)" fill-opacity="0.2"/></g><g><rect fill="#ffffff" stroke="none" x="200" y="31" width="150.15625" height="40" transform="matrix(1 0 0 1 -14 -6)"/></g><g><path fill="none" stroke="#000000" paint-order="fill stroke markers" d=" M 186 25 L 336.15625 25 L 336.15625 65 L 186 65 L 186 25 Z Z" stroke-miterlimit="10" stroke-dasharray=""/></g><g><rect fill="#ffffff" stroke="none" x="200" y="16" width="60.0625" height="15" transform="matrix(1 0 0 1 -14 -6)"/></g><g><path fill="none" stroke="#000000" paint-order="fill stroke markers" d=" M 186 10 L 246.0625 10 L 246.0625 25 L 186 25 L 186 10 Z Z" stroke-miterlimit="10" stroke-dasharray=""/></g><g><rect fill="#ffffff" stroke="none" x="200" y="30" width="150.15625" height="41" transform="matrix(1 0 0 1 -14 -6)"/></g><g><path fill="none" stroke="#000000" paint-order="fill stroke markers" d=" M 186 24 L 336.15625 24 L 336.15625 65 L 186 65 L 186 24 Z Z" stroke-miterlimit="10" stroke-dasharray=""/></g><g><g><path fill="none" stroke="none"/><text fill="#000000" stroke="none" font-family="Arial" font-size="13px" font-style="normal" font-weight="bold" text-decoration="undefined" x="275.578125" y="44.5" text-anchor="middle" dominant-baseline="central" transform="matrix(1 0 0 1 -14 -6)">finalization</text></g></g><g><g><path fill="none" stroke="none"/><text fill="#000000" stroke="none" font-family="Arial" font-size="13px" font-style="normal" font-weight="normal" text-decoration="undefined" x="275.578125" y="59.5" text-anchor="middle" dominant-baseline="central" transform="matrix(1 0 0 1 -14 -6)">(from materialgenerator)</text></g></g><g><path fill="none" stroke="#000000" paint-order="fill stroke markers" d=" M 82 138 L 82 114 L 258 114 L 258 65" stroke-miterlimit="10" stroke-dasharray=""/></g><g><path fill="#FFFFFF" stroke="none" paint-order="stroke fill markers" d=" M 251 72 C 251 68.1340064 254.13400639999998 65 258 65 C 261.8659936 65 265 68.1340064 265 72 C 265 75.8659936 261.8659936 79 258 79 C 254.13400639999998 79 251 75.8659936 251 72 Z"/></g><g><path fill="none" stroke="#000000" paint-order="fill stroke markers" d=" M 251 72 C 251 68.1340064 254.13400639999998 65 258 65 C 261.8659936 65 265 68.1340064 265 72 C 265 75.8659936 261.8659936 79 258 79 C 254.13400639999998 79 251 75.8659936 251 72 Z" stroke-miterlimit="10" stroke-dasharray=""/></g><g><path fill="none" stroke="#000000" paint-order="fill stroke markers" d=" M 258 79 L 258 65" stroke-miterlimit="10" stroke-dasharray=""/></g><g><path fill="none" stroke="#000000" paint-order="fill stroke markers" d=" M 265 72 L 251 72" stroke-miterlimit="10" stroke-dasharray=""/></g><g><path fill="none" stroke="#000000" paint-order="fill stroke markers" d=" M 506 138 L 506 114 L 258 114 L 258 65" stroke-miterlimit="10" stroke-dasharray=""/></g><g><path fill="#FFFFFF" stroke="none" paint-order="stroke fill markers" d=" M 251 72 C 251 68.1340064 254.13400639999998 65 258 65 C 261.8659936 65 265 68.1340064 265 72 C 265 75.8659936 261.8659936 79 258 79 C 254.13400639999998 79 251 75.8659936 251 72 Z"/></g><g><path fill="none" stroke="#000000" paint-order="fill stroke markers" d=" M 251 72 C 251 68.1340064 254.13400639999998 65 258 65 C 261.8659936 65 265 68.1340064 265 72 C 265 75.8659936 261.8659936 79 258 79 C 254.13400639999998 79 251 75.8659936 251 72 Z" stroke-miterlimit="10" stroke-dasharray=""/></g><g><path fill="none" stroke="#000000" paint-order="fill stroke markers" d=" M 258 79 L 258 65" stroke-miterlimit="10" stroke-dasharray=""/></g><g><path fill="none" stroke="#000000" paint-order="fill stroke markers" d=" M 265 72 L 251 72" stroke-miterlimit="10" stroke-dasharray=""/></g><g><path fill="none" stroke="#000000" paint-order="fill stroke markers" d=" M 314 138 L 314 114 L 258 114 L 258 65" stroke-miterlimit="10" stroke-dasharray=""/></g><g><path fill="#FFFFFF" stroke="none" paint-order="stroke fill markers" d=" M 251 72 C 251 68.1340064 254.13400639999998 65 258 65 C 261.8659936 65 265 68.1340064 265 72 C 265 75.8659936 261.8659936 79 258 79 C 254.13400639999998 79 251 75.8659936 251 72 Z"/></g><g><path fill="none" stroke="#000000" paint-order="fill stroke markers" d=" M 251 72 C 251 68.1340064 254.13400639999998 65 258 65 C 261.8659936 65 265 68.1340064 265 72 C 265 75.8659936 261.8659936 79 258 79 C 254.13400639999998 79 251 75.8659936 251 72 Z" stroke-miterlimit="10" stroke-dasharray=""/></g><g><path fill="none" stroke="#000000" paint-order="fill stroke markers" d=" M 258 79 L 258 65" stroke-miterlimit="10" stroke-dasharray=""/></g><g><path fill="none" stroke="#000000" paint-order="fill stroke markers" d=" M 265 72 L 251 72" stroke-miterlimit="10" stroke-dasharray=""/></g><g><rect fill="#C0C0C0" stroke="none" x="351" y="207" width="81.51904296875" height="60" transform="matrix(1 0 0 1 -14 -6)" fill-opacity="0.2"/></g><g><rect fill="#ffffff" stroke="none" x="344" y="200" width="81.51904296875" height="60" transform="matrix(1 0 0 1 -14 -6)"/></g><g><path fill="none" stroke="#000000" paint-order="fill stroke markers" d=" M 330 194 L 411.51904296875 194 L 411.51904296875 254 L 330 254 L 330 194 Z Z" stroke-miterlimit="10" stroke-dasharray=""/></g><g><path fill="none" stroke="#000000" paint-order="fill stroke markers" d=" M 330 234 L 412.51904296875 234" stroke-miterlimit="10" stroke-dasharray=""/></g><g><path fill="none" stroke="#000000" paint-order="fill stroke markers" d=" M 330 244 L 412.51904296875 244" stroke-miterlimit="10" stroke-dasharray=""/></g><g><g><path fill="none" stroke="none"/><text fill="#000000" stroke="none" font-family="Arial" font-size="13px" font-style="normal" font-weight="bold" text-decoration="undefined" x="385.259521484375" y="213.5" text-anchor="middle" dominant-baseline="central" transform="matrix(1 0 0 1 -14 -6)">RawCourse</text></g></g><g><g><path fill="none" stroke="none"/><text fill="#000000" stroke="none" font-family="Arial" font-size="13px" font-style="normal" font-weight="normal" text-decoration="undefined" x="385.259521484375" y="228.5" text-anchor="middle" dominant-baseline="central" transform="matrix(1 0 0 1 -14 -6)">(from parts)</text></g></g><g><rect fill="#C0C0C0" stroke="none" x="39" y="215" width="207.60888671875" height="58" transform="matrix(1 0 0 1 -14 -6)" fill-opacity="0.2"/></g><g><rect fill="#ffffff" stroke="none" x="32" y="208" width="207.60888671875" height="58" transform="matrix(1 0 0 1 -14 -6)"/></g><g><path fill="none" stroke="#000000" paint-order="fill stroke markers" d=" M 18 202 L 225.60888671875 202 L 225.60888671875 260 L 18 260 L 18 202 Z Z" stroke-miterlimit="10" stroke-dasharray=""/></g><g><path fill="none" stroke="#000000" paint-order="fill stroke markers" d=" M 18 227 L 226.60888671875 227" stroke-miterlimit="10" stroke-dasharray=""/></g><g><path fill="none" stroke="#000000" paint-order="fill stroke markers" d=" M 18 237 L 226.60888671875 237" stroke-miterlimit="10" stroke-dasharray=""/></g><g><g><path fill="none" stroke="none"/><text fill="#000000" stroke="none" font-family="Arial" font-size="13px" font-style="italic" font-weight="bold" text-decoration="undefined" x="136.304443359375" y="221.5" text-anchor="middle" dominant-baseline="central" transform="matrix(1 0 0 1 -14 -6)">Exporter</text></g></g><g><g><path fill="none" stroke="none"/><text fill="#000000" stroke="none" font-family="Arial" font-size="13px" font-style="normal" font-weight="normal" text-decoration="undefined" x="37" y="254.5" text-anchor="start" dominant-baseline="central" transform="matrix(1 0 0 1 -14 -6)">+export(course: RawCourse): void</text></g></g><g><rect fill="#C0C0C0" stroke="none" x="519" y="199" width="139.314453125" height="60" transform="matrix(1 0 0 1 -14 -6)" fill-opacity="0.2"/></g><g><rect fill="#ffffff" stroke="none" x="512" y="192" width="139.314453125" height="60" transform="matrix(1 0 0 1 -14 -6)"/></g><g><path fill="none" stroke="#000000" paint-order="fill stroke markers" d=" M 498 186 L 637.314453125 186 L 637.314453125 246 L 498 246 L 498 186 Z Z" stroke-miterlimit="10" stroke-dasharray=""/></g><g><path fill="none" stroke="#000000" paint-order="fill stroke markers" d=" M 498 226 L 638.314453125 226" stroke-miterlimit="10" stroke-dasharray=""/></g><g><path fill="none" stroke="#000000" paint-order="fill stroke markers" d=" M 498 236 L 638.314453125 236" stroke-miterlimit="10" stroke-dasharray=""/></g><g><g><path fill="none" stroke="none"/><text fill="#000000" stroke="none" font-family="Arial" font-size="13px" font-style="normal" font-weight="bold" text-decoration="undefined" x="582.1572265625" y="205.5" text-anchor="middle" dominant-baseline="central" transform="matrix(1 0 0 1 -14 -6)">MaterialAssigner</text></g></g><g><g><path fill="none" stroke="none"/><text fill="#000000" stroke="none" font-family="Arial" font-size="13px" font-style="normal" font-weight="normal" text-decoration="undefined" x="582.1572265625" y="220.5" text-anchor="middle" dominant-baseline="central" transform="matrix(1 0 0 1 -14 -6)">(from material_assign)</text></g></g><g><rect fill="#C0C0C0" stroke="none" x="511" y="287" width="173.314453125" height="64" transform="matrix(1 0 0 1 -14 -6)" fill-opacity="0.2"/></g><g><rect fill="#ffffff" stroke="none" x="504" y="280" width="173.314453125" height="64" transform="matrix(1 0 0 1 -14 -6)"/></g><g><path fill="none" stroke="#000000" paint-order="fill stroke markers" d=" M 490 274 L 663.314453125 274 L 663.314453125 338 L 490 338 L 490 274 Z Z" stroke-miterlimit="10" stroke-dasharray=""/></g><g><path fill="#ffffff" stroke="none" paint-order="stroke fill markers" d=" M 637.314453125 291 C 637.314453125 286.0294368 641.343889925 282 646.314453125 282 C 651.285016325 282 655.314453125 286.0294368 655.314453125 291 C 655.314453125 295.9705632 651.285016325 300 646.314453125 300 C 641.343889925 300 637.314453125 295.9705632 637.314453125 291 Z"/></g><g><path fill="none" stroke="#000000" paint-order="fill stroke markers" d=" M 637.314453125 291 C 637.314453125 286.0294368 641.343889925 282 646.314453125 282 C 651.285016325 282 655.314453125 286.0294368 655.314453125 291 C 655.314453125 295.9705632 651.285016325 300 646.314453125 300 C 641.343889925 300 637.314453125 295.9705632 637.314453125 291 Z" stroke-miterlimit="10" stroke-dasharray=""/></g><g><g><path fill="none" stroke="none"/><text fill="#000000" stroke="none" font-family="Arial" font-size="13px" font-style="normal" font-weight="bold" text-decoration="undefined" x="578.6572265625" y="293.5" text-anchor="middle" dominant-baseline="central" transform="matrix(1 0 0 1 -14 -6)">CriteriaSelector</text></g></g><g><g><path fill="none" stroke="none"/><text fill="#000000" stroke="none" font-family="Arial" font-size="13px" font-style="normal" font-weight="normal" text-decoration="undefined" x="578.6572265625" y="308.5" text-anchor="middle" dominant-baseline="central" transform="matrix(1 0 0 1 -14 -6)">(from material_assign)</text></g></g><g><path fill="none" stroke="#000000" paint-order="fill stroke markers" d=" M 570 246 L 570 274" stroke-miterlimit="10" stroke-dasharray="3"/></g><g><path fill="none" stroke="#000000" paint-order="fill stroke markers" d=" M 565.790482243984 263.83732514237585 L 570 274 L 574.209517756016 263.83732514237585" stroke-miterlimit="10" stroke-dasharray=""/></g><g><rect fill="#ffffff" stroke="none" x="596" y="259" width="35.419921875" height="13" transform="matrix(1 0 0 1 -14 -6)"/></g><g><g><path fill="none" stroke="none"/><text fill="#000000" stroke="none" font-family="Arial" font-size="13px" font-style="normal" font-weight="normal" text-decoration="undefined" x="613.7099609375" y="265.5" text-anchor="middle" dominant-baseline="central" transform="matrix(1 0 0 1 -14 -6)">«use»</text></g></g><g><path fill="none" stroke="#000000" paint-order="fill stroke markers" d=" M 226 236 L 330 236" stroke-miterlimit="10" stroke-dasharray="3"/></g><g><path fill="none" stroke="#000000" paint-order="fill stroke markers" d=" M 319.83732514237585 240.209517756016 L 330 236 L 319.83732514237585 231.790482243984" stroke-miterlimit="10" stroke-dasharray=""/></g><g><rect fill="#ffffff" stroke="none" x="275" y="218" width="35.419921875" height="13" transform="matrix(1 0 0 1 -14 -6)"/></g><g><g><path fill="none" stroke="none"/><text fill="#000000" stroke="none" font-family="Arial" font-size="13px" font-style="normal" font-weight="normal" text-decoration="undefined" x="292.7099609375" y="224.5" text-anchor="middle" dominant-baseline="central" transform="matrix(1 0 0 1 -14 -6)">«use»</text></g></g><g><rect fill="#C0C0C0" stroke="none" x="231" y="359" width="102.39999999999998" height="15" transform="matrix(1 0 0 1 -14 -6)" fill-opacity="0.2"/></g><g><rect fill="#C0C0C0" stroke="none" x="231" y="373" width="256" height="122" transform="matrix(1 0 0 1 -14 -6)" fill-opacity="0.2"/></g><g><rect fill="#ffffff" stroke="none" x="224" y="367" width="256" height="121" transform="matrix(1 0 0 1 -14 -6)"/></g><g><path fill="none" stroke="#000000" paint-order="fill stroke markers" d=" M 210 361 L 466 361 L 466 482 L 210 482 L 210 361 Z Z" stroke-miterlimit="10" stroke-dasharray=""/></g><g><rect fill="#ffffff" stroke="none" x="224" y="352" width="102.39999999999998" height="15" transform="matrix(1 0 0 1 -14 -6)"/></g><g><path fill="none" stroke="#000000" paint-order="fill stroke markers" d=" M 210 346 L 312.4 346 L 312.4 361 L 210 361 L 210 346 Z Z" stroke-miterlimit="10" stroke-dasharray=""/></g><g><rect fill="#ffffff" stroke="none" x="224" y="366" width="256" height="122" transform="matrix(1 0 0 1 -14 -6)"/></g><g><path fill="none" stroke="#000000" paint-order="fill stroke markers" d=" M 210 360 L 466 360 L 466 482 L 210 482 L 210 360 Z Z" stroke-miterlimit="10" stroke-dasharray=""/></g><g><g><path fill="none" stroke="none"/><text fill="#000000" stroke="none" font-family="Arial" font-size="13px" font-style="normal" font-weight="bold" text-decoration="undefined" x="352.5" y="380.5" text-anchor="middle" dominant-baseline="central" transform="matrix(1 0 0 1 -14 -6)">core</text></g></g><g><g><path fill="none" stroke="none"/><text fill="#000000" stroke="none" font-family="Arial" font-size="13px" font-style="normal" font-weight="normal" text-decoration="undefined" x="352.5" y="395.5" text-anchor="middle" dominant-baseline="central" transform="matrix(1 0 0 1 -14 -6)">(from materialgenerator)</text></g></g><g><rect fill="#C0C0C0" stroke="none" x="271" y="423" width="159.91259765625" height="50" transform="matrix(1 0 0 1 -14 -6)" fill-opacity="0.2"/></g><g><rect fill="#ffffff" stroke="none" x="264" y="416" width="159.91259765625" height="50" transform="matrix(1 0 0 1 -14 -6)"/></g><g><path fill="none" stroke="#000000" paint-order="fill stroke markers" d=" M 250 410 L 409.91259765625 410 L 409.91259765625 460 L 250 460 L 250 410 Z Z" stroke-miterlimit="10" stroke-dasharray=""/></g><g><path fill="none" stroke="#000000" paint-order="fill stroke markers" d=" M 250 450 L 410.91259765625 450" stroke-miterlimit="10" stroke-dasharray=""/></g><g><g><path fill="none" stroke="none"/><text fill="#000000" stroke="none" font-family="Arial" font-size="13px" font-style="italic" font-weight="bold" text-decoration="undefined" x="344.456298828125" y="429.5" text-anchor="middle" dominant-baseline="central" transform="matrix(1 0 0 1 -14 -6)">Course</text></g></g><g><g><path fill="none" stroke="none"/><text fill="#000000" stroke="none" font-family="Arial" font-size="13px" font-style="normal" font-weight="normal" text-decoration="undefined" x="344.456298828125" y="444.5" text-anchor="middle" dominant-baseline="central" transform="matrix(1 0 0 1 -14 -6)">(from core)</text></g></g><g><path fill="none" stroke="#000000" paint-order="fill stroke markers" d=" M 378 254 L 378 306 L 450 306 L 450 434 L 410 434" stroke-miterlimit="10" stroke-dasharray=""/></g><g><path fill="#FFFFFF" stroke="none" paint-order="stroke fill markers" d=" M 430.3253497152483 425.580964487968 L 410 434 L 430.3253497152483 442.419035512032"/></g><g><path fill="none" stroke="#000000" paint-order="fill stroke markers" d=" M 430.3253497152483 425.580964487968 L 410 434 L 430.3253497152483 442.419035512032 L 430.3253497152483 425.580964487968" stroke-miterlimit="10" stroke-dasharray=""/></g></g></svg>