<svg version="1.1" xmlns="http://www.w3.org/2000/svg" xmlns:xlink="http://www.w3.org/1999/xlink" width="761.88818359375" height="489"><defs/><g><g><rect fill="#C0C0C0" stroke="none" x="55" y="295" width="123.4326171875" height="45" transform="matrix(1 0 0 1 -6 -14)" fill-opacity="0.2"/></g><g><rect fill="#ffffff" stroke="none" x="48" y="288" width="123.4326171875" height="45" transform="matrix(1 0 0 1 -6 -14)"/></g><g><path fill="none" stroke="#000000" paint-order="fill stroke markers" d=" M 42 274 L 165.4326171875 274 L 165.4326171875 319 L 42 319 L 42 274 Z Z" stroke-miterlimit="10" stroke-dasharray=""/></g><g><path fill="none" stroke="#000000" paint-order="fill stroke markers" d=" M 42 299 L 166.4326171875 299" stroke-miterlimit="10" stroke-dasharray=""/></g><g><path fill="none" stroke="#000000" paint-order="fill stroke markers" d=" M 42 309 L 166.4326171875 309" stroke-miterlimit="10" stroke-dasharray=""/></g><g><g><path fill="none" stroke="none"/><text fill="#000000" stroke="none" font-family="Arial" font-size="13px" font-style="normal" font-weight="bold" text-decoration="undefined" x="110.21630859375" y="301.5" text-anchor="middle" dominant-baseline="central" transform="matrix(1 0 0 1 -6 -14)">TransferGenerator</text></g></g><g><rect fill="#C0C0C0" stroke="none" x="223" y="295" width="148.72802734375" height="45" transform="matrix(1 0 0 1 -6 -14)" fill-opacity="0.2"/></g><g><rect fill="#ffffff" stroke="none" x="216" y="288" width="148.72802734375" height="45" transform="matrix(1 0 0 1 -6 -14)"/></g><g><path fill="none" stroke="#000000" paint-order="fill stroke markers" d=" M 210 274 L 358.72802734375 274 L 358.72802734375 319 L 210 319 L 210 274 Z Z" stroke-miterlimit="10" stroke-dasharray=""/></g><g><path fill="none" stroke="#000000" paint-order="fill stroke markers" d=" M 210 299 L 359.72802734375 299" stroke-miterlimit="10" stroke-dasharray=""/></g><g><path fill="none" stroke="#000000" paint-order="fill stroke markers" d=" M 210 309 L 359.72802734375 309" stroke-miterlimit="10" stroke-dasharray=""/></g><g><g><path fill="none" stroke="none"/><text fill="#000000" stroke="none" font-family="Arial" font-size="13px" font-style="normal" font-weight="bold" text-decoration="undefined" x="290.864013671875" y="301.5" text-anchor="middle" dominant-baseline="central" transform="matrix(1 0 0 1 -6 -14)">AssessmentGenerator</text></g></g><g><rect fill="#C0C0C0" stroke="none" x="383" y="199" width="131.03076171875" height="71" transform="matrix(1 0 0 1 -6 -14)" fill-opacity="0.2"/></g><g><rect fill="#ffffff" stroke="none" x="376" y="192" width="131.03076171875" height="71" transform="matrix(1 0 0 1 -6 -14)"/></g><g><path fill="none" stroke="#000000" paint-order="fill stroke markers" d=" M 370 178 L 501.03076171875 178 L 501.03076171875 249 L 370 249 L 370 178 Z Z" stroke-miterlimit="10" stroke-dasharray=""/></g><g><path fill="none" stroke="#000000" paint-order="fill stroke markers" d=" M 370 216 L 502.03076171875 216" stroke-miterlimit="10" stroke-dasharray=""/></g><g><path fill="none" stroke="#000000" paint-order="fill stroke markers" d=" M 370 226 L 502.03076171875 226" stroke-miterlimit="10" stroke-dasharray=""/></g><g><g><path fill="none" stroke="none"/><text fill="#000000" stroke="none" font-family="Arial" font-size="13px" font-style="normal" font-weight="normal" text-decoration="undefined" x="442.015380859375" y="203.5" text-anchor="middle" dominant-baseline="central" transform="matrix(1 0 0 1 -6 -14)">«abstract»</text></g></g><g><g><path fill="none" stroke="none"/><text fill="#000000" stroke="none" font-family="Arial" font-size="13px" font-style="italic" font-weight="bold" text-decoration="undefined" x="442.015380859375" y="218.5" text-anchor="middle" dominant-baseline="central" transform="matrix(1 0 0 1 -6 -14)">SubGenerator</text></g></g><g><g><path fill="none" stroke="none"/><text fill="#000000" stroke="none" font-family="Arial" font-size="13px" font-style="normal" font-weight="normal" text-decoration="undefined" x="381" y="251.5" text-anchor="start" dominant-baseline="central" transform="matrix(1 0 0 1 -6 -14)">+generate(): Material</text></g></g><g><rect fill="#C0C0C0" stroke="none" x="55" y="39" width="208.37060546875" height="116" transform="matrix(1 0 0 1 -6 -14)" fill-opacity="0.2"/></g><g><rect fill="#ffffff" stroke="none" x="48" y="32" width="208.37060546875" height="116" transform="matrix(1 0 0 1 -6 -14)"/></g><g><path fill="none" stroke="#000000" paint-order="fill stroke markers" d=" M 42 18 L 250.37060546875 18 L 250.37060546875 134 L 42 134 L 42 18 Z Z" stroke-miterlimit="10" stroke-dasharray=""/></g><g><path fill="none" stroke="#000000" paint-order="fill stroke markers" d=" M 42 56 L 251.37060546875 56" stroke-miterlimit="10" stroke-dasharray=""/></g><g><path fill="none" stroke="#000000" paint-order="fill stroke markers" d=" M 42 66 L 251.37060546875 66" stroke-miterlimit="10" stroke-dasharray=""/></g><g><g><path fill="none" stroke="none"/><text fill="#000000" stroke="none" font-family="Arial" font-size="13px" font-style="normal" font-weight="normal" text-decoration="undefined" x="152.685302734375" y="43.5" text-anchor="middle" dominant-baseline="central" transform="matrix(1 0 0 1 -6 -14)">«abstract»</text></g></g><g><g><path fill="none" stroke="none"/><text fill="#000000" stroke="none" font-family="Arial" font-size="13px" font-style="italic" font-weight="bold" text-decoration="undefined" x="152.685302734375" y="58.5" text-anchor="middle" dominant-baseline="central" transform="matrix(1 0 0 1 -6 -14)">Generator</text></g></g><g><g><path fill="none" stroke="none"/><text fill="#000000" stroke="none" font-family="Arial" font-size="13px" font-style="normal" font-weight="normal" text-decoration="undefined" x="53" y="91.5" text-anchor="start" dominant-baseline="central" transform="matrix(1 0 0 1 -6 -14)">+input(input: GeneratorInput): void</text></g></g><g><g><path fill="none" stroke="none"/><text fill="#000000" stroke="none" font-family="Arial" font-size="13px" font-style="normal" font-weight="normal" text-decoration="undefined" x="53" y="106.5" text-anchor="start" dominant-baseline="central" transform="matrix(1 0 0 1 -6 -14)">+isReady(): boolean</text></g></g><g><g><path fill="none" stroke="none"/><text fill="#000000" stroke="none" font-family="Arial" font-size="13px" font-style="normal" font-weight="normal" text-decoration="undefined" x="53" y="121.5" text-anchor="start" dominant-baseline="central" transform="matrix(1 0 0 1 -6 -14)">+update(): void</text></g></g><g><g><path fill="none" stroke="none"/><text fill="#000000" stroke="none" font-family="Arial" font-size="13px" font-style="normal" font-weight="normal" text-decoration="undefined" x="53" y="136.5" text-anchor="start" dominant-baseline="central" transform="matrix(1 0 0 1 -6 -14)">+output(): GeneratorOutput</text></g></g><g><path fill="none" stroke="#000000" paint-order="fill stroke markers" d=" M 106 274 L 106 242 L 162 242 L 162 134" stroke-miterlimit="10" stroke-dasharray=""/></g><g><path fill="#FFFFFF" stroke="none" paint-order="stroke fill markers" d=" M 170.41903551203197 154.3253497152483 L 162 134 L 153.58096448796803 154.3253497152483"/></g><g><path fill="none" stroke="#000000" paint-order="fill stroke markers" d=" M 170.41903551203197 154.3253497152483 L 162 134 L 153.58096448796803 154.3253497152483 L 170.41903551203197 154.3253497152483" stroke-miterlimit="10" stroke-dasharray=""/></g><g><path fill="none" stroke="#000000" paint-order="fill stroke markers" d=" M 290 274 L 290 242 L 162 242 L 162 134" stroke-miterlimit="10" stroke-dasharray=""/></g><g><path fill="#FFFFFF" stroke="none" paint-order="stroke fill markers" d=" M 170.41903551203197 154.3253497152483 L 162 134 L 153.58096448796803 154.3253497152483"/></g><g><path fill="none" stroke="#000000" paint-order="fill stroke markers" d=" M 170.41903551203197 154.3253497152483 L 162 134 L 153.58096448796803 154.3253497152483 L 170.41903551203197 154.3253497152483" stroke-miterlimit="10" stroke-dasharray=""/></g><g><path fill="none" stroke="#000000" paint-order="fill stroke markers" d=" M 450 178 L 450 146 L 314 146 L 314 106 L 250 106" stroke-miterlimit="10" stroke-dasharray=""/></g><g><path fill="#FFFFFF" stroke="none" paint-order="stroke fill markers" d=" M 260.16267485762415 101.79048224398402 L 250 106 L 260.16267485762415 110.20951775601598 L 272 106"/></g><g><path fill="none" stroke="#000000" paint-order="fill stroke markers" d=" M 260.16267485762415 101.79048224398402 L 250 106 L 260.16267485762415 110.20951775601598 L 272 106 L 260.16267485762415 101.79048224398402" stroke-miterlimit="10" stroke-dasharray=""/></g><g><path fill="none" stroke="#000000" paint-order="fill stroke markers" d=" M 445.790482243984 167.83732514237585 L 450 178 L 454.209517756016 167.83732514237585" stroke-miterlimit="10" stroke-dasharray=""/></g><g><rect fill="#ffffff" stroke="none" x="415" y="168" width="35.0517578125" height="13" transform="matrix(1 0 0 1 -6 -14)"/></g><g><g><path fill="none" stroke="none"/><text fill="#000000" stroke="none" font-family="Arial" font-size="13px" font-style="normal" font-weight="normal" text-decoration="undefined" x="432.52587890625" y="174.5" text-anchor="middle" dominant-baseline="central" transform="matrix(1 0 0 1 -6 -14)">-subs</text></g></g><g><rect fill="#ffffff" stroke="none" x="464" y="168" width="19.5126953125" height="13" transform="matrix(1 0 0 1 -6 -14)"/></g><g><g><path fill="none" stroke="none"/><text fill="#000000" stroke="none" font-family="Arial" font-size="13px" font-style="normal" font-weight="normal" text-decoration="undefined" x="473.75634765625" y="174.5" text-anchor="middle" dominant-baseline="central" transform="matrix(1 0 0 1 -6 -14)">0..*</text></g></g><g><rect fill="#C0C0C0" stroke="none" x="447" y="343" width="88" height="58" transform="matrix(1 0 0 1 -6 -14)" fill-opacity="0.2"/></g><g><rect fill="#ffffff" stroke="none" x="440" y="336" width="88" height="58" transform="matrix(1 0 0 1 -6 -14)"/></g><g><path fill="none" stroke="#000000" paint-order="fill stroke markers" d=" M 434 322 L 522 322 L 522 380 L 434 380 L 434 322 Z Z" stroke-miterlimit="10" stroke-dasharray=""/></g><g><path fill="none" stroke="#000000" paint-order="fill stroke markers" d=" M 434 360 L 523 360" stroke-miterlimit="10" stroke-dasharray=""/></g><g><path fill="none" stroke="#000000" paint-order="fill stroke markers" d=" M 434 370 L 523 370" stroke-miterlimit="10" stroke-dasharray=""/></g><g><g><path fill="none" stroke="none"/><text fill="#000000" stroke="none" font-family="Arial" font-size="13px" font-style="normal" font-weight="normal" text-decoration="undefined" x="484.5" y="347.5" text-anchor="middle" dominant-baseline="central" transform="matrix(1 0 0 1 -6 -14)">«abstract»</text></g></g><g><g><path fill="none" stroke="none"/><text fill="#000000" stroke="none" font-family="Arial" font-size="13px" font-style="italic" font-weight="bold" text-decoration="undefined" x="484.5" y="362.5" text-anchor="middle" dominant-baseline="central" transform="matrix(1 0 0 1 -6 -14)">Assembler</text></g></g><g><rect fill="#C0C0C0" stroke="none" x="607" y="343" width="88" height="58" transform="matrix(1 0 0 1 -6 -14)" fill-opacity="0.2"/></g><g><rect fill="#ffffff" stroke="none" x="600" y="336" width="88" height="58" transform="matrix(1 0 0 1 -6 -14)"/></g><g><path fill="none" stroke="#000000" paint-order="fill stroke markers" d=" M 594 322 L 682 322 L 682 380 L 594 380 L 594 322 Z Z" stroke-miterlimit="10" stroke-dasharray=""/></g><g><path fill="none" stroke="#000000" paint-order="fill stroke markers" d=" M 594 360 L 683 360" stroke-miterlimit="10" stroke-dasharray=""/></g><g><path fill="none" stroke="#000000" paint-order="fill stroke markers" d=" M 594 370 L 683 370" stroke-miterlimit="10" stroke-dasharray=""/></g><g><g><path fill="none" stroke="none"/><text fill="#000000" stroke="none" font-family="Arial" font-size="13px" font-style="normal" font-weight="normal" text-decoration="undefined" x="644.5" y="347.5" text-anchor="middle" dominant-baseline="central" transform="matrix(1 0 0 1 -6 -14)">«abstract»</text></g></g><g><g><path fill="none" stroke="none"/><text fill="#000000" stroke="none" font-family="Arial" font-size="13px" font-style="italic" font-weight="bold" text-decoration="undefined" x="644.5" y="362.5" text-anchor="middle" dominant-baseline="central" transform="matrix(1 0 0 1 -6 -14)">Extractor</text></g></g><g><rect fill="#C0C0C0" stroke="none" x="647" y="175" width="116.88818359375" height="45" transform="matrix(1 0 0 1 -6 -14)" fill-opacity="0.2"/></g><g><rect fill="#ffffff" stroke="none" x="640" y="168" width="116.88818359375" height="45" transform="matrix(1 0 0 1 -6 -14)"/></g><g><path fill="none" stroke="#000000" paint-order="fill stroke markers" d=" M 634 154 L 750.88818359375 154 L 750.88818359375 199 L 634 199 L 634 154 Z Z" stroke-miterlimit="10" stroke-dasharray=""/></g><g><path fill="none" stroke="#000000" paint-order="fill stroke markers" d=" M 634 179 L 751.88818359375 179" stroke-miterlimit="10" stroke-dasharray=""/></g><g><path fill="none" stroke="#000000" paint-order="fill stroke markers" d=" M 634 189 L 751.88818359375 189" stroke-miterlimit="10" stroke-dasharray=""/></g><g><g><path fill="none" stroke="none"/><text fill="#000000" stroke="none" font-family="Arial" font-size="13px" font-style="normal" font-weight="bold" text-decoration="undefined" x="698.944091796875" y="181.5" text-anchor="middle" dominant-baseline="central" transform="matrix(1 0 0 1 -6 -14)">KnowledgeModel</text></g></g><g><path fill="none" stroke="#000000" paint-order="fill stroke markers" d=" M 682 344 L 698 344 L 698 199" stroke-miterlimit="10" stroke-dasharray="3"/></g><g><path fill="none" stroke="#000000" paint-order="fill stroke markers" d=" M 702.209517756016 209.16267485762415 L 698 199 L 693.790482243984 209.16267485762415" stroke-miterlimit="10" stroke-dasharray=""/></g><g><rect fill="#ffffff" stroke="none" x="710" y="312" width="35.419921875" height="13" transform="matrix(1 0 0 1 -6 -14)"/></g><g><g><path fill="none" stroke="none"/><text fill="#000000" stroke="none" font-family="Arial" font-size="13px" font-style="normal" font-weight="normal" text-decoration="undefined" x="727.7099609375" y="318.5" text-anchor="middle" dominant-baseline="central" transform="matrix(1 0 0 1 -6 -14)">«use»</text></g></g><g><path fill="none" stroke="#000000" paint-order="fill stroke markers" d=" M 482 322 L 482 249" stroke-miterlimit="10" stroke-dasharray=""/></g><g><path fill="#FFFFFF" stroke="none" paint-order="stroke fill markers" d=" M 490.419035512032 269.3253497152483 L 482 249 L 473.580964487968 269.3253497152483"/></g><g><path fill="none" stroke="#000000" paint-order="fill stroke markers" d=" M 490.419035512032 269.3253497152483 L 482 249 L 473.580964487968 269.3253497152483 L 490.419035512032 269.3253497152483" stroke-miterlimit="10" stroke-dasharray=""/></g><g><path fill="none" stroke="#000000" paint-order="fill stroke markers" d=" M 626 322 L 626 298 L 482 298 L 482 249" stroke-miterlimit="10" stroke-dasharray=""/></g><g><path fill="#FFFFFF" stroke="none" paint-order="stroke fill markers" d=" M 490.419035512032 269.3253497152483 L 482 249 L 473.580964487968 269.3253497152483"/></g><g><path fill="none" stroke="#000000" paint-order="fill stroke markers" d=" M 490.419035512032 269.3253497152483 L 482 249 L 473.580964487968 269.3253497152483 L 490.419035512032 269.3253497152483" stroke-miterlimit="10" stroke-dasharray=""/></g><g><rect fill="#C0C0C0" stroke="none" x="319" y="383" width="59.130859375" height="45" transform="matrix(1 0 0 1 -6 -14)" fill-opacity="0.2"/></g><g><rect fill="#ffffff" stroke="none" x="312" y="376" width="59.130859375" height="45" transform="matrix(1 0 0 1 -6 -14)"/></g><g><path fill="none" stroke="#000000" paint-order="fill stroke markers" d=" M 306 362 L 365.130859375 362 L 365.130859375 407 L 306 407 L 306 362 Z Z" stroke-miterlimit="10" stroke-dasharray=""/></g><g><path fill="none" stroke="#000000" paint-order="fill stroke markers" d=" M 306 387 L 366.130859375 387" stroke-miterlimit="10" stroke-dasharray=""/></g><g><path fill="none" stroke="#000000" paint-order="fill stroke markers" d=" M 306 397 L 366.130859375 397" stroke-miterlimit="10" stroke-dasharray=""/></g><g><g><path fill="none" stroke="none"/><text fill="#000000" stroke="none" font-family="Arial" font-size="13px" font-style="normal" font-weight="bold" text-decoration="undefined" x="342.0654296875" y="389.5" text-anchor="middle" dominant-baseline="central" transform="matrix(1 0 0 1 -6 -14)">Material</text></g></g><g><rect fill="#C0C0C0" stroke="none" x="439" y="39" width="103.89453125" height="45" transform="matrix(1 0 0 1 -6 -14)" fill-opacity="0.2"/></g><g><rect fill="#ffffff" stroke="none" x="432" y="32" width="103.89453125" height="45" transform="matrix(1 0 0 1 -6 -14)"/></g><g><path fill="none" stroke="#000000" paint-order="fill stroke markers" d=" M 426 18 L 529.89453125 18 L 529.89453125 63 L 426 63 L 426 18 Z Z" stroke-miterlimit="10" stroke-dasharray=""/></g><g><path fill="none" stroke="#000000" paint-order="fill stroke markers" d=" M 426 43 L 530.89453125 43" stroke-miterlimit="10" stroke-dasharray=""/></g><g><path fill="none" stroke="#000000" paint-order="fill stroke markers" d=" M 426 53 L 530.89453125 53" stroke-miterlimit="10" stroke-dasharray=""/></g><g><g><path fill="none" stroke="none"/><text fill="#000000" stroke="none" font-family="Arial" font-size="13px" font-style="normal" font-weight="bold" text-decoration="undefined" x="484.447265625" y="45.5" text-anchor="middle" dominant-baseline="central" transform="matrix(1 0 0 1 -6 -14)">GeneratorInput</text></g></g><g><path fill="none" stroke="#000000" paint-order="fill stroke markers" d=" M 482 63 L 482 106 L 546 106 L 546 178 L 634 178" stroke-miterlimit="10" stroke-dasharray=""/></g><g><path fill="none" stroke="#000000" paint-order="fill stroke markers" d=" M 623.8373251423759 182.209517756016 L 634 178 L 623.8373251423758 173.790482243984" stroke-miterlimit="10" stroke-dasharray=""/></g><g><rect fill="#ffffff" stroke="none" x="560" y="170" width="74.0771484375" height="13" transform="matrix(1 0 0 1 -6 -14)"/></g><g><g><path fill="none" stroke="none"/><text fill="#000000" stroke="none" font-family="Arial" font-size="13px" font-style="normal" font-weight="normal" text-decoration="undefined" x="597.03857421875" y="176.5" text-anchor="middle" dominant-baseline="central" transform="matrix(1 0 0 1 -6 -14)">-knowledge</text></g></g><g><rect fill="#ffffff" stroke="none" x="615" y="198" width="7.22998046875" height="13" transform="matrix(1 0 0 1 -6 -14)"/></g><g><g><path fill="none" stroke="none"/><text fill="#000000" stroke="none" font-family="Arial" font-size="13px" font-style="normal" font-weight="normal" text-decoration="undefined" x="618.614990234375" y="204.5" text-anchor="middle" dominant-baseline="central" transform="matrix(1 0 0 1 -6 -14)">1</text></g></g><g><rect fill="#C0C0C0" stroke="none" x="671" y="31" width="86.3369140625" height="45" transform="matrix(1 0 0 1 -6 -14)" fill-opacity="0.2"/></g><g><rect fill="#ffffff" stroke="none" x="664" y="24" width="86.3369140625" height="45" transform="matrix(1 0 0 1 -6 -14)"/></g><g><path fill="none" stroke="#000000" paint-order="fill stroke markers" d=" M 658 10 L 744.3369140625 10 L 744.3369140625 55 L 658 55 L 658 10 Z Z" stroke-miterlimit="10" stroke-dasharray=""/></g><g><path fill="none" stroke="#000000" paint-order="fill stroke markers" d=" M 658 35 L 745.3369140625 35" stroke-miterlimit="10" stroke-dasharray=""/></g><g><path fill="none" stroke="#000000" paint-order="fill stroke markers" d=" M 658 45 L 745.3369140625 45" stroke-miterlimit="10" stroke-dasharray=""/></g><g><g><path fill="none" stroke="none"/><text fill="#000000" stroke="none" font-family="Arial" font-size="13px" font-style="normal" font-weight="bold" text-decoration="undefined" x="707.66845703125" y="37.5" text-anchor="middle" dominant-baseline="central" transform="matrix(1 0 0 1 -6 -14)">TemplateSet</text></g></g><g><path fill="none" stroke="#000000" paint-order="fill stroke markers" d=" M 658 32 L 530 32" stroke-miterlimit="10" stroke-dasharray=""/></g><g><path fill="#FFFFFF" stroke="none" paint-order="stroke fill markers" d=" M 540.1626748576241 27.790482243984016 L 530 32 L 540.1626748576241 36.209517756015984 L 552 32"/></g><g><path fill="none" stroke="#000000" paint-order="fill stroke markers" d=" M 540.1626748576241 27.790482243984016 L 530 32 L 540.1626748576241 36.209517756015984 L 552 32 L 540.1626748576241 27.790482243984016" stroke-miterlimit="10" stroke-dasharray=""/></g><g><path fill="none" stroke="#000000" paint-order="fill stroke markers" d=" M 647.8373251423759 36.20951775601599 L 658 32 L 647.8373251423758 27.790482243984016" stroke-miterlimit="10" stroke-dasharray=""/></g><g><rect fill="#ffffff" stroke="none" x="584" y="54" width="76.96533203125" height="13" transform="matrix(1 0 0 1 -6 -14)"/></g><g><g><path fill="none" stroke="none"/><text fill="#000000" stroke="none" font-family="Arial" font-size="13px" font-style="normal" font-weight="normal" text-decoration="undefined" x="622.482666015625" y="60.5" text-anchor="middle" dominant-baseline="central" transform="matrix(1 0 0 1 -6 -14)">-templateSet</text></g></g><g><rect fill="#ffffff" stroke="none" x="639" y="27" width="7.22998046875" height="13" transform="matrix(1 0 0 1 -6 -14)"/></g><g><g><path fill="none" stroke="none"/><text fill="#000000" stroke="none" font-family="Arial" font-size="13px" font-style="normal" font-weight="normal" text-decoration="undefined" x="642.614990234375" y="33.5" text-anchor="middle" dominant-baseline="central" transform="matrix(1 0 0 1 -6 -14)">1</text></g></g><g><rect fill="#C0C0C0" stroke="none" x="671" y="95" width="82.24267578125" height="45" transform="matrix(1 0 0 1 -6 -14)" fill-opacity="0.2"/></g><g><rect fill="#ffffff" stroke="none" x="664" y="88" width="82.24267578125" height="45" transform="matrix(1 0 0 1 -6 -14)"/></g><g><path fill="none" stroke="#000000" paint-order="fill stroke markers" d=" M 658 74 L 740.24267578125 74 L 740.24267578125 119 L 658 119 L 658 74 Z Z" stroke-miterlimit="10" stroke-dasharray=""/></g><g><path fill="none" stroke="#000000" paint-order="fill stroke markers" d=" M 658 99 L 741.24267578125 99" stroke-miterlimit="10" stroke-dasharray=""/></g><g><path fill="none" stroke="#000000" paint-order="fill stroke markers" d=" M 658 109 L 741.24267578125 109" stroke-miterlimit="10" stroke-dasharray=""/></g><g><g><path fill="none" stroke="none"/><text fill="#000000" stroke="none" font-family="Arial" font-size="13px" font-style="normal" font-weight="bold" text-decoration="undefined" x="705.621337890625" y="101.5" text-anchor="middle" dominant-baseline="central" transform="matrix(1 0 0 1 -6 -14)">CoursePlan</text></g></g><g><path fill="none" stroke="#000000" paint-order="fill stroke markers" d=" M 658 98 L 570 98 L 570 50 L 530 50" stroke-miterlimit="10" stroke-dasharray=""/></g><g><path fill="#FFFFFF" stroke="none" paint-order="stroke fill markers" d=" M 540.1626748576241 45.790482243984016 L 530 50 L 540.1626748576241 54.209517756015984 L 552 50"/></g><g><path fill="none" stroke="#000000" paint-order="fill stroke markers" d=" M 540.1626748576241 45.790482243984016 L 530 50 L 540.1626748576241 54.209517756015984 L 552 50 L 540.1626748576241 45.790482243984016" stroke-miterlimit="10" stroke-dasharray=""/></g><g><path fill="none" stroke="#000000" paint-order="fill stroke markers" d=" M 647.8373251423759 102.20951775601598 L 658 98 L 647.8373251423758 93.79048224398402" stroke-miterlimit="10" stroke-dasharray=""/></g><g><rect fill="#ffffff" stroke="none" x="622" y="120" width="32.169921875" height="13" transform="matrix(1 0 0 1 -6 -14)"/></g><g><g><path fill="none" stroke="none"/><text fill="#000000" stroke="none" font-family="Arial" font-size="13px" font-style="normal" font-weight="normal" text-decoration="undefined" x="638.0849609375" y="126.5" text-anchor="middle" dominant-baseline="central" transform="matrix(1 0 0 1 -6 -14)">-plan</text></g></g><g><rect fill="#ffffff" stroke="none" x="639" y="93" width="7.22998046875" height="13" transform="matrix(1 0 0 1 -6 -14)"/></g><g><g><path fill="none" stroke="none"/><text fill="#000000" stroke="none" font-family="Arial" font-size="13px" font-style="normal" font-weight="normal" text-decoration="undefined" x="642.614990234375" y="99.5" text-anchor="middle" dominant-baseline="central" transform="matrix(1 0 0 1 -6 -14)">1</text></g></g><g><path fill="none" stroke="#000000" paint-order="fill stroke markers" d=" M 250 74 L 306 74 L 306 50 L 426 50" stroke-miterlimit="10" stroke-dasharray="3"/></g><g><path fill="none" stroke="#000000" paint-order="fill stroke markers" d=" M 415.83732514237585 54.209517756015984 L 426 50 L 415.83732514237585 45.790482243984016" stroke-miterlimit="10" stroke-dasharray=""/></g><g><rect fill="#ffffff" stroke="none" x="311" y="47" width="35.419921875" height="13" transform="matrix(1 0 0 1 -6 -14)"/></g><g><g><path fill="none" stroke="none"/><text fill="#000000" stroke="none" font-family="Arial" font-size="13px" font-style="normal" font-weight="normal" text-decoration="undefined" x="328.7099609375" y="53.5" text-anchor="middle" dominant-baseline="central" transform="matrix(1 0 0 1 -6 -14)">«use»</text></g></g><g><rect fill="#C0C0C0" stroke="none" x="39" y="391" width="114.7236328125" height="45" transform="matrix(1 0 0 1 -6 -14)" fill-opacity="0.2"/></g><g><rect fill="#ffffff" stroke="none" x="32" y="384" width="114.7236328125" height="45" transform="matrix(1 0 0 1 -6 -14)"/></g><g><path fill="none" stroke="#000000" paint-order="fill stroke markers" d=" M 26 370 L 140.7236328125 370 L 140.7236328125 415 L 26 415 L 26 370 Z Z" stroke-miterlimit="10" stroke-dasharray=""/></g><g><path fill="none" stroke="#000000" paint-order="fill stroke markers" d=" M 26 395 L 141.7236328125 395" stroke-miterlimit="10" stroke-dasharray=""/></g><g><path fill="none" stroke="#000000" paint-order="fill stroke markers" d=" M 26 405 L 141.7236328125 405" stroke-miterlimit="10" stroke-dasharray=""/></g><g><g><path fill="none" stroke="none"/><text fill="#000000" stroke="none" font-family="Arial" font-size="13px" font-style="normal" font-weight="bold" text-decoration="undefined" x="89.86181640625" y="397.5" text-anchor="middle" dominant-baseline="central" transform="matrix(1 0 0 1 -6 -14)">GeneratorOutput</text></g></g><g><path fill="none" stroke="#000000" paint-order="fill stroke markers" d=" M 306 378 L 141 378" stroke-miterlimit="10" stroke-dasharray=""/></g><g><path fill="#FFFFFF" stroke="none" paint-order="stroke fill markers" d=" M 151.16267485762415 373.790482243984 L 141 378 L 151.16267485762415 382.209517756016 L 163 378"/></g><g><path fill="none" stroke="#000000" paint-order="fill stroke markers" d=" M 151.16267485762415 373.790482243984 L 141 378 L 151.16267485762415 382.209517756016 L 163 378 L 151.16267485762415 373.790482243984" stroke-miterlimit="10" stroke-dasharray=""/></g><g><path fill="none" stroke="#000000" paint-order="fill stroke markers" d=" M 295.83732514237585 382.209517756016 L 306 378 L 295.83732514237585 373.790482243984" stroke-miterlimit="10" stroke-dasharray=""/></g><g><rect fill="#ffffff" stroke="none" x="240" y="375" width="60.328125" height="13" transform="matrix(1 0 0 1 -6 -14)"/></g><g><g><path fill="none" stroke="none"/><text fill="#000000" stroke="none" font-family="Arial" font-size="13px" font-style="normal" font-weight="normal" text-decoration="undefined" x="270.1640625" y="381.5" text-anchor="middle" dominant-baseline="central" transform="matrix(1 0 0 1 -6 -14)">-materials</text></g></g><g><rect fill="#ffffff" stroke="none" x="281" y="400" width="19.5126953125" height="13" transform="matrix(1 0 0 1 -6 -14)"/></g><g><g><path fill="none" stroke="none"/><text fill="#000000" stroke="none" font-family="Arial" font-size="13px" font-style="normal" font-weight="normal" text-decoration="undefined" x="290.75634765625" y="406.5" text-anchor="middle" dominant-baseline="central" transform="matrix(1 0 0 1 -6 -14)">0..*</text></g></g><g><rect fill="#C0C0C0" stroke="none" x="223" y="455" width="63.4345703125" height="45" transform="matrix(1 0 0 1 -6 -14)" fill-opacity="0.2"/></g><g><rect fill="#ffffff" stroke="none" x="216" y="448" width="63.4345703125" height="45" transform="matrix(1 0 0 1 -6 -14)"/></g><g><path fill="none" stroke="#000000" paint-order="fill stroke markers" d=" M 210 434 L 273.4345703125 434 L 273.4345703125 479 L 210 479 L 210 434 Z Z" stroke-miterlimit="10" stroke-dasharray=""/></g><g><path fill="none" stroke="#000000" paint-order="fill stroke markers" d=" M 210 459 L 274.4345703125 459" stroke-miterlimit="10" stroke-dasharray=""/></g><g><path fill="none" stroke="#000000" paint-order="fill stroke markers" d=" M 210 469 L 274.4345703125 469" stroke-miterlimit="10" stroke-dasharray=""/></g><g><g><path fill="none" stroke="none"/><text fill="#000000" stroke="none" font-family="Arial" font-size="13px" font-style="normal" font-weight="bold" text-decoration="undefined" x="248.21728515625" y="461.5" text-anchor="middle" dominant-baseline="central" transform="matrix(1 0 0 1 -6 -14)">Mapping</text></g></g><g><path fill="none" stroke="#000000" paint-order="fill stroke markers" d=" M 234 434 L 234 402 L 141 402" stroke-miterlimit="10" stroke-dasharray=""/></g><g><path fill="#FFFFFF" stroke="none" paint-order="stroke fill markers" d=" M 151.16267485762415 397.790482243984 L 141 402 L 151.16267485762415 406.209517756016 L 163 402"/></g><g><path fill="none" stroke="#000000" paint-order="fill stroke markers" d=" M 151.16267485762415 397.790482243984 L 141 402 L 151.16267485762415 406.209517756016 L 163 402 L 151.16267485762415 397.790482243984" stroke-miterlimit="10" stroke-dasharray=""/></g><g><path fill="none" stroke="#000000" paint-order="fill stroke markers" d=" M 229.790482243984 423.83732514237585 L 234 434 L 238.209517756016 423.83732514237585" stroke-miterlimit="10" stroke-dasharray=""/></g><g><rect fill="#ffffff" stroke="none" x="173" y="424" width="60.6962890625" height="13" transform="matrix(1 0 0 1 -6 -14)"/></g><g><g><path fill="none" stroke="none"/><text fill="#000000" stroke="none" font-family="Arial" font-size="13px" font-style="normal" font-weight="normal" text-decoration="undefined" x="203.34814453125" y="430.5" text-anchor="middle" dominant-baseline="central" transform="matrix(1 0 0 1 -6 -14)">-mappings</text></g></g><g><rect fill="#ffffff" stroke="none" x="248" y="424" width="19.5126953125" height="13" transform="matrix(1 0 0 1 -6 -14)"/></g><g><g><path fill="none" stroke="none"/><text fill="#000000" stroke="none" font-family="Arial" font-size="13px" font-style="normal" font-weight="normal" text-decoration="undefined" x="257.75634765625" y="430.5" text-anchor="middle" dominant-baseline="central" transform="matrix(1 0 0 1 -6 -14)">0..*</text></g></g><g><path fill="none" stroke="#000000" paint-order="fill stroke markers" d=" M 90 134 L 90 170 L 10 170 L 10 346 L 74 346 L 74 370" stroke-miterlimit="10" stroke-dasharray="3"/></g><g><path fill="none" stroke="#000000" paint-order="fill stroke markers" d=" M 69.79048224398402 359.83732514237585 L 74 370 L 78.20951775601598 359.83732514237585" stroke-miterlimit="10" stroke-dasharray=""/></g><g><rect fill="#ffffff" stroke="none" x="32" y="200" width="35.419921875" height="13" transform="matrix(1 0 0 1 -6 -14)"/></g><g><g><path fill="none" stroke="none"/><text fill="#000000" stroke="none" font-family="Arial" font-size="13px" font-style="normal" font-weight="normal" text-decoration="undefined" x="49.7099609375" y="206.5" text-anchor="middle" dominant-baseline="central" transform="matrix(1 0 0 1 -6 -14)">«use»</text></g></g><g><rect fill="#C0C0C0" stroke="none" x="431" y="439" width="135.72802734375" height="45" transform="matrix(1 0 0 1 -6 -14)" fill-opacity="0.2"/></g><g><rect fill="#ffffff" stroke="none" x="424" y="432" width="135.72802734375" height="45" transform="matrix(1 0 0 1 -6 -14)"/></g><g><path fill="none" stroke="#000000" paint-order="fill stroke markers" d=" M 418 418 L 553.72802734375 418 L 553.72802734375 463 L 418 463 L 418 418 Z Z" stroke-miterlimit="10" stroke-dasharray=""/></g><g><path fill="none" stroke="#000000" paint-order="fill stroke markers" d=" M 418 443 L 554.72802734375 443" stroke-miterlimit="10" stroke-dasharray=""/></g><g><path fill="none" stroke="#000000" paint-order="fill stroke markers" d=" M 418 453 L 554.72802734375 453" stroke-miterlimit="10" stroke-dasharray=""/></g><g><g><path fill="none" stroke="none"/><text fill="#000000" stroke="none" font-family="Arial" font-size="13px" font-style="normal" font-weight="bold" text-decoration="undefined" x="492.364013671875" y="445.5" text-anchor="middle" dominant-baseline="central" transform="matrix(1 0 0 1 -6 -14)">SummaryAssembler</text></g></g><g><rect fill="#C0C0C0" stroke="none" x="623" y="439" width="127.7744140625" height="45" transform="matrix(1 0 0 1 -6 -14)" fill-opacity="0.2"/></g><g><rect fill="#ffffff" stroke="none" x="616" y="432" width="127.7744140625" height="45" transform="matrix(1 0 0 1 -6 -14)"/></g><g><path fill="none" stroke="#000000" paint-order="fill stroke markers" d=" M 610 418 L 737.7744140625 418 L 737.7744140625 463 L 610 463 L 610 418 Z Z" stroke-miterlimit="10" stroke-dasharray=""/></g><g><path fill="none" stroke="#000000" paint-order="fill stroke markers" d=" M 610 443 L 738.7744140625 443" stroke-miterlimit="10" stroke-dasharray=""/></g><g><path fill="none" stroke="#000000" paint-order="fill stroke markers" d=" M 610 453 L 738.7744140625 453" stroke-miterlimit="10" stroke-dasharray=""/></g><g><g><path fill="none" stroke="none"/><text fill="#000000" stroke="none" font-family="Arial" font-size="13px" font-style="normal" font-weight="bold" text-decoration="undefined" x="680.38720703125" y="445.5" text-anchor="middle" dominant-baseline="central" transform="matrix(1 0 0 1 -6 -14)">TrueFalseExtractor</text></g></g><g><path fill="none" stroke="#000000" paint-order="fill stroke markers" d=" M 481 418 L 481 380" stroke-miterlimit="10" stroke-dasharray=""/></g><g><path fill="#FFFFFF" stroke="none" paint-order="stroke fill markers" d=" M 489.419035512032 400.3253497152483 L 481 380 L 472.580964487968 400.3253497152483"/></g><g><path fill="none" stroke="#000000" paint-order="fill stroke markers" d=" M 489.419035512032 400.3253497152483 L 481 380 L 472.580964487968 400.3253497152483 L 489.419035512032 400.3253497152483" stroke-miterlimit="10" stroke-dasharray=""/></g><g><path fill="none" stroke="#000000" paint-order="fill stroke markers" d=" M 649 418 L 649 380" stroke-miterlimit="10" stroke-dasharray=""/></g><g><path fill="#FFFFFF" stroke="none" paint-order="stroke fill markers" d=" M 657.419035512032 400.3253497152483 L 649 380 L 640.580964487968 400.3253497152483"/></g><g><path fill="none" stroke="#000000" paint-order="fill stroke markers" d=" M 657.419035512032 400.3253497152483 L 649 380 L 640.580964487968 400.3253497152483 L 657.419035512032 400.3253497152483" stroke-miterlimit="10" stroke-dasharray=""/></g><g><path fill="none" stroke="#000000" paint-order="fill stroke markers" d=" M 335 407 L 335 456 L 273 456" stroke-miterlimit="10" stroke-dasharray=""/></g><g><path fill="#FFFFFF" stroke="none" paint-order="stroke fill markers" d=" M 283.16267485762415 451.790482243984 L 273 456 L 283.16267485762415 460.209517756016 L 295 456"/></g><g><path fill="none" stroke="#000000" paint-order="fill stroke markers" d=" M 283.16267485762415 451.790482243984 L 273 456 L 283.16267485762415 460.209517756016 L 295 456 L 283.16267485762415 451.790482243984" stroke-miterlimit="10" stroke-dasharray=""/></g><g><path fill="none" stroke="#000000" paint-order="fill stroke markers" d=" M 339.209517756016 417.16267485762415 L 335 407 L 330.790482243984 417.16267485762415" stroke-miterlimit="10" stroke-dasharray=""/></g><g><rect fill="#ffffff" stroke="none" x="345" y="439" width="22.7626953125" height="13" transform="matrix(1 0 0 1 -6 -14)"/></g><g><g><path fill="none" stroke="none"/><text fill="#000000" stroke="none" font-family="Arial" font-size="13px" font-style="normal" font-weight="normal" text-decoration="undefined" x="356.38134765625" y="445.5" text-anchor="middle" dominant-baseline="central" transform="matrix(1 0 0 1 -6 -14)">-for</text></g></g><g><rect fill="#ffffff" stroke="none" x="325" y="440" width="7.22998046875" height="13" transform="matrix(1 0 0 1 -6 -14)"/></g><g><g><path fill="none" stroke="none"/><text fill="#000000" stroke="none" font-family="Arial" font-size="13px" font-style="normal" font-weight="normal" text-decoration="undefined" x="328.614990234375" y="446.5" text-anchor="middle" dominant-baseline="central" transform="matrix(1 0 0 1 -6 -14)">1</text></g></g></g></svg>