<svg version="1.1" xmlns="http://www.w3.org/2000/svg" xmlns:xlink="http://www.w3.org/1999/xlink" width="1331.97509765625" height="907"><defs/><g><g><rect fill="#C0C0C0" stroke="none" x="367" y="151" width="57.60000000000002" height="15" transform="matrix(1 0 0 1 407 313)" fill-opacity="0.2"/></g><g><rect fill="#C0C0C0" stroke="none" x="367" y="165" width="144" height="74" transform="matrix(1 0 0 1 407 313)" fill-opacity="0.2"/></g><g><rect fill="#ffffff" stroke="none" x="360" y="159" width="144" height="73" transform="matrix(1 0 0 1 407 313)"/></g><g><path fill="none" stroke="#000000" paint-order="fill stroke markers" d=" M 767 472 L 911 472 L 911 545 L 767 545 L 767 472 Z Z" stroke-miterlimit="10" stroke-dasharray=""/></g><g><rect fill="#ffffff" stroke="none" x="360" y="144" width="57.60000000000002" height="15" transform="matrix(1 0 0 1 407 313)"/></g><g><path fill="none" stroke="#000000" paint-order="fill stroke markers" d=" M 767 457 L 824.6 457 L 824.6 472 L 767 472 L 767 457 Z Z" stroke-miterlimit="10" stroke-dasharray=""/></g><g><rect fill="#ffffff" stroke="none" x="360" y="158" width="144" height="74" transform="matrix(1 0 0 1 407 313)"/></g><g><path fill="none" stroke="#000000" paint-order="fill stroke markers" d=" M 767 471 L 911 471 L 911 545 L 767 545 L 767 471 Z Z" stroke-miterlimit="10" stroke-dasharray=""/></g><g><g><path fill="none" stroke="none"/><text fill="#000000" stroke="none" font-family="Arial" font-size="13px" font-style="normal" font-weight="bold" text-decoration="undefined" x="432.5" y="172.5" text-anchor="middle" dominant-baseline="central" transform="matrix(1 0 0 1 407 313)">configuration</text></g></g><g><rect fill="#C0C0C0" stroke="none" x="199" y="279" width="118.39999999999998" height="15" transform="matrix(1 0 0 1 407 313)" fill-opacity="0.2"/></g><g><rect fill="#C0C0C0" stroke="none" x="199" y="293" width="296" height="298" transform="matrix(1 0 0 1 407 313)" fill-opacity="0.2"/></g><g><rect fill="#ffffff" stroke="none" x="192" y="287" width="296" height="297" transform="matrix(1 0 0 1 407 313)"/></g><g><path fill="none" stroke="#000000" paint-order="fill stroke markers" d=" M 599 600 L 895 600 L 895 897 L 599 897 L 599 600 Z Z" stroke-miterlimit="10" stroke-dasharray=""/></g><g><rect fill="#ffffff" stroke="none" x="192" y="272" width="118.39999999999998" height="15" transform="matrix(1 0 0 1 407 313)"/></g><g><path fill="none" stroke="#000000" paint-order="fill stroke markers" d=" M 599 585 L 717.4 585 L 717.4 600 L 599 600 L 599 585 Z Z" stroke-miterlimit="10" stroke-dasharray=""/></g><g><rect fill="#ffffff" stroke="none" x="192" y="286" width="296" height="298" transform="matrix(1 0 0 1 407 313)"/></g><g><path fill="none" stroke="#000000" paint-order="fill stroke markers" d=" M 599 599 L 895 599 L 895 897 L 599 897 L 599 599 Z Z" stroke-miterlimit="10" stroke-dasharray=""/></g><g><g><path fill="none" stroke="none"/><text fill="#000000" stroke="none" font-family="Arial" font-size="13px" font-style="normal" font-weight="bold" text-decoration="undefined" x="340.5" y="300.5" text-anchor="middle" dominant-baseline="central" transform="matrix(1 0 0 1 407 313)">generator</text></g></g><g><rect fill="#C0C0C0" stroke="none" x="575" y="151" width="73.60000000000002" height="15" transform="matrix(1 0 0 1 407 313)" fill-opacity="0.2"/></g><g><rect fill="#C0C0C0" stroke="none" x="575" y="165" width="184" height="138" transform="matrix(1 0 0 1 407 313)" fill-opacity="0.2"/></g><g><rect fill="#ffffff" stroke="none" x="568" y="159" width="184" height="137" transform="matrix(1 0 0 1 407 313)"/></g><g><path fill="none" stroke="#000000" paint-order="fill stroke markers" d=" M 975 472 L 1159 472 L 1159 609 L 975 609 L 975 472 Z Z" stroke-miterlimit="10" stroke-dasharray=""/></g><g><rect fill="#ffffff" stroke="none" x="568" y="144" width="73.60000000000002" height="15" transform="matrix(1 0 0 1 407 313)"/></g><g><path fill="none" stroke="#000000" paint-order="fill stroke markers" d=" M 975 457 L 1048.6 457 L 1048.6 472 L 975 472 L 975 457 Z Z" stroke-miterlimit="10" stroke-dasharray=""/></g><g><rect fill="#ffffff" stroke="none" x="568" y="158" width="184" height="138" transform="matrix(1 0 0 1 407 313)"/></g><g><path fill="none" stroke="#000000" paint-order="fill stroke markers" d=" M 975 471 L 1159 471 L 1159 609 L 975 609 L 975 471 Z Z" stroke-miterlimit="10" stroke-dasharray=""/></g><g><g><path fill="none" stroke="none"/><text fill="#000000" stroke="none" font-family="Arial" font-size="13px" font-style="normal" font-weight="bold" text-decoration="undefined" x="660.5" y="172.5" text-anchor="middle" dominant-baseline="central" transform="matrix(1 0 0 1 407 313)">material</text></g></g><g><rect fill="#C0C0C0" stroke="none" x="47" y="143" width="67.2" height="15" transform="matrix(1 0 0 1 407 313)" fill-opacity="0.2"/></g><g><rect fill="#C0C0C0" stroke="none" x="47" y="157" width="168" height="98" transform="matrix(1 0 0 1 407 313)" fill-opacity="0.2"/></g><g><rect fill="#ffffff" stroke="none" x="40" y="151" width="168" height="97" transform="matrix(1 0 0 1 407 313)"/></g><g><path fill="none" stroke="#000000" paint-order="fill stroke markers" d=" M 447 464 L 615 464 L 615 561 L 447 561 L 447 464 Z Z" stroke-miterlimit="10" stroke-dasharray=""/></g><g><rect fill="#ffffff" stroke="none" x="40" y="136" width="67.2" height="15" transform="matrix(1 0 0 1 407 313)"/></g><g><path fill="none" stroke="#000000" paint-order="fill stroke markers" d=" M 447 449 L 514.2 449 L 514.2 464 L 447 464 L 447 449 Z Z" stroke-miterlimit="10" stroke-dasharray=""/></g><g><rect fill="#ffffff" stroke="none" x="40" y="150" width="168" height="98" transform="matrix(1 0 0 1 407 313)"/></g><g><path fill="none" stroke="#000000" paint-order="fill stroke markers" d=" M 447 463 L 615 463 L 615 561 L 447 561 L 447 463 Z Z" stroke-miterlimit="10" stroke-dasharray=""/></g><g><g><path fill="none" stroke="none"/><text fill="#000000" stroke="none" font-family="Arial" font-size="13px" font-style="normal" font-weight="bold" text-decoration="undefined" x="124.5" y="164.5" text-anchor="middle" dominant-baseline="central" transform="matrix(1 0 0 1 407 313)">templates</text></g></g><g><rect fill="#C0C0C0" stroke="none" x="63" y="191" width="112" height="40" transform="matrix(1 0 0 1 407 313)" fill-opacity="0.2"/></g><g><rect fill="#ffffff" stroke="none" x="56" y="184" width="112" height="40" transform="matrix(1 0 0 1 407 313)"/></g><g><path fill="none" stroke="#000000" paint-order="fill stroke markers" d=" M 463 497 L 575 497 L 575 537 L 463 537 L 463 497 Z Z" stroke-miterlimit="10" stroke-dasharray=""/></g><g><g><path fill="none" stroke="none"/><text fill="#000000" stroke="none" font-family="Arial" font-size="13px" font-style="normal" font-weight="bold" text-decoration="undefined" x="112.5" y="197.5" text-anchor="middle" dominant-baseline="central" transform="matrix(1 0 0 1 407 313)">TemplateSet</text></g></g><g><rect fill="#C0C0C0" stroke="none" x="239" y="335" width="224" height="128" transform="matrix(1 0 0 1 407 313)" fill-opacity="0.2"/></g><g><rect fill="#ffffff" stroke="none" x="232" y="328" width="224" height="128" transform="matrix(1 0 0 1 407 313)"/></g><g><path fill="none" stroke="#000000" paint-order="fill stroke markers" d=" M 639 641 L 863 641 L 863 769 L 639 769 L 639 641 Z Z" stroke-miterlimit="10" stroke-dasharray=""/></g><g><path fill="#ffffff" stroke="none" paint-order="stroke fill markers" d=" M 837 658 C 837 653.0294368 841.0294368 649 846 649 C 850.9705632 649 855 653.0294368 855 658 C 855 662.9705632 850.9705632 667 846 667 C 841.0294368 667 837 662.9705632 837 658 Z"/></g><g><path fill="none" stroke="#000000" paint-order="fill stroke markers" d=" M 837 658 C 837 653.0294368 841.0294368 649 846 649 C 850.9705632 649 855 653.0294368 855 658 C 855 662.9705632 850.9705632 667 846 667 C 841.0294368 667 837 662.9705632 837 658 Z" stroke-miterlimit="10" stroke-dasharray=""/></g><g><path fill="none" stroke="#000000" paint-order="fill stroke markers" d=" M 639 675 L 864 675" stroke-miterlimit="10" stroke-dasharray=""/></g><g><g><path fill="none" stroke="none"/><text fill="#000000" stroke="none" font-family="Arial" font-size="13px" font-style="normal" font-weight="bold" text-decoration="undefined" x="332" y="341.5" text-anchor="middle" dominant-baseline="central" transform="matrix(1 0 0 1 407 313)">Generator</text></g></g><g><g><path fill="none" stroke="none"/><text fill="#000000" stroke="none" font-family="Arial" font-size="13px" font-style="normal" font-weight="normal" text-decoration="undefined" x="237" y="375.5" text-anchor="start" dominant-baseline="central" transform="matrix(1 0 0 1 407 313)">update(): boolean</text></g></g><g><g><path fill="none" stroke="none"/><text fill="#000000" stroke="none" font-family="Arial" font-size="13px" font-style="normal" font-weight="normal" text-decoration="undefined" x="237" y="390.5" text-anchor="start" dominant-baseline="central" transform="matrix(1 0 0 1 407 313)">createSimpleMaterial(): boolean</text></g></g><g><g><path fill="none" stroke="none"/><text fill="#000000" stroke="none" font-family="Arial" font-size="13px" font-style="normal" font-weight="normal" text-decoration="undefined" x="237" y="405.5" text-anchor="start" dominant-baseline="central" transform="matrix(1 0 0 1 407 313)">createComplexMaterial(): boolean</text></g></g><g><g><path fill="none" stroke="none"/><text fill="#000000" stroke="none" font-family="Arial" font-size="13px" font-style="normal" font-weight="normal" text-decoration="undefined" x="237" y="420.5" text-anchor="start" dominant-baseline="central" transform="matrix(1 0 0 1 407 313)">output(): GeneratorOutput</text></g></g><g><g><path fill="none" stroke="none"/><text fill="#000000" stroke="none" font-family="Arial" font-size="13px" font-style="normal" font-weight="normal" text-decoration="undefined" x="237" y="435.5" text-anchor="start" dominant-baseline="central" transform="matrix(1 0 0 1 407 313)">isReady(): boolean</text></g></g><g><path fill="#C0C0C0" stroke="none" paint-order="stroke fill markers" d=" M 654.4599609375 851.5 C 654.4599609375 840.7304464 663.1904073375 832 673.9599609375 832 C 684.7295145375 832 693.4599609375 840.7304464 693.4599609375 851.5 C 693.4599609375 862.2695536 684.7295145375 871 673.9599609375 871 C 663.1904073375 871 654.4599609375 862.2695536 654.4599609375 851.5 Z" fill-opacity="0.2"/></g><g><path fill="#ffffff" stroke="none" paint-order="stroke fill markers" d=" M 647.4599609375 844.5 C 647.4599609375 833.7304464 656.1904073375 825 666.9599609375 825 C 677.7295145375 825 686.4599609375 833.7304464 686.4599609375 844.5 C 686.4599609375 855.2695536 677.7295145375 864 666.9599609375 864 C 656.1904073375 864 647.4599609375 855.2695536 647.4599609375 844.5 Z"/></g><g><path fill="none" stroke="#000000" paint-order="fill stroke markers" d=" M 647.4599609375 844.5 C 647.4599609375 833.7304464 656.1904073375 825 666.9599609375 825 C 677.7295145375 825 686.4599609375 833.7304464 686.4599609375 844.5 C 686.4599609375 855.2695536 677.7295145375 864 666.9599609375 864 C 656.1904073375 864 647.4599609375 855.2695536 647.4599609375 844.5 Z" stroke-miterlimit="10" stroke-dasharray=""/></g><g><g><path fill="none" stroke="none"/><text fill="#000000" stroke="none" font-family="Arial" font-size="13px" font-style="normal" font-weight="bold" text-decoration="undefined" x="260.4599609375" y="564.5" text-anchor="middle" dominant-baseline="central" transform="matrix(1 0 0 1 407 313)">Extractor</text></g></g><g><path fill="#C0C0C0" stroke="none" paint-order="stroke fill markers" d=" M 774.4599609375 851.5 C 774.4599609375 840.7304464 783.1904073375 832 793.9599609375 832 C 804.7295145375 832 813.4599609375 840.7304464 813.4599609375 851.5 C 813.4599609375 862.2695536 804.7295145375 871 793.9599609375 871 C 783.1904073375 871 774.4599609375 862.2695536 774.4599609375 851.5 Z" fill-opacity="0.2"/></g><g><path fill="#ffffff" stroke="none" paint-order="stroke fill markers" d=" M 767.4599609375 844.5 C 767.4599609375 833.7304464 776.1904073375 825 786.9599609375 825 C 797.7295145375 825 806.4599609375 833.7304464 806.4599609375 844.5 C 806.4599609375 855.2695536 797.7295145375 864 786.9599609375 864 C 776.1904073375 864 767.4599609375 855.2695536 767.4599609375 844.5 Z"/></g><g><path fill="none" stroke="#000000" paint-order="fill stroke markers" d=" M 767.4599609375 844.5 C 767.4599609375 833.7304464 776.1904073375 825 786.9599609375 825 C 797.7295145375 825 806.4599609375 833.7304464 806.4599609375 844.5 C 806.4599609375 855.2695536 797.7295145375 864 786.9599609375 864 C 776.1904073375 864 767.4599609375 855.2695536 767.4599609375 844.5 Z" stroke-miterlimit="10" stroke-dasharray=""/></g><g><g><path fill="none" stroke="none"/><text fill="#000000" stroke="none" font-family="Arial" font-size="13px" font-style="normal" font-weight="bold" text-decoration="undefined" x="380.4599609375" y="564.5" text-anchor="middle" dominant-baseline="central" transform="matrix(1 0 0 1 407 313)">Assembler</text></g></g><g><path fill="none" stroke="#000000" paint-order="fill stroke markers" d=" M 671 825 L 671 769" stroke-miterlimit="10" stroke-dasharray=""/></g><g><path fill="#FFFFFF" stroke="none" paint-order="stroke fill markers" d=" M 675.209517756016 779.1626748576241 L 671 769 L 666.790482243984 779.1626748576241 L 671 791"/></g><g><path fill="none" stroke="#000000" paint-order="fill stroke markers" d=" M 675.209517756016 779.1626748576241 L 671 769 L 666.790482243984 779.1626748576241 L 671 791 L 675.209517756016 779.1626748576241" stroke-miterlimit="10" stroke-dasharray=""/></g><g><rect fill="#ffffff" stroke="none" x="273" y="496" width="6.5" height="13" transform="matrix(1 0 0 1 407 313)"/></g><g><g><path fill="none" stroke="none"/><text fill="#000000" stroke="none" font-family="Arial" font-size="13px" font-style="normal" font-weight="normal" text-decoration="undefined" x="276.25" y="502.5" text-anchor="middle" dominant-baseline="central" transform="matrix(1 0 0 1 407 313)">*</text></g></g><g><path fill="none" stroke="#000000" paint-order="fill stroke markers" d=" M 783 825 L 783 769" stroke-miterlimit="10" stroke-dasharray=""/></g><g><path fill="#FFFFFF" stroke="none" paint-order="stroke fill markers" d=" M 787.209517756016 779.1626748576241 L 783 769 L 778.790482243984 779.1626748576241 L 783 791"/></g><g><path fill="none" stroke="#000000" paint-order="fill stroke markers" d=" M 787.209517756016 779.1626748576241 L 783 769 L 778.790482243984 779.1626748576241 L 783 791 L 787.209517756016 779.1626748576241" stroke-miterlimit="10" stroke-dasharray=""/></g><g><rect fill="#ffffff" stroke="none" x="383" y="496" width="6.5" height="13" transform="matrix(1 0 0 1 407 313)"/></g><g><g><path fill="none" stroke="none"/><text fill="#000000" stroke="none" font-family="Arial" font-size="13px" font-style="normal" font-weight="normal" text-decoration="undefined" x="386.25" y="502.5" text-anchor="middle" dominant-baseline="central" transform="matrix(1 0 0 1 407 313)">*</text></g></g><g><rect fill="#C0C0C0" stroke="none" x="615" y="199" width="94.50634765625" height="25" transform="matrix(1 0 0 1 407 313)" fill-opacity="0.2"/></g><g><rect fill="#ffffff" stroke="none" x="608" y="192" width="94.50634765625" height="25" transform="matrix(1 0 0 1 407 313)"/></g><g><path fill="none" stroke="#000000" paint-order="fill stroke markers" d=" M 1015 505 L 1109.50634765625 505 L 1109.50634765625 530 L 1015 530 L 1015 505 Z Z" stroke-miterlimit="10" stroke-dasharray=""/></g><g><g><path fill="none" stroke="none"/><text fill="#000000" stroke="none" font-family="Arial" font-size="13px" font-style="normal" font-weight="bold" text-decoration="undefined" x="655.753173828125" y="205.5" text-anchor="middle" dominant-baseline="central" transform="matrix(1 0 0 1 407 313)">Material</text></g></g><g><path fill="none" stroke="#000000" paint-order="fill stroke markers" d=" M 863 657 L 1070 657 L 1070 530" stroke-miterlimit="10" stroke-dasharray="3"/></g><g><path fill="none" stroke="#000000" paint-order="fill stroke markers" d=" M 1074.2095177560159 540.1626748576241 L 1070 530 L 1065.7904822439841 540.1626748576241" stroke-miterlimit="10" stroke-dasharray=""/></g><g><rect fill="#ffffff" stroke="none" x="519" y="323" width="58.91259765625" height="13" transform="matrix(1 0 0 1 407 313)"/></g><g><g><path fill="none" stroke="none"/><text fill="#000000" stroke="none" font-family="Arial" font-size="13px" font-style="normal" font-weight="normal" text-decoration="undefined" x="548.456298828125" y="329.5" text-anchor="middle" dominant-baseline="central" transform="matrix(1 0 0 1 407 313)">+generate</text></g></g><g><rect fill="#C0C0C0" stroke="none" x="392" y="199" width="95.20458984375" height="25" transform="matrix(1 0 0 1 407 313)" fill-opacity="0.2"/></g><g><rect fill="#ffffff" stroke="none" x="385" y="192" width="95.20458984375" height="25" transform="matrix(1 0 0 1 407 313)"/></g><g><path fill="none" stroke="#000000" paint-order="fill stroke markers" d=" M 792 505 L 887.20458984375 505 L 887.20458984375 530 L 792 530 L 792 505 Z Z" stroke-miterlimit="10" stroke-dasharray=""/></g><g><g><path fill="none" stroke="none"/><text fill="#000000" stroke="none" font-family="Arial" font-size="13px" font-style="normal" font-weight="bold" text-decoration="undefined" x="433.102294921875" y="205.5" text-anchor="middle" dominant-baseline="central" transform="matrix(1 0 0 1 407 313)">Configuration</text></g></g><g><path fill="none" stroke="#000000" paint-order="fill stroke markers" d=" M 887 521 L 1015 521" stroke-miterlimit="10" stroke-dasharray=""/></g><g><path fill="#FFFFFF" stroke="none" paint-order="stroke fill markers" d=" M 1004.8373251423759 525.209517756016 L 1015 521 L 1004.8373251423758 516.790482243984 L 993 521"/></g><g><path fill="none" stroke="#000000" paint-order="fill stroke markers" d=" M 1004.8373251423759 525.209517756016 L 1015 521 L 1004.8373251423758 516.790482243984 L 993 521 L 1004.8373251423759 525.209517756016" stroke-miterlimit="10" stroke-dasharray=""/></g><g><rect fill="#ffffff" stroke="none" x="483" y="184" width="42.28173828125" height="13" transform="matrix(1 0 0 1 407 313)"/></g><g><g><path fill="none" stroke="none"/><text fill="#000000" stroke="none" font-family="Arial" font-size="13px" font-style="normal" font-weight="normal" text-decoration="undefined" x="504.140869140625" y="190.5" text-anchor="middle" dominant-baseline="central" transform="matrix(1 0 0 1 407 313)">+config</text></g></g><g><rect fill="#ffffff" stroke="none" x="491" y="216" width="21.68359375" height="13" transform="matrix(1 0 0 1 407 313)"/></g><g><g><path fill="none" stroke="none"/><text fill="#000000" stroke="none" font-family="Arial" font-size="13px" font-style="normal" font-weight="normal" text-decoration="undefined" x="501.841796875" y="222.5" text-anchor="middle" dominant-baseline="central" transform="matrix(1 0 0 1 407 313)">0..1</text></g></g><g><rect fill="#C0C0C0" stroke="none" x="295" y="31" width="60.0625" height="15" transform="matrix(1 0 0 1 407 313)" fill-opacity="0.2"/></g><g><rect fill="#C0C0C0" stroke="none" x="295" y="45" width="150.15625" height="41" transform="matrix(1 0 0 1 407 313)" fill-opacity="0.2"/></g><g><rect fill="#ffffff" stroke="none" x="288" y="39" width="150.15625" height="40" transform="matrix(1 0 0 1 407 313)"/></g><g><path fill="none" stroke="#000000" paint-order="fill stroke markers" d=" M 695 352 L 845.15625 352 L 845.15625 392 L 695 392 L 695 352 Z Z" stroke-miterlimit="10" stroke-dasharray=""/></g><g><rect fill="#ffffff" stroke="none" x="288" y="24" width="60.0625" height="15" transform="matrix(1 0 0 1 407 313)"/></g><g><path fill="none" stroke="#000000" paint-order="fill stroke markers" d=" M 695 337 L 755.0625 337 L 755.0625 352 L 695 352 L 695 337 Z Z" stroke-miterlimit="10" stroke-dasharray=""/></g><g><rect fill="#ffffff" stroke="none" x="288" y="38" width="150.15625" height="41" transform="matrix(1 0 0 1 407 313)"/></g><g><path fill="none" stroke="#000000" paint-order="fill stroke markers" d=" M 695 351 L 845.15625 351 L 845.15625 392 L 695 392 L 695 351 Z Z" stroke-miterlimit="10" stroke-dasharray=""/></g><g><g><path fill="none" stroke="none"/><text fill="#000000" stroke="none" font-family="Arial" font-size="13px" font-style="normal" font-weight="bold" text-decoration="undefined" x="363.578125" y="52.5" text-anchor="middle" dominant-baseline="central" transform="matrix(1 0 0 1 407 313)">generation</text></g></g><g><g><path fill="none" stroke="none"/><text fill="#000000" stroke="none" font-family="Arial" font-size="13px" font-style="normal" font-weight="normal" text-decoration="undefined" x="363.578125" y="67.5" text-anchor="middle" dominant-baseline="central" transform="matrix(1 0 0 1 407 313)">(from materialgenerator)</text></g></g><g><path fill="none" stroke="#000000" paint-order="fill stroke markers" d=" M 655 585 L 655 425 L 799 425 L 799 392" stroke-miterlimit="10" stroke-dasharray=""/></g><g><path fill="#FFFFFF" stroke="none" paint-order="stroke fill markers" d=" M 792 399 C 792 395.1340064 795.1340064 392 799 392 C 802.8659936 392 806 395.1340064 806 399 C 806 402.8659936 802.8659936 406 799 406 C 795.1340064 406 792 402.8659936 792 399 Z"/></g><g><path fill="none" stroke="#000000" paint-order="fill stroke markers" d=" M 792 399 C 792 395.1340064 795.1340064 392 799 392 C 802.8659936 392 806 395.1340064 806 399 C 806 402.8659936 802.8659936 406 799 406 C 795.1340064 406 792 402.8659936 792 399 Z" stroke-miterlimit="10" stroke-dasharray=""/></g><g><path fill="none" stroke="#000000" paint-order="fill stroke markers" d=" M 799 406 L 799 392" stroke-miterlimit="10" stroke-dasharray=""/></g><g><path fill="none" stroke="#000000" paint-order="fill stroke markers" d=" M 806 399 L 792 399" stroke-miterlimit="10" stroke-dasharray=""/></g><g><path fill="none" stroke="#000000" paint-order="fill stroke markers" d=" M 487 449 L 487 425 L 799 425 L 799 392" stroke-miterlimit="10" stroke-dasharray=""/></g><g><path fill="#FFFFFF" stroke="none" paint-order="stroke fill markers" d=" M 792 399 C 792 395.1340064 795.1340064 392 799 392 C 802.8659936 392 806 395.1340064 806 399 C 806 402.8659936 802.8659936 406 799 406 C 795.1340064 406 792 402.8659936 792 399 Z"/></g><g><path fill="none" stroke="#000000" paint-order="fill stroke markers" d=" M 792 399 C 792 395.1340064 795.1340064 392 799 392 C 802.8659936 392 806 395.1340064 806 399 C 806 402.8659936 802.8659936 406 799 406 C 795.1340064 406 792 402.8659936 792 399 Z" stroke-miterlimit="10" stroke-dasharray=""/></g><g><path fill="none" stroke="#000000" paint-order="fill stroke markers" d=" M 799 406 L 799 392" stroke-miterlimit="10" stroke-dasharray=""/></g><g><path fill="none" stroke="#000000" paint-order="fill stroke markers" d=" M 806 399 L 792 399" stroke-miterlimit="10" stroke-dasharray=""/></g><g><path fill="none" stroke="#000000" paint-order="fill stroke markers" d=" M 799 457 L 799 392" stroke-miterlimit="10" stroke-dasharray=""/></g><g><path fill="#FFFFFF" stroke="none" paint-order="stroke fill markers" d=" M 792 399 C 792 395.1340064 795.1340064 392 799 392 C 802.8659936 392 806 395.1340064 806 399 C 806 402.8659936 802.8659936 406 799 406 C 795.1340064 406 792 402.8659936 792 399 Z"/></g><g><path fill="none" stroke="#000000" paint-order="fill stroke markers" d=" M 792 399 C 792 395.1340064 795.1340064 392 799 392 C 802.8659936 392 806 395.1340064 806 399 C 806 402.8659936 802.8659936 406 799 406 C 795.1340064 406 792 402.8659936 792 399 Z" stroke-miterlimit="10" stroke-dasharray=""/></g><g><path fill="none" stroke="#000000" paint-order="fill stroke markers" d=" M 799 406 L 799 392" stroke-miterlimit="10" stroke-dasharray=""/></g><g><path fill="none" stroke="#000000" paint-order="fill stroke markers" d=" M 806 399 L 792 399" stroke-miterlimit="10" stroke-dasharray=""/></g><g><path fill="none" stroke="#000000" paint-order="fill stroke markers" d=" M 1015 457 L 1015 425 L 799 425 L 799 392" stroke-miterlimit="10" stroke-dasharray=""/></g><g><path fill="#FFFFFF" stroke="none" paint-order="stroke fill markers" d=" M 792 399 C 792 395.1340064 795.1340064 392 799 392 C 802.8659936 392 806 395.1340064 806 399 C 806 402.8659936 802.8659936 406 799 406 C 795.1340064 406 792 402.8659936 792 399 Z"/></g><g><path fill="none" stroke="#000000" paint-order="fill stroke markers" d=" M 792 399 C 792 395.1340064 795.1340064 392 799 392 C 802.8659936 392 806 395.1340064 806 399 C 806 402.8659936 802.8659936 406 799 406 C 795.1340064 406 792 402.8659936 792 399 Z" stroke-miterlimit="10" stroke-dasharray=""/></g><g><path fill="none" stroke="#000000" paint-order="fill stroke markers" d=" M 799 406 L 799 392" stroke-miterlimit="10" stroke-dasharray=""/></g><g><path fill="none" stroke="#000000" paint-order="fill stroke markers" d=" M 806 399 L 792 399" stroke-miterlimit="10" stroke-dasharray=""/></g><g><rect fill="#C0C0C0" stroke="none" x="575" y="367" width="64" height="15" transform="matrix(1 0 0 1 407 313)" fill-opacity="0.2"/></g><g><rect fill="#C0C0C0" stroke="none" x="575" y="381" width="160" height="122" transform="matrix(1 0 0 1 407 313)" fill-opacity="0.2"/></g><g><rect fill="#ffffff" stroke="none" x="568" y="375" width="160" height="121" transform="matrix(1 0 0 1 407 313)"/></g><g><path fill="none" stroke="#000000" paint-order="fill stroke markers" d=" M 975 688 L 1135 688 L 1135 809 L 975 809 L 975 688 Z Z" stroke-miterlimit="10" stroke-dasharray=""/></g><g><rect fill="#ffffff" stroke="none" x="568" y="360" width="64" height="15" transform="matrix(1 0 0 1 407 313)"/></g><g><path fill="none" stroke="#000000" paint-order="fill stroke markers" d=" M 975 673 L 1039 673 L 1039 688 L 975 688 L 975 673 Z Z" stroke-miterlimit="10" stroke-dasharray=""/></g><g><rect fill="#ffffff" stroke="none" x="568" y="374" width="160" height="122" transform="matrix(1 0 0 1 407 313)"/></g><g><path fill="none" stroke="#000000" paint-order="fill stroke markers" d=" M 975 687 L 1135 687 L 1135 809 L 975 809 L 975 687 Z Z" stroke-miterlimit="10" stroke-dasharray=""/></g><g><g><path fill="none" stroke="none"/><text fill="#000000" stroke="none" font-family="Arial" font-size="13px" font-style="normal" font-weight="bold" text-decoration="undefined" x="648.5" y="388.5" text-anchor="middle" dominant-baseline="central" transform="matrix(1 0 0 1 407 313)">courseplan</text></g></g><g><g><path fill="none" stroke="none"/><text fill="#000000" stroke="none" font-family="Arial" font-size="13px" font-style="normal" font-weight="normal" text-decoration="undefined" x="648.5" y="403.5" text-anchor="middle" dominant-baseline="central" transform="matrix(1 0 0 1 407 313)">(from core)</text></g></g><g><rect fill="#C0C0C0" stroke="none" x="591" y="431" width="128" height="32" transform="matrix(1 0 0 1 407 313)" fill-opacity="0.2"/></g><g><rect fill="#ffffff" stroke="none" x="584" y="424" width="128" height="32" transform="matrix(1 0 0 1 407 313)"/></g><g><path fill="none" stroke="#000000" paint-order="fill stroke markers" d=" M 991 737 L 1119 737 L 1119 769 L 991 769 L 991 737 Z Z" stroke-miterlimit="10" stroke-dasharray=""/></g><g><g><path fill="none" stroke="none"/><text fill="#000000" stroke="none" font-family="Arial" font-size="13px" font-style="normal" font-weight="bold" text-decoration="undefined" x="648.5" y="437.5" text-anchor="middle" dominant-baseline="central" transform="matrix(1 0 0 1 407 313)">CoursePlan</text></g></g><g><path fill="none" stroke="#000000" paint-order="fill stroke markers" d=" M 863 745 L 991 745" stroke-miterlimit="10" stroke-dasharray="3"/></g><g><path fill="none" stroke="#000000" paint-order="fill stroke markers" d=" M 980.8373251423759 749.209517756016 L 991 745 L 980.8373251423758 740.790482243984" stroke-miterlimit="10" stroke-dasharray=""/></g><g><rect fill="#ffffff" stroke="none" x="503" y="396" width="35.419921875" height="13" transform="matrix(1 0 0 1 407 313)"/></g><g><g><path fill="none" stroke="none"/><text fill="#000000" stroke="none" font-family="Arial" font-size="13px" font-style="normal" font-weight="normal" text-decoration="undefined" x="520.7099609375" y="402.5" text-anchor="middle" dominant-baseline="central" transform="matrix(1 0 0 1 407 313)">«use»</text></g></g><g><rect fill="#C0C0C0" stroke="none" x="23" y="383" width="67.2" height="15" transform="matrix(1 0 0 1 407 313)" fill-opacity="0.2"/></g><g><rect fill="#C0C0C0" stroke="none" x="23" y="397" width="168" height="122" transform="matrix(1 0 0 1 407 313)" fill-opacity="0.2"/></g><g><rect fill="#ffffff" stroke="none" x="16" y="391" width="168" height="121" transform="matrix(1 0 0 1 407 313)"/></g><g><path fill="none" stroke="#000000" paint-order="fill stroke markers" d=" M 423 704 L 591 704 L 591 825 L 423 825 L 423 704 Z Z" stroke-miterlimit="10" stroke-dasharray=""/></g><g><rect fill="#ffffff" stroke="none" x="16" y="376" width="67.2" height="15" transform="matrix(1 0 0 1 407 313)"/></g><g><path fill="none" stroke="#000000" paint-order="fill stroke markers" d=" M 423 689 L 490.2 689 L 490.2 704 L 423 704 L 423 689 Z Z" stroke-miterlimit="10" stroke-dasharray=""/></g><g><rect fill="#ffffff" stroke="none" x="16" y="390" width="168" height="122" transform="matrix(1 0 0 1 407 313)"/></g><g><path fill="none" stroke="#000000" paint-order="fill stroke markers" d=" M 423 703 L 591 703 L 591 825 L 423 825 L 423 703 Z Z" stroke-miterlimit="10" stroke-dasharray=""/></g><g><g><path fill="none" stroke="none"/><text fill="#000000" stroke="none" font-family="Arial" font-size="13px" font-style="normal" font-weight="bold" text-decoration="undefined" x="100.5" y="404.5" text-anchor="middle" dominant-baseline="central" transform="matrix(1 0 0 1 407 313)">knowledgemodel</text></g></g><g><g><path fill="none" stroke="none"/><text fill="#000000" stroke="none" font-family="Arial" font-size="13px" font-style="normal" font-weight="normal" text-decoration="undefined" x="100.5" y="419.5" text-anchor="middle" dominant-baseline="central" transform="matrix(1 0 0 1 407 313)">(from aggregation)</text></g></g><g><path fill="none" stroke="#000000" paint-order="fill stroke markers" d=" M 503 752.5 A 23.5 23.5 0 0 1 503 799.5" stroke-miterlimit="10" stroke-dasharray=""/></g><g><g><path fill="none" stroke="none"/><text fill="#000000" stroke="none" font-family="Arial" font-size="13px" font-style="normal" font-weight="bold" text-decoration="undefined" x="97.416748046875" y="500.5" text-anchor="middle" dominant-baseline="central" transform="matrix(1 0 0 1 407 313)">KnowledgeModel</text></g></g><g><path fill="none" stroke="#000000" paint-order="fill stroke markers" d=" M 639 745 L 583 745 L 583 776 L 527.416748046875 776" stroke-miterlimit="10" stroke-dasharray=""/></g><g><path fill="none" stroke="#000000" paint-order="fill stroke markers" d=" M 639 689 L 535 689 L 535 537" stroke-miterlimit="10" stroke-dasharray="3"/></g><g><path fill="none" stroke="#000000" paint-order="fill stroke markers" d=" M 539.209517756016 547.1626748576241 L 535 537 L 530.790482243984 547.1626748576241" stroke-miterlimit="10" stroke-dasharray=""/></g><g><rect fill="#ffffff" stroke="none" x="128" y="352" width="35.419921875" height="13" transform="matrix(1 0 0 1 407 313)"/></g><g><g><path fill="none" stroke="none"/><text fill="#000000" stroke="none" font-family="Arial" font-size="13px" font-style="normal" font-weight="normal" text-decoration="undefined" x="145.7099609375" y="358.5" text-anchor="middle" dominant-baseline="central" transform="matrix(1 0 0 1 407 313)">«use»</text></g></g></g></svg>