<svg version="1.1" xmlns="http://www.w3.org/2000/svg" xmlns:xlink="http://www.w3.org/1999/xlink" width="504.998046875" height="471"><defs/><g><g><path fill="#C0C0C0" stroke="none" paint-order="stroke fill markers" d=" M 116.9599609375 31 C 116.9599609375 23.2680128 123.22797373750001 17 130.9599609375 17 C 138.6919481375 17 144.9599609375 23.2680128 144.9599609375 31 C 144.9599609375 38.731987200000006 138.6919481375 45 130.9599609375 45 C 123.22797373750001 45 116.9599609375 38.731987200000006 116.9599609375 31 Z" fill-opacity="0.2"/></g><g><path fill="#C0C0C0" stroke="none" paint-order="stroke fill markers" d=" M 95 53 L 166.919921875 53 Q 172.919921875 53 172.919921875 59 L 172.919921875 101 Q 172.919921875 107 166.919921875 107 L 95 107 Q 89 107 89 101 L 89 59 Q 89 53 95 53 Z" fill-opacity="0.2"/></g><g><path fill="#38bcff" stroke="none" paint-order="stroke fill markers" d=" M 109.9599609375 24 C 109.9599609375 16.2680128 116.22797373750001 10 123.9599609375 10 C 131.6919481375 10 137.9599609375 16.2680128 137.9599609375 24 C 137.9599609375 31.7319872 131.6919481375 38 123.9599609375 38 C 116.22797373750001 38 109.9599609375 31.7319872 109.9599609375 24 Z"/></g><g><path fill="none" stroke="#000000" paint-order="fill stroke markers" d=" M 109.9599609375 24 C 109.9599609375 16.2680128 116.22797373750001 10 123.9599609375 10 C 131.6919481375 10 137.9599609375 16.2680128 137.9599609375 24 C 137.9599609375 31.7319872 131.6919481375 38 123.9599609375 38 C 116.22797373750001 38 109.9599609375 31.7319872 109.9599609375 24 Z" stroke-miterlimit="10" stroke-dasharray=""/></g><g><path fill="#38bcff" stroke="none" paint-order="stroke fill markers" d=" M 88 46 L 159.919921875 46 Q 165.919921875 46 165.919921875 52 L 165.919921875 94 Q 165.919921875 100 159.919921875 100 L 88 100 Q 82 100 82 94 L 82 52 Q 82 46 88 46 Z"/></g><g><path fill="none" stroke="#000000" paint-order="fill stroke markers" d=" M 88 46 L 159.919921875 46 Q 165.919921875 46 165.919921875 52 L 165.919921875 94 Q 165.919921875 100 159.919921875 100 L 88 100 Q 82 100 82 94 L 82 52 Q 82 46 88 46 Z" stroke-miterlimit="10" stroke-dasharray=""/></g><g><g><path fill="none" stroke="none"/><text fill="#000000" stroke="none" font-family="Arial" font-size="13px" font-style="normal" font-weight="bold" text-decoration="undefined" x="161.9599609375" y="90.5" text-anchor="middle" dominant-baseline="central" transform="matrix(1 0 0 1 -38 -30)">User</text></g></g><g><g><path fill="none" stroke="none"/><text fill="#000000" stroke="none" font-family="Arial" font-size="13px" font-style="normal" font-weight="normal" text-decoration="undefined" x="161.9599609375" y="105.5" text-anchor="middle" dominant-baseline="central" transform="matrix(1 0 0 1 -38 -30)">[Person]</text></g></g><g><g><path fill="none" stroke="none"/></g></g><g><path fill="#C0C0C0" stroke="none" paint-order="stroke fill markers" d=" M 23 201 L 227 201 Q 233 201 233 207 L 233 327 Q 233 333 227 333 L 23 333 Q 17 333 17 327 L 17 207 Q 17 201 23 201 Z" fill-opacity="0.2"/></g><g><path fill="#6dceff" stroke="none" paint-order="stroke fill markers" d=" M 16 194 L 220 194 Q 226 194 226 200 L 226 320 Q 226 326 220 326 L 16 326 Q 10 326 10 320 L 10 200 Q 10 194 16 194 Z"/></g><g><path fill="none" stroke="#000000" paint-order="fill stroke markers" d=" M 16 194 L 220 194 Q 226 194 226 200 L 226 320 Q 226 326 220 326 L 16 326 Q 10 326 10 320 L 10 200 Q 10 194 16 194 Z" stroke-miterlimit="10" stroke-dasharray=""/></g><g><g><path fill="none" stroke="none"/><text fill="#000000" stroke="none" font-family="Arial" font-size="13px" font-style="normal" font-weight="bold" text-decoration="undefined" x="156" y="238.5" text-anchor="middle" dominant-baseline="central" transform="matrix(1 0 0 1 -38 -30)">MDTea-Prototype</text></g></g><g><g><path fill="none" stroke="none"/><text fill="#000000" stroke="none" font-family="Arial" font-size="13px" font-style="normal" font-weight="normal" text-decoration="undefined" x="156" y="253.5" text-anchor="middle" dominant-baseline="central" transform="matrix(1 0 0 1 -38 -30)">[Software System]</text></g></g><g><g><path fill="none" stroke="none"/><text fill="#000000" stroke="none" font-family="Arial" font-size="13px" font-style="normal" font-weight="normal" text-decoration="undefined" x="156" y="276.5" text-anchor="middle" dominant-baseline="central" transform="matrix(1 0 0 1 -38 -30)">Partial implementation of MDTea;</text><text fill="#000000" stroke="none" font-family="Arial" font-size="13px" font-style="normal" font-weight="normal" text-decoration="undefined" x="156" y="289.5" text-anchor="middle" dominant-baseline="central" transform="matrix(1 0 0 1 -38 -30)">Generate Material and</text><text fill="#000000" stroke="none" font-family="Arial" font-size="13px" font-style="normal" font-weight="normal" text-decoration="undefined" x="156" y="302.5" text-anchor="middle" dominant-baseline="central" transform="matrix(1 0 0 1 -38 -30)">courses;
Aggregation of</text><text fill="#000000" stroke="none" font-family="Arial" font-size="13px" font-style="normal" font-weight="normal" text-decoration="undefined" x="156" y="315.5" text-anchor="middle" dominant-baseline="central" transform="matrix(1 0 0 1 -38 -30)">Knowledge 
</text></g></g><g><path fill="#C0C0C0" stroke="none" paint-order="stroke fill markers" d=" M 351 233 L 479.998046875 233 Q 485.998046875 233 485.998046875 239 L 485.998046875 294 Q 485.998046875 300 479.998046875 300 L 351 300 Q 345 300 345 294 L 345 239 Q 345 233 351 233 Z" fill-opacity="0.2"/></g><g><path fill="#8E8E8E" stroke="none" paint-order="stroke fill markers" d=" M 344 226 L 472.998046875 226 Q 478.998046875 226 478.998046875 232 L 478.998046875 287 Q 478.998046875 293 472.998046875 293 L 344 293 Q 338 293 338 287 L 338 232 Q 338 226 344 226 Z"/></g><g><path fill="none" stroke="#000000" paint-order="fill stroke markers" d=" M 344 226 L 472.998046875 226 Q 478.998046875 226 478.998046875 232 L 478.998046875 287 Q 478.998046875 293 472.998046875 293 L 344 293 Q 338 293 338 287 L 338 232 Q 338 226 344 226 Z" stroke-miterlimit="10" stroke-dasharray=""/></g><g><g><path fill="none" stroke="none"/><text fill="#000000" stroke="none" font-family="Arial" font-size="13px" font-style="normal" font-weight="bold" text-decoration="undefined" x="446.4990234375" y="270.5" text-anchor="middle" dominant-baseline="central" transform="matrix(1 0 0 1 -38 -30)">GPT4All</text></g></g><g><g><path fill="none" stroke="none"/><text fill="#000000" stroke="none" font-family="Arial" font-size="13px" font-style="normal" font-weight="normal" text-decoration="undefined" x="446.4990234375" y="285.5" text-anchor="middle" dominant-baseline="central" transform="matrix(1 0 0 1 -38 -30)">[Software System]</text></g></g><g><g><path fill="none" stroke="none"/></g></g><g><path fill="none" stroke="#000000" paint-order="fill stroke markers" d=" M 122 100 L 122 194" stroke-miterlimit="10" stroke-dasharray="3"/></g><g><path fill="#000000" stroke="none" paint-order="stroke fill markers" d=" M 117.790482243984 183.83732514237585 L 122 194 L 126.209517756016 183.83732514237585"/></g><g><path fill="none" stroke="#000000" paint-order="fill stroke markers" d=" M 117.790482243984 183.83732514237585 L 122 194 L 126.209517756016 183.83732514237585 L 117.790482243984 183.83732514237585" stroke-miterlimit="10" stroke-dasharray=""/></g><g><rect fill="#FFFFFF" stroke="none" x="67" y="158" width="200" height="26" transform="matrix(1 0 0 1 -38 -30)"/></g><g><g><path fill="none" stroke="none"/><text fill="#000000" stroke="none" font-family="Arial" font-size="13px" font-style="normal" font-weight="normal" text-decoration="undefined" x="167" y="164.5" text-anchor="middle" dominant-baseline="central" transform="matrix(1 0 0 1 -38 -30)">Use to generate material +</text><text fill="#000000" stroke="none" font-family="Arial" font-size="13px" font-style="normal" font-weight="normal" text-decoration="undefined" x="167" y="177.5" text-anchor="middle" dominant-baseline="central" transform="matrix(1 0 0 1 -38 -30)">courses; 
aggregate knowlege </text></g></g><g><path fill="none" stroke="#000000" paint-order="fill stroke markers" d=" M 226 242 L 338 242" stroke-miterlimit="10" stroke-dasharray="3"/></g><g><path fill="#000000" stroke="none" paint-order="stroke fill markers" d=" M 327.83732514237585 246.209517756016 L 338 242 L 327.83732514237585 237.790482243984"/></g><g><path fill="none" stroke="#000000" paint-order="fill stroke markers" d=" M 327.83732514237585 246.209517756016 L 338 242 L 327.83732514237585 237.790482243984 L 327.83732514237585 246.209517756016" stroke-miterlimit="10" stroke-dasharray=""/></g><g><rect fill="#ffffff" stroke="none" x="289" y="244" width="62.130859375" height="26" transform="matrix(1 0 0 1 -38 -30)"/></g><g><g><path fill="none" stroke="none"/><text fill="#000000" stroke="none" font-family="Arial" font-size="13px" font-style="normal" font-weight="normal" text-decoration="undefined" x="320.0654296875" y="250.5" text-anchor="middle" dominant-baseline="central" transform="matrix(1 0 0 1 -38 -30)">Analyze</text><text fill="#000000" stroke="none" font-family="Arial" font-size="13px" font-style="normal" font-weight="normal" text-decoration="undefined" x="320.0654296875" y="263.5" text-anchor="middle" dominant-baseline="central" transform="matrix(1 0 0 1 -38 -30)">fragments</text></g></g><g><path fill="none" stroke="#000000" paint-order="fill stroke markers" d=" M 338 274 L 226 274" stroke-miterlimit="10" stroke-dasharray="3"/></g><g><path fill="#000000" stroke="none" paint-order="stroke fill markers" d=" M 236.16267485762415 269.790482243984 L 226 274 L 236.16267485762415 278.209517756016"/></g><g><path fill="none" stroke="#000000" paint-order="fill stroke markers" d=" M 236.16267485762415 269.790482243984 L 226 274 L 236.16267485762415 278.209517756016 L 236.16267485762415 269.790482243984" stroke-miterlimit="10" stroke-dasharray=""/></g><g><rect fill="#ffffff" stroke="none" x="280" y="311" width="92.47900390625" height="26" transform="matrix(1 0 0 1 -38 -30)"/></g><g><g><path fill="none" stroke="none"/><text fill="#000000" stroke="none" font-family="Arial" font-size="13px" font-style="normal" font-weight="normal" text-decoration="undefined" x="326.239501953125" y="317.5" text-anchor="middle" dominant-baseline="central" transform="matrix(1 0 0 1 -38 -30)">Response to</text><text fill="#000000" stroke="none" font-family="Arial" font-size="13px" font-style="normal" font-weight="normal" text-decoration="undefined" x="326.239501953125" y="330.5" text-anchor="middle" dominant-baseline="central" transform="matrix(1 0 0 1 -38 -30)">fragment-query</text></g></g><g><path fill="#C0C0C0" stroke="none" paint-order="stroke fill markers" d=" M 367 97 L 495.998046875 97 Q 501.998046875 97 501.998046875 103 L 501.998046875 158 Q 501.998046875 164 495.998046875 164 L 367 164 Q 361 164 361 158 L 361 103 Q 361 97 367 97 Z" fill-opacity="0.2"/></g><g><path fill="#8E8E8E" stroke="none" paint-order="stroke fill markers" d=" M 360 90 L 488.998046875 90 Q 494.998046875 90 494.998046875 96 L 494.998046875 151 Q 494.998046875 157 488.998046875 157 L 360 157 Q 354 157 354 151 L 354 96 Q 354 90 360 90 Z"/></g><g><path fill="none" stroke="#000000" paint-order="fill stroke markers" d=" M 360 90 L 488.998046875 90 Q 494.998046875 90 494.998046875 96 L 494.998046875 151 Q 494.998046875 157 488.998046875 157 L 360 157 Q 354 157 354 151 L 354 96 Q 354 90 360 90 Z" stroke-miterlimit="10" stroke-dasharray=""/></g><g><g><path fill="none" stroke="none"/><text fill="#000000" stroke="none" font-family="Arial" font-size="13px" font-style="normal" font-weight="bold" text-decoration="undefined" x="462.4990234375" y="134.5" text-anchor="middle" dominant-baseline="central" transform="matrix(1 0 0 1 -38 -30)">Remote-LLM-Server</text></g></g><g><g><path fill="none" stroke="none"/><text fill="#000000" stroke="none" font-family="Arial" font-size="13px" font-style="normal" font-weight="normal" text-decoration="undefined" x="462.4990234375" y="149.5" text-anchor="middle" dominant-baseline="central" transform="matrix(1 0 0 1 -38 -30)">[Software System]</text></g></g><g><g><path fill="none" stroke="none"/></g></g><g><path fill="none" stroke="#000000" paint-order="fill stroke markers" d=" M 426 226 L 426 157" stroke-miterlimit="10" stroke-dasharray="3"/></g><g><path fill="#000000" stroke="none" paint-order="stroke fill markers" d=" M 430.209517756016 167.16267485762415 L 426 157 L 421.790482243984 167.16267485762415"/></g><g><path fill="none" stroke="#000000" paint-order="fill stroke markers" d=" M 430.209517756016 167.16267485762415 L 426 157 L 421.790482243984 167.16267485762415 L 430.209517756016 167.16267485762415" stroke-miterlimit="10" stroke-dasharray=""/></g><g><rect fill="#ffffff" stroke="none" x="415" y="207" width="40.4599609375" height="39" transform="matrix(1 0 0 1 -38 -30)"/></g><g><g><path fill="none" stroke="none"/><text fill="#000000" stroke="none" font-family="Arial" font-size="13px" font-style="normal" font-weight="normal" text-decoration="undefined" x="435.22998046875" y="213.5" text-anchor="middle" dominant-baseline="central" transform="matrix(1 0 0 1 -38 -30)">Use a</text><text fill="#000000" stroke="none" font-family="Arial" font-size="13px" font-style="normal" font-weight="normal" text-decoration="undefined" x="435.22998046875" y="226.5" text-anchor="middle" dominant-baseline="central" transform="matrix(1 0 0 1 -38 -30)">remote</text><text fill="#000000" stroke="none" font-family="Arial" font-size="13px" font-style="normal" font-weight="normal" text-decoration="undefined" x="435.22998046875" y="239.5" text-anchor="middle" dominant-baseline="central" transform="matrix(1 0 0 1 -38 -30)">LLM</text></g></g><g><path fill="#C0C0C0" stroke="none" paint-order="stroke fill markers" d=" M 39 401 L 167.998046875 401 Q 173.998046875 401 173.998046875 407 L 173.998046875 462 Q 173.998046875 468 167.998046875 468 L 39 468 Q 33 468 33 462 L 33 407 Q 33 401 39 401 Z" fill-opacity="0.2"/></g><g><path fill="#8E8E8E" stroke="none" paint-order="stroke fill markers" d=" M 32 394 L 160.998046875 394 Q 166.998046875 394 166.998046875 400 L 166.998046875 455 Q 166.998046875 461 160.998046875 461 L 32 461 Q 26 461 26 455 L 26 400 Q 26 394 32 394 Z"/></g><g><path fill="none" stroke="#000000" paint-order="fill stroke markers" d=" M 32 394 L 160.998046875 394 Q 166.998046875 394 166.998046875 400 L 166.998046875 455 Q 166.998046875 461 160.998046875 461 L 32 461 Q 26 461 26 455 L 26 400 Q 26 394 32 394 Z" stroke-miterlimit="10" stroke-dasharray=""/></g><g><g><path fill="none" stroke="none"/><text fill="#000000" stroke="none" font-family="Arial" font-size="13px" font-style="normal" font-weight="bold" text-decoration="undefined" x="134.4990234375" y="438.5" text-anchor="middle" dominant-baseline="central" transform="matrix(1 0 0 1 -38 -30)">OPAL</text></g></g><g><g><path fill="none" stroke="none"/><text fill="#000000" stroke="none" font-family="Arial" font-size="13px" font-style="normal" font-weight="normal" text-decoration="undefined" x="134.4990234375" y="453.5" text-anchor="middle" dominant-baseline="central" transform="matrix(1 0 0 1 -38 -30)">[Software System]</text></g></g><g><g><path fill="none" stroke="none"/><text fill="#000000" stroke="none" font-family="Arial" font-size="13px" font-style="normal" font-weight="normal" text-decoration="undefined" x="134.4990234375" y="476.5" text-anchor="middle" dominant-baseline="central" transform="matrix(1 0 0 1 -38 -30)">LMS</text></g></g><g><path fill="none" stroke="#000000" paint-order="fill stroke markers" d=" M 106 326 L 106 394" stroke-miterlimit="10" stroke-dasharray="3"/></g><g><path fill="#000000" stroke="none" paint-order="stroke fill markers" d=" M 101.790482243984 383.83732514237585 L 106 394 L 110.209517756016 383.83732514237585"/></g><g><path fill="none" stroke="#000000" paint-order="fill stroke markers" d=" M 101.790482243984 383.83732514237585 L 106 394 L 110.209517756016 383.83732514237585 L 101.790482243984 383.83732514237585" stroke-miterlimit="10" stroke-dasharray=""/></g><g><rect fill="#ffffff" stroke="none" x="149" y="376" width="64" height="26" transform="matrix(1 0 0 1 -38 -30)"/></g><g><g><path fill="none" stroke="none"/><text fill="#000000" stroke="none" font-family="Arial" font-size="13px" font-style="normal" font-weight="normal" text-decoration="undefined" x="181" y="382.5" text-anchor="middle" dominant-baseline="central" transform="matrix(1 0 0 1 -38 -30)">Export</text><text fill="#000000" stroke="none" font-family="Arial" font-size="13px" font-style="normal" font-weight="normal" text-decoration="undefined" x="181" y="395.5" text-anchor="middle" dominant-baseline="central" transform="matrix(1 0 0 1 -38 -30)">course to</text></g></g></g></svg>